<?xml version="1.0" standalone="no"?>
<!DOCTYPE svg PUBLIC "-//W3C//DTD SVG 1.1//EN" "http://www.w3.org/Graphics/SVG/1.1/DTD/svg11.dtd" >
<svg>
<metadata>
Created by FontForge 20120731 at Tue Oct 23 02:04:59 2018
 By www-data
Copyright (c) 2018 by Billy Argel. All rights reserved.
</metadata>
<defs>
<font id="MustardPersonalUse" horiz-adv-x="927" >
  <font-face 
    font-family="Mustard Personal Use"
    font-weight="400"
    font-stretch="normal"
    units-per-em="1000"
    panose-1="0 0 0 0 0 0 0 0 0 0"
    ascent="800"
    descent="-200"
    x-height="661"
    cap-height="1319"
    bbox="-310.525 -1394.17 1936.78 1703.89"
    underline-thickness="50"
    underline-position="-50"
    unicode-range="U+000D-FB02"
  />
<missing-glyph horiz-adv-x="260" 
 />
    <glyph glyph-name="t_t" unicode="tt" horiz-adv-x="564" 
d="M-14 623q-10 -2 -15 6t-5.5 19.5t3 24t10.5 20.5q22 13 44 21.5t45 16.5l22 85q14 50 11.5 102.5t-13.5 90.5q-3 13 9 10.5t27 -8.5q9 -4 25 -16t31.5 -28t28.5 -32t18 -28q9 -29 7.5 -66t-9.5 -82q35 4 70 8.5t68 13.5l9 35q14 50 11.5 102.5t-13.5 90.5q-3 13 9 10.5
t27 -8.5q9 -4 25 -16t31.5 -28t28.5 -32t18 -28q2 -9 3.5 -18.5t3.5 -20.5q14 14 29 30t29 36q8 -16 15.5 -40t9 -52t-5.5 -57t-27 -54q-38 -40 -77 -56q-10 -46 -23 -107.5t-26 -126.5t-24.5 -128t-17.5 -113t-5 -81t12 -31q16 1 32.5 19.5t32.5 48t31.5 66.5t29.5 75.5
t26.5 75t22.5 64.5q4 12 13.5 11.5t18 -9t13 -21.5t0.5 -25q-11 -30 -24.5 -72t-30.5 -87t-37.5 -90t-43.5 -80t-49 -57t-55 -22q-32 -1 -54 12t-37 37t-23 58t-10 76q-16 -37 -34 -70t-37.5 -58t-41 -40t-45.5 -15q-45 -1 -71.5 25.5t-39.5 73t-13 110.5t8.5 137
t23.5 152.5t34 157.5q-15 -3 -29.5 -8t-29.5 -10zM123 88q20 1 40 27.5t39.5 67t37 88.5t32.5 92q10 69 25 143t33 146q-29 2 -61 4t-66 3q-10 -47 -23 -108t-25.5 -124t-23 -124t-16 -108.5t-4.5 -77t12 -29.5z" />
    <glyph glyph-name="l_l" unicode="ll" horiz-adv-x="645" 
d="M478 389q-35 -100 -38 -205.5t39 -211.5q17 -44 46 -77t64 -53.5t72.5 -29.5t70.5 -5q27 3 50.5 15t41.5 31t29 44.5t13 54.5q1 23 18 8t31 -59q22 -74 14 -119t-30.5 -70t-51.5 -34t-48 -11q-78 -8 -146 18.5t-123 79t-96.5 128.5t-68.5 167q-22 71 -31 140
q-14 -34 -30 -64.5t-35 -54t-41 -37t-47 -13.5q-68 0 -110 45t-60 119.5t-14 170.5t27 198q12 52 27 118t33.5 134.5t41.5 133.5t50.5 116t60 82t70.5 32q27 1 46 -13.5t31.5 -37t17.5 -48.5t4 -48q-3 -40 -16 -98t-33.5 -123t-47 -132t-56 -125.5t-60 -102.5t-58.5 -63
q-12 -60 -9 -107.5t13 -80.5t23.5 -50t22.5 -17q25 0 46 19.5t38.5 50.5t32 69.5t27.5 77.5q3 53 11 104t21 104q12 53 27 112.5t33.5 118t39.5 112.5t45.5 95t52.5 65t59 24q27 0 46.5 -15t31.5 -37t17 -47.5t4 -47.5q-3 -40 -13.5 -91t-27.5 -105.5t-39.5 -109.5t-48 -103
t-54 -85t-56.5 -56zM342 1100q-6 0 -19 -31t-30 -81.5t-35.5 -114t-36.5 -129t-34 -127t-26 -106.5q24 27 51 81t52 119.5t45.5 134t32.5 125t13 93t-13 36.5zM654 1007q-6 0 -17 -24t-24 -64t-28 -91.5t-29.5 -107t-28 -110t-23.5 -99.5q24 27 48.5 74t46 102t38 111.5
t25.5 103t7.5 75.5t-15.5 30z" />
    <glyph glyph-name=".notdef" horiz-adv-x="260" 
 />
    <glyph glyph-name="i" unicode="i" horiz-adv-x="289" 
d="M109 -17q-34 -1 -57.5 19t-38 54.5t-21 79.5t-7 94.5t4.5 99t13 93.5q4 25 10.5 59.5t11.5 70t7.5 66.5t-0.5 50q-2 13 10 8t26 -15q10 -5 24.5 -20t29 -33t26 -36t14.5 -30q3 -15 2 -42.5t-4 -59t-8 -62.5t-9 -53q-8 -37 -13.5 -79t-7.5 -77.5t0 -58.5t9 -23
q15 1 31 19.5t32 48t31.5 66.5t29.5 75.5t26.5 75t22.5 64.5q4 12 13.5 11.5t18 -9t13 -21.5t0.5 -25q-11 -31 -25 -73.5t-31 -88t-37 -89.5t-43 -79t-49 -57t-55 -23zM56 867q9 38 35 51t54 -9q15 -11 26 -28.5t17.5 -37.5t8 -41t-2.5 -40q-9 -41 -35.5 -53t-55.5 9
q-29 23 -42 65.5t-5 83.5z" />
    <glyph glyph-name="t" unicode="t" horiz-adv-x="282" 
d="M225 759q-2 -14 -10 -50l-19 -85.5t-23 -108.5t-23.5 -118.5t-21 -115t-14 -98.5t-3 -69t11.5 -26q16 1 32.5 19.5t32.5 48t31.5 66.5t29.5 75.5t26.5 75t22.5 64.5q4 12 13.5 11.5t18 -9t13 -21.5t0.5 -25q-11 -30 -24.5 -72t-30.5 -87t-37.5 -90t-43.5 -80t-49 -57
t-55 -22q-50 -1 -77.5 31.5t-38.5 89t-7.5 132.5t16.5 160.5t32.5 173t41.5 171.5q-48 -8 -83.5 -16.5t-46.5 -13.5q-9 -5 -16 6t-8.5 28.5t4 34.5t19.5 24q42 11 80 19t76 12q8 45 5 91t-12 81q-3 13 9 10.5t27 -8.5q9 -4 25 -16t31.5 -28t28.5 -32t18 -28q4 -14 5.5 -30
t1.5 -33q79 -1 139 -12q12 -5 19.5 -14t9 -18t-3.5 -15t-16 -5q-19 1 -61 -2t-94 -11l-2 -8v0z" />
    <glyph glyph-name="l" unicode="l" horiz-adv-x="343" 
d="M268 1011q-6 0 -16 -24t-21.5 -64t-24 -91.5t-24.5 -107t-23 -110t-19 -99.5q23 27 45 74t41.5 102t33.5 111.5t20.5 103t4 75.5t-16.5 30zM166 -15q-68 0 -110.5 52t-62.5 135t-18.5 186t20.5 205q10 52 22 112t28 118.5t35 112.5t42 95t49.5 65.5t57.5 24.5
q27 -1 47 -16t33 -36.5t19.5 -47t5.5 -47.5q-1 -40 -9.5 -91t-23.5 -106t-35 -110t-44 -103t-50.5 -85t-53.5 -56q-9 -60 -6 -115.5t12.5 -97.5t22.5 -67t22 -25q22 0 42 18t37.5 47.5t33 67t29 76.5t25.5 75.5t22 64.5q4 12 13.5 11.5t18 -9t13 -21.5t0.5 -25
q-11 -31 -25 -73.5t-30.5 -88t-36 -89.5t-42 -79t-48.5 -56.5t-55 -21.5z" />
    <glyph glyph-name="u" unicode="u" horiz-adv-x="565" 
d="M408 88q15 1 30.5 20t31.5 49t31.5 67.5t30 75.5t26.5 74t22 63q4 12 13 11.5t17.5 -8.5t13.5 -21t1 -26q-10 -31 -24 -74t-31.5 -88.5t-38 -90t-44 -79.5t-50.5 -56.5t-56 -21.5q-29 1 -50 14.5t-35.5 35t-24 51t-13.5 63.5q-16 -35 -35 -65t-39 -51.5t-40 -33.5
t-37 -12q-48 0 -76.5 34t-42 87t-13.5 118t10 127q4 27 9.5 57.5t10.5 61t10 59t8 52.5q1 5 2 14.5t1.5 20t0.5 20.5t-1 16q-3 13 8.5 10.5t27.5 -8.5q9 -4 27.5 -18t37 -31.5t33 -35t17.5 -29.5q1 -3 -3 -25t-10.5 -53.5t-14.5 -69t-15 -71.5t-12 -60.5t-6 -35.5
q-3 -24 -4.5 -48.5t-0.5 -44t4.5 -32t11.5 -12.5q12 1 30 18t37 45t35.5 65t26.5 78q2 34 7 66t11 63q4 25 12 56.5t15 63t11.5 60t1.5 47.5q-2 12 10 7t26 -14q10 -5 24.5 -20t29 -33.5t26 -36.5t14.5 -29q3 -15 0.5 -39.5t-7.5 -52.5t-12 -56t-11 -50q-8 -39 -14 -81.5
t-7.5 -77.5t2 -57.5t13.5 -21.5z" />
    <glyph glyph-name="b" unicode="b" horiz-adv-x="574" 
d="M311 1009q-6 0 -17 -24t-24.5 -64t-28.5 -92t-29.5 -107t-28.5 -110t-24 -100q25 29 50 77t46.5 103.5t38.5 111.5t25.5 101.5t7 74.5t-15.5 29zM402 280q-14 -57 -31.5 -109.5t-39.5 -93.5t-50 -66t-64 -25q-51 -1 -89.5 21.5t-65.5 62t-43 93.5t-21.5 115.5t-1 128
t18.5 132.5q12 55 27 117t33 122.5t39 116t46 98t53.5 68t61.5 27.5q27 1 46 -13t31 -35.5t17.5 -48t5.5 -49.5q0 -39 -11.5 -92t-30.5 -111.5t-43.5 -116.5t-50.5 -107t-52.5 -84t-49.5 -45q-12 -60 -10 -117t14 -101t32 -70t44 -25t43 27.5t35 70t29.5 98.5t26.5 113
q4 15 -1.5 38.5t-13 51.5t-13 57.5t-0.5 58.5q3 22 8.5 42t15 34.5t24.5 22.5t39 7q23 -1 35 -19.5t15.5 -46.5t1 -62t-8 -66t-12 -58.5t-10.5 -39.5q1 -11 6.5 -27t14 -32t19.5 -27.5t22 -11.5q17 -1 31.5 11t27 31.5t23 45.5t20.5 53q5 13 13.5 14.5t16.5 -5t12.5 -19.5
t1.5 -28q-9 -40 -23 -77.5t-31 -66t-38 -45.5t-44 -16q-15 0 -27 3.5t-24 12.5t-24 24t-26 38z" />
    <glyph glyph-name="space" unicode=" " horiz-adv-x="260" 
 />
    <glyph glyph-name="v" unicode="v" horiz-adv-x="521" 
d="M338 283q-3 -24 -11.5 -55.5t-23 -64.5t-34.5 -65t-44.5 -57t-53.5 -40.5t-61 -15.5q-48 -1 -76.5 33t-42 87t-13.5 118.5t10 127.5q4 27 9.5 57.5t10.5 61t10 59t8 52.5q1 5 2 14.5t1.5 20t0.5 20.5t-1 16q-3 13 8.5 10.5t27.5 -8.5q9 -4 27.5 -18t37 -31.5t33 -35
t17.5 -29.5q1 -3 -3 -25t-10.5 -53.5t-14.5 -69t-15 -71.5t-12 -60.5t-6 -35.5q-3 -24 -4.5 -48t-1 -43.5t4.5 -32t12 -13.5q24 -2 48 26t46 72.5t39.5 99t29.5 105.5q-15 37 -24.5 88.5t-0.5 108.5q3 22 9 43.5t16.5 38t26.5 25.5t40 8q27 -2 41 -21.5t18.5 -49t2 -64
t-8.5 -67.5t-13 -59.5t-11 -39.5q1 -11 4.5 -27t9.5 -32t15 -27.5t20 -11.5q17 -1 31.5 11t27 31.5t23 45.5t20.5 53q5 13 13.5 14.5t16.5 -5t12.5 -19.5t1.5 -28q-9 -40 -23 -77.5t-31 -66t-38 -45.5t-44 -16q-29 1 -58 18.5t-52 62.5z" />
    <glyph glyph-name="w" unicode="w" horiz-adv-x="791" 
d="M404 88q24 -2 48 29t45 77.5t38 100t26 96.5q-15 37 -24.5 88.5t-0.5 108.5q3 22 9 43.5t16.5 38t26.5 25.5t40 8q27 -2 41 -21.5t18.5 -49t2 -64t-8.5 -67.5t-13 -59.5t-11 -39.5q1 -11 4.5 -27t9.5 -32t15 -27.5t20 -11.5q17 -1 31.5 11t27 31.5t23 45.5t20.5 53
q5 13 13.5 14.5t16.5 -5t12.5 -19.5t1.5 -28q-9 -40 -23 -77.5t-31 -66t-38 -45.5t-44 -16q-29 1 -58 18.5t-52 62.5q-3 -20 -11 -50.5t-21.5 -64.5t-32 -67.5t-42 -60t-52.5 -42t-63 -13.5q-54 4 -84 44t-41 100q-17 -32 -35.5 -58t-37 -45.5t-37 -30t-34.5 -10.5
q-48 0 -76.5 34t-42 87t-13.5 118t10 127q4 27 9 57.5t10.5 61t10.5 59t8 52.5q1 5 2 14.5t1.5 20t0.5 20.5t-1 16q-3 13 8.5 10.5t27.5 -8.5q9 -4 27.5 -18t37 -31.5t33 -35t17.5 -29.5q1 -3 -3 -25t-10.5 -53.5t-14.5 -69t-15 -71.5t-12 -60.5t-6 -35.5q-3 -24 -4.5 -48.5
t-0.5 -44t4.5 -32t11.5 -12.5q11 0 26 12.5t31 33.5t31 50t27 62q1 26 3.5 52.5t7.5 52.5q4 27 9.5 57.5l11 61t10.5 59t8 52.5q1 5 2 14.5t1.5 20t0.5 20.5t-1 16q-3 13 8.5 10.5t27.5 -8.5q9 -4 27.5 -18t37 -31.5t33 -35t17.5 -29.5q1 -3 -3 -25t-10.5 -53.5t-14.5 -69
t-15 -71.5t-12 -60.5t-6 -35.5q-3 -24 -4.5 -48t-1 -43.5t4.5 -32t12 -13.5z" />
    <glyph glyph-name="c" unicode="c" horiz-adv-x="419" 
d="M226 105q35 7 65.5 41.5t56.5 83t47.5 104t38.5 103.5q4 12 13.5 11.5t18 -9t13 -21.5t0.5 -25q-15 -42 -31 -88.5t-34.5 -91.5t-41 -86t-51.5 -72t-64.5 -49.5t-80.5 -18.5t-81 24.5t-61 66t-38.5 95.5t-15 113t10 118t37.5 111q39 80 84.5 112t84.5 31q32 0 56 -11.5
t41 -29t27 -38t14 -39.5q3 -12 6 -32.5t0 -46.5t-14.5 -56t-38.5 -61q-7 -8 -16 -5.5t-15.5 10.5t-9 19.5t3.5 20.5q17 26 23.5 50t4.5 42t-11 29t-22 11q-7 0 -17 -4.5t-22 -16.5t-25.5 -33t-28.5 -54q-12 -27 -19.5 -60t-9 -67.5t3 -67.5t17 -58.5t32.5 -40.5t49 -14z" />
    <glyph glyph-name="e" unicode="e" horiz-adv-x="430" 
d="M215 102q42 0 77.5 36.5t64.5 89t51.5 110t37.5 99.5q4 12 13.5 11.5t18 -9t13 -21.5t0.5 -25q-16 -43 -32 -90t-35 -92t-41.5 -85t-51.5 -70.5t-66 -48.5t-83 -18q-63 0 -105.5 28.5t-66.5 75t-32 106.5t-2 122.5t24.5 122.5t47 107.5t65 77.5t78.5 32q28 1 51.5 -8
t41.5 -25t30 -37t18 -44q17 -62 1.5 -122.5t-49 -109.5t-77.5 -81.5t-84 -38.5q9 -42 31.5 -68t60.5 -25zM121 273q25 8 54.5 33t53 57.5t37.5 67.5t8 62q-2 9 -9.5 17.5t-19.5 8.5q-29 0 -52.5 -22.5t-40 -57.5t-25 -79t-6.5 -87z" />
    <glyph glyph-name="d" unicode="d" horiz-adv-x="536" 
d="M480 759q-2 -14 -10 -50l-19 -85.5t-23 -108.5t-23.5 -118.5t-21 -115t-14 -98.5t-3 -69t11.5 -26q16 1 32.5 19.5t32.5 48t31.5 66.5t29.5 75.5t26.5 75t22.5 64.5q4 12 13.5 11.5t18 -9t13 -21.5t0.5 -25q-11 -30 -24.5 -72t-30.5 -87t-37.5 -90t-43.5 -80t-49 -57
t-55 -22q-35 -1 -59 14.5t-38.5 44t-21 69t-6.5 89.5q-18 -41 -38.5 -79t-42 -67t-44.5 -46.5t-47 -15.5q-32 2 -52 33.5t-30 80.5t-9.5 110.5t10.5 125t29.5 123t47.5 104t64.5 69t80.5 18.5q31 -5 53.5 -15.5t38.5 -25.5q12 52 25 101.5t26 97.5q14 50 11.5 102.5
t-13.5 90.5q-3 13 9 10.5t27 -8.5q9 -4 25 -16t31.5 -28t28.5 -32t18 -28q9 -29 7.5 -66t-9.5 -82zM113 130q4 0 13 14.5t21.5 38.5t27 54t29 61t27.5 59.5t22 49.5q4 28 8.5 56t11.5 55q-2 0 -3 0.5t-3 0.5q-24 2 -51 -20t-58 -86q-9 -17 -17 -45t-15 -59.5t-12.5 -63.5
t-7.5 -57.5t-0.5 -41.5t7.5 -16z" />
    <glyph glyph-name="g" unicode="g" horiz-adv-x="469" 
d="M530 395q-9 -27 -25.5 -74t-40 -104.5t-54.5 -121.5t-68 -124q2 -57 1.5 -116t-6.5 -124q-6 -64 -20.5 -104t-34.5 -62t-43 -30t-45 -8q-24 0 -43.5 13t-33.5 32.5t-23 41.5t-13 40q-8 40 1 73t29.5 63t49 60t60.5 65q-2 66 -6 130.5t-6 122.5q-17 -36 -35.5 -68
t-38.5 -56t-41 -38t-42 -12q-32 2 -52 33.5t-30 80.5t-9.5 110.5t10.5 125t29.5 123t47.5 104t64.5 69t80.5 18.5q33 -5 57 -17t40.5 -28t26 -35t14.5 -38q4 -15 -0.5 -37.5t-12.5 -37.5t-16 -15t-11 30q-4 38 -33 39q-24 2 -51 -20t-58 -86q-9 -17 -17 -45t-15 -59.5
t-12.5 -63.5t-7.5 -57.5t-0.5 -41.5t7.5 -16q4 0 16 19.5t27 49.5t32.5 66.5t32.5 71.5q5 35 14.5 58.5t26.5 31.5q4 4 9 4q3 0 5.5 1t5.5 1q9 0 22.5 -15.5t25.5 -36t20.5 -41.5t6.5 -31q-11 -53 -11.5 -109.5t1.5 -121.5q28 52 51 105.5t41.5 102t32.5 89t23 66.5
q4 11 13 10t17.5 -9t13 -21t0.5 -26zM172 -403q19 -2 28.5 15t14 45.5t5.5 65.5t2 75l-1 26q-22 -24 -40.5 -45t-31.5 -42t-18.5 -42t-0.5 -44q11 -52 42 -54z" />
    <glyph glyph-name="s" unicode="s" horiz-adv-x="376" 
d="M77 -8q-29 1 -55 19t-46 46.5t-32.5 66t-13.5 79.5q-2 26 0.5 51t9.5 45t18.5 34t27.5 18q10 29 21.5 65.5t22 72t19.5 66t15 48.5q-4 68 2 113t19 72t31.5 38t39.5 11t35 -14.5t20.5 -34.5t6 -41.5t-6.5 -35.5q-5 -11 -13.5 -30t-26.5 -47l-24 -42q8 -38 22 -83.5
t29 -94.5t27.5 -99t17.5 -98q4 -42 -2 -78q22 18 43.5 53t41 78t36.5 87t30 80q4 12 13.5 11.5t18 -9t13 -21.5t0.5 -25q-11 -31 -23.5 -73.5t-29.5 -88t-41.5 -89t-61 -78t-86 -55t-117.5 -19.5zM90 490q-12 -29 -24 -72t-26 -85q13 -13 22.5 -29t13.5 -32q5 -25 3 -39
t-9 -30q-6 -8 -14 -10.5t-9 9.5q-4 23 -12 31.5t-15.5 4.5t-12 -20t-0.5 -42q4 -23 12 -39.5t17 -27.5t17.5 -16.5t14.5 -5.5q23 -2 34.5 17.5t14.5 53.5t0 77.5t-8.5 89t-11 89t-7.5 76.5z" />
    <glyph glyph-name="j" unicode="j" horiz-adv-x="282" 
d="M343 392q-22 -51 -38 -102t-37 -102t-53 -102.5t-86 -103.5q-7 -7 -13.5 -12.5t-12.5 -11.5q-5 -57 -11 -116t-14 -122t-25.5 -99.5t-39.5 -55.5t-45.5 -24t-42.5 -3q-19 1 -37.5 11.5t-34.5 27t-28 38.5t-18 48q-9 42 -0.5 77t29.5 66t51 58.5t65 54.5q3 58 8 115
t10 109.5t10 99t9 83.5q2 31 7.5 77.5t10 96t6.5 95.5t-2 78q-1 6 2 7.5t8.5 0t12.5 -5.5t14 -9q10 -5 24.5 -20t29 -33t26 -36t14.5 -30q3 -15 3.5 -43.5t0 -61.5t-2.5 -65.5t-5 -55.5q-7 -63 -13 -126t-12 -129q34 41 59 82t45.5 85.5t39 94.5t40.5 110q4 12 13.5 11
t18.5 -10t14 -22t0 -25zM36 867q9 38 35 51t54 -9q15 -11 26 -28.5t17.5 -37.5t8 -41t-2.5 -40q-9 -41 -35.5 -53t-55.5 9q-29 23 -42 65.5t-5 83.5zM-53 -202q1 13 0 26q-44 -41 -69.5 -75.5t-19.5 -69.5q5 -25 18 -38t27 -12q28 2 35 47t9 122z" />
    <glyph glyph-name="o" unicode="o" horiz-adv-x="484" 
d="M309 557q-27 0 -53 -21t-50 -54.5t-44.5 -76.5t-36 -87.5t-25.5 -87.5t-12.5 -76.5t3 -53.5t21.5 -20q20 0 49.5 24t64.5 84q-15 28 -21 56t-6 55.5t4.5 53.5t11.5 50q4 16 13.5 36.5t23 36.5t30.5 24t35 -2q31 -16 45 -44t15 -63.5t-9 -77.5t-28 -85q27 5 50 23
t42.5 45.5t35.5 62t30 72.5q4 12 13.5 12.5t18.5 -6.5t14 -19t1 -25q-24 -77 -49 -129.5t-54 -83.5t-64.5 -41.5t-81.5 -2.5l-17 -30q-14 -23 -32 -44t-40 -38t-46.5 -28t-50.5 -13q-31 -2 -57 14.5t-45 45t-31 66.5t-16 79q-5 50 -0.5 104.5t17.5 106.5t34 99.5t48 83
t60 57t70 22.5q9 0 26 -3.5t36 -11t37.5 -20t31.5 -31.5t13.5 -28.5t-25.5 -9.5z" />
    <glyph glyph-name="q" unicode="q" horiz-adv-x="478" 
d="M36 -104q26 13 51 26.5t51 28.5l26 122q-25 -37 -51 -59t-53 -20q-32 2 -52 33.5t-30 80.5t-9.5 110.5t10.5 125t29.5 123t47.5 104t64.5 69t80.5 18.5q33 -5 57 -17t40.5 -28t26 -35t14.5 -38q4 -15 -0.5 -37.5t-12.5 -37.5t-16 -15t-11 30q-4 38 -33 39q-24 2 -51 -20
t-58 -86q-9 -17 -17 -45t-15 -59.5t-12.5 -63.5t-7.5 -57.5t-0.5 -41.5t7.5 -16q3 0 12 13.5t20.5 36t25.5 51t28 58.5t26.5 58.5t22.5 50.5q5 14 10 26t10 18q8 12 24 -2t31.5 -38t26 -51t7.5 -42q-12 -62 -22.5 -114.5t-21.5 -100.5q52 60 97.5 144t83.5 202q5 11 14 9.5
t17 -9.5t12.5 -21t0.5 -26q-38 -112 -85.5 -210.5t-116.5 -179.5q-26 -30 -56 -56q-10 -49 -19.5 -96.5t-18.5 -97.5t-17 -105.5t-16 -120.5q-3 -6 -14 1t-24.5 22.5t-29 36t-28 40.5t-20 36.5t-5.5 24.5l27 141l-72 -38q-12 -6 -21 5t-11.5 29t3.5 38t23 33z" />
    <glyph glyph-name="y" unicode="y" horiz-adv-x="558" 
d="M621 392q-17 -42 -32 -91.5t-37.5 -103t-56.5 -108.5t-88 -107q-7 -7 -13.5 -12.5t-12.5 -11.5q-5 -57 -11 -116t-14 -122t-25.5 -99.5t-40 -55.5t-46 -24t-42.5 -3q-19 1 -37.5 11.5t-34.5 27t-28 38.5t-18 48q-10 42 -1.5 77t29.5 66t51.5 58.5t65.5 54.5q2 50 5.5 97
t8.5 92q-31 -56 -66 -89.5t-65 -33.5q-48 0 -76.5 34t-42 87t-13.5 118t10 127q4 27 9 57.5t10.5 61t10.5 59t8 52.5q1 5 2 14.5t1.5 20t0.5 20.5t-1 16q-3 13 8.5 10.5t27.5 -8.5q9 -4 27.5 -18t37 -31.5t33 -35t17.5 -29.5q1 -3 -3 -25t-10.5 -53.5t-14.5 -69t-15 -71.5
t-12 -60.5t-6 -35.5q-3 -24 -4.5 -48.5t-0.5 -44t4.5 -32t11.5 -12.5q13 1 31.5 18.5t37.5 46.5t36 67.5t26 80.5q3 40 10.5 89t13.5 97t9 92t-1 76q-1 6 2 7.5t8.5 0t12.5 -5.5t14 -9q10 -5 24.5 -20t29 -33t26 -36t14.5 -30q4 -20 4 -53t-3 -73.5t-8 -86t-10 -90t-10 -86
t-8 -74.5q34 41 59 82t45.5 85.5t39 94.5t40.5 110q4 12 13.5 11t18 -9.5t13.5 -21.5t1 -26zM224 -176q-45 -41 -70.5 -75.5t-18.5 -69.5q5 -25 18 -38t27 -12q28 2 35 47t9 122v26z" />
    <glyph glyph-name="n" unicode="n" horiz-adv-x="512" 
d="M375 283q-9 -34 -15 -69t-8.5 -63t-1.5 -45.5t7 -17.5q13 0 28 18.5t30.5 48.5t31 67.5t30 76t27.5 75t23 63.5q4 12 13.5 11.5t18 -9t13 -21.5t0.5 -25q-11 -30 -25 -71.5t-31.5 -87t-38 -90t-43.5 -80t-48.5 -57.5t-52.5 -22q-46 0 -74 30.5t-39.5 80.5t-8 112.5
t19.5 127.5q11 42 20 81t14 68.5t5.5 47.5t-5.5 19q-10 0 -24.5 -11t-31 -30.5t-33 -46.5t-29.5 -58q-5 -29 -12 -55.5t-13 -52.5q-22 -85 -34 -137.5t-14 -77.5q-1 -5 -1.5 -14t-1.5 -19.5t-1 -20.5v-16q1 -18 -23.5 -23t-57.5 11q-25 12 -42.5 39.5t-17.5 61.5
q0 24 9 64.5t21.5 89.5t26 104t24 108.5t14 103.5t-3.5 89q-3 14 16 8t43.5 -23t46.5 -41t25 -46q2 -13 2.5 -24t1.5 -23l2 16q37 56 75 91t69 35q57 0 81.5 -35t28.5 -89.5t-8 -120t-28 -126.5z" />
    <glyph glyph-name="p" unicode="p" horiz-adv-x="491" 
d="M552 398q-13 -40 -28 -86t-34.5 -91t-43.5 -85.5t-53.5 -69.5t-66 -43t-79.5 -6q-6 0 -13 3q-31 -26 -60 -28t-51.5 7.5t-38.5 24.5q-11 -93 -21.5 -180.5t-18 -158.5t-12.5 -121t-5 -68q-5 -9 -24.5 10t-41.5 48.5t-38.5 59.5t-15.5 43q7 116 20 225t28.5 221.5
t32 234.5t30.5 264q2 11 12.5 7t24.5 -14q7 -4 17 -13.5t20.5 -21.5t21 -25.5t18.5 -26.5q17 45 47 74t89 31q52 -1 79.5 -33t39.5 -80q9 -41 6.5 -92t-14.5 -104.5t-32 -105.5t-45 -94q31 12 58 40t51 71t47.5 99.5t47.5 125.5q4 11 13 10t17.5 -9t13.5 -20t2 -23zM130 353
q-6 -36 -11.5 -73.5t-10.5 -75.5l11 -2q25 -9 37.5 -24.5t29.5 -37.5q15 27 28 60t22 68t14 69t3 63.5t-10.5 52t-26.5 33.5q-12 7 -24 -1.5t-23.5 -27.5t-21 -46t-17.5 -58z" />
    <glyph glyph-name="f" unicode="f" horiz-adv-x="383" 
d="M448 402q-10 -28 -22 -65.5t-27 -78t-33 -80t-39.5 -73t-47 -57t-55.5 -31.5q-2 -53 -9 -110t-18.5 -110.5t-27 -101t-33.5 -83t-39 -56.5t-43 -21q-43 0 -70 30t-41.5 81t-18 119.5t1 145t14.5 156.5t22.5 155.5t25.5 142t23 114.5q10 53 26.5 119.5t37.5 135.5
t45.5 134.5t52 116.5t57 83t59.5 34q29 2 53 -18t35 -75q11 -56 8 -124t-18 -138.5t-38.5 -140t-53.5 -129t-63.5 -104.5t-66.5 -66q-2 -7 -3 -14t-3 -13q37 -1 57 -45.5t26 -114.5q24 15 48.5 47.5t48 76t44.5 94t38 102.5q4 11 13 11t17.5 -7t14 -18.5t2.5 -23.5zM158 20
q-22 6 -38 18t-27 29q-16 -76 -30.5 -152.5t-22 -137.5t-5.5 -99t18 -38q19 1 36.5 38.5t31 94t23.5 122.5t14 125zM322 1001q-7 1 -17.5 -28.5t-24 -78t-28.5 -110.5t-29.5 -126t-28.5 -124.5t-24 -105.5q26 36 60 106t61 159q17 54 26.5 108t13 98.5t1 72.5t-9.5 29z" />
    <glyph glyph-name="m" unicode="m" horiz-adv-x="757" 
d="M172 102q0 19 9 59.5t21.5 90t26 102t23 96t13 71.5t-4.5 29q-11 1 -26.5 -10t-32 -31t-33.5 -47.5t-30 -59.5q-5 -29 -11.5 -54.5t-12.5 -49.5q-22 -85 -34 -137.5t-14 -77.5q-1 -5 -1.5 -14t-1.5 -19.5t-1 -20.5v-16q1 -18 -23.5 -23t-57.5 11q-25 12 -42.5 39.5
t-17.5 61.5q0 24 9 64.5t21.5 89.5t26 104t24 108.5t14 103.5t-3.5 89q-3 14 16 8t43.5 -23t46.5 -41t25 -46l3 -33q37 57 77.5 91.5t72.5 34.5q56 0 81.5 -33t30.5 -84q35 53 72 86t67 33q57 0 81.5 -35t28.5 -89.5t-8 -120t-28 -126.5q-9 -34 -15 -69t-8.5 -63t-1.5 -45.5
t7 -17.5q13 0 28 18.5t30.5 48.5t31 67.5t30 76t27.5 75t23 63.5q4 12 13.5 11.5t18 -9t13 -21.5t0.5 -25q-10 -30 -24.5 -71.5t-32 -87t-38 -90t-43.5 -80t-48.5 -57.5t-52.5 -22q-46 0 -74 30.5t-39.5 80.5t-8 112.5t19.5 127.5q11 42 20 81t14 68.5t5.5 47.5t-5.5 19
q-9 0 -22.5 -9.5t-28 -26.5t-30 -40.5t-29.5 -51.5q-5 -32 -13.5 -63.5t-18.5 -62.5q-6 -16 -14 -44t-14 -62q-9 -39 -14.5 -66t-7.5 -43q-1 -5 -1.5 -14t-1.5 -19.5t-1 -20.5v-16q1 -9 -5.5 -15t-18 -8t-27 0.5t-32.5 10.5q-25 12 -42.5 39.5t-17.5 61.5z" />
    <glyph glyph-name="h" unicode="h" horiz-adv-x="551" 
d="M390 90q17 0 34.5 18t34 47t32 66.5t29.5 76t26 75t22 64.5q4 12 13.5 11.5t18 -9t13 -21.5t0.5 -25q-10 -29 -23.5 -70t-30.5 -86.5t-37 -90.5t-42.5 -80.5t-48.5 -58t-54 -22.5q-41 -1 -73.5 17.5t-52.5 53.5t-26 86t6 116q8 42 17.5 91.5t17 92t10 71t-3.5 29.5
q-9 0 -22.5 -10.5t-29.5 -28t-33 -41t-32 -50.5q-14 -83 -23.5 -144t-15.5 -101t-9 -60.5t-3 -23.5q0 -5 -0.5 -14t-0.5 -19.5t0.5 -20.5t1.5 -16q2 -18 -22.5 -23t-59.5 11q-25 12 -44.5 39.5t-21.5 61.5q-2 24 2 64t11.5 87t17 96t18 91.5t15.5 74.5t10 44q12 52 26 112
t31 119t36.5 113t42.5 95t50 65.5t58 24.5q38 -2 62 -28.5t34 -65.5q14 -55 -1.5 -110.5t-45.5 -104t-66 -87.5t-63 -61l-13 -74q15 19 32 37.5t36.5 32t40.5 20.5t44 4q37 -6 56.5 -28t26.5 -55.5t4 -75.5t-10.5 -86.5t-16 -89t-13.5 -82.5q-3 -26 -5 -51.5t-2 -46
t3.5 -33.5t11.5 -13zM310 1008q-19 0 -44 -77t-57 -214q26 23 46 53t34.5 62.5t23 64t11.5 56t-0.5 40t-13.5 15.5z" />
    <glyph glyph-name="k" unicode="k" horiz-adv-x="501" 
d="M295 284q9 -32 19 -62t19 -54t16.5 -39.5t11.5 -16.5q9 -2 21 13.5t26 42.5t29 61.5t29 71.5t27 72.5t23 63.5q4 12 13.5 11.5t18 -9t13 -21.5t0.5 -25q-10 -28 -24 -69.5t-30 -87.5t-35 -92t-39 -82.5t-41.5 -59t-42.5 -22.5q-31 0 -53 16.5t-38.5 44t-28 62t-21 69.5
t-18 68t-18.5 58q23 36 42.5 80t32.5 83t18 65.5t-1 26.5q-11 0 -24.5 -10.5t-27.5 -29.5t-28.5 -45t-26.5 -56q-27 -163 -38.5 -243t-11.5 -86q0 -5 -0.5 -14t-0.5 -19.5t0.5 -20.5t1.5 -16q2 -18 -22.5 -23t-59.5 11q-25 12 -44.5 39.5t-21.5 61.5q-2 24 2 64t11.5 87
t17 96t18 91.5t15.5 74.5t10 44q12 52 25 113.5t28.5 122t33.5 117t39.5 100t47.5 69t57 25.5q27 0 46.5 -15t32 -37t17.5 -47.5t3 -47.5q-4 -49 -18.5 -95.5t-37 -87.5t-51 -75t-59.5 -58l-12 -70q27 37 54 59.5t52 22.5q38 0 62.5 -18t36 -47.5t11 -68t-12.5 -79.5
t-36 -82t-58 -76zM297 1023q-9 1 -18 -19.5t-18.5 -59.5t-21.5 -94t-27 -123q35 48 59.5 100t36.5 95.5t9.5 71.5t-20.5 29z" />
    <glyph glyph-name="x" unicode="x" horiz-adv-x="449" 
d="M-40 -64q-6 24 1 53.5t24.5 62.5t42.5 68.5t54 72.5q-7 58 -8.5 120.5t-1.5 123.5l-21 -73q-3 -13 -12.5 -11.5t-18.5 11t-14 23.5t0 26l67 245q4 17 27 28.5t49.5 17t48 4.5t21.5 -8q-2 -36 -4.5 -78.5t-4 -88t-3 -92t-1.5 -90.5q32 43 59 85.5t43.5 83.5t19.5 79
t-12 73q-6 15 8 24t37 4t44.5 -30.5t29.5 -73.5q8 -42 -10 -83.5t-52 -83.5t-78 -85t-87 -89q2 -35 5 -64.5t7.5 -51t10.5 -33t15 -11.5q18 1 38.5 19.5t41.5 47.5t41.5 65.5t39 74t33.5 73t25 62.5q4 12 13.5 11.5t18 -9t13 -21.5t0.5 -25q-11 -31 -28.5 -74t-39.5 -90
t-48 -93t-54.5 -82.5t-59 -59t-61.5 -22.5q-49 0 -78 39t-44 102q-26 -43 -39 -88.5t-8 -97.5q1 -12 4 -18.5t6 -12t4 -11.5t-2 -15q-3 -12 -16 -17.5t-28.5 0t-31.5 25t-26 58.5z" />
    <glyph glyph-name="z" unicode="z" horiz-adv-x="439" 
d="M53 371q-5 -13 -14 -12.5t-18 8t-14 20.5t-1 26q8 20 17.5 60.5t14.5 94.5q-19 31 -24.5 64t-0.5 64q8 48 30.5 75t45.5 28q20 1 36.5 -13.5t26 -36.5t11.5 -47.5t-6 -46.5l-26 -66q13 8 22 12q16 8 39.5 11.5t48 -2.5t46.5 -23t36 -49q20 -45 20 -90.5t-12.5 -90
t-34.5 -87t-46 -81.5q22 -8 39.5 -25t30.5 -39q23 36 40.5 71t33 72.5t30 79.5t31.5 90q4 13 13.5 12t18 -10t13 -22.5t0.5 -25.5q-18 -47 -34 -92t-33 -87.5t-37 -83t-46 -79.5q16 -58 18.5 -122.5t-3.5 -119.5q-7 -62 -22 -115.5t-39 -93.5t-57 -62.5t-75 -22.5
q-28 0 -48 12.5t-33.5 30.5t-21.5 37.5t-12 33.5q-12 47 -2 92.5t35.5 91t62 92t76.5 96.5q-2 31 -5.5 49t-8 26t-9 10t-8.5 2q-5 -1 -11.5 -10.5t-12.5 -24.5t-11.5 -32.5t-8.5 -33.5q-5 -9 -18.5 -11t-28.5 2.5t-27 14.5t-12 23q-2 42 7 86.5t24 88t33 84t33.5 74
t25.5 58.5t10 38q-1 20 -9.5 27.5t-22 11t-31.5 6.5t-38 15q-11 -29 -22 -61.5t-25 -71.5zM153 -403q27 1 42.5 27t23.5 68t10.5 95t2.5 108q-29 -41 -52.5 -79.5t-39.5 -72t-23 -61t-2 -45.5q5 -19 14.5 -30.5t23.5 -9.5z" />
    <glyph glyph-name="A" unicode="A" horiz-adv-x="1264" 
d="M325 -31q40 2 70 28.5t54 72.5t45 109.5t44.5 139.5t51 162t65.5 178q-58 28 -108 36t-80 6q-67 -6 -121 -34t-94 -72t-66.5 -101.5t-38.5 -121.5t-9 -132.5t21 -133.5q19 -70 62.5 -104t103.5 -33zM808 686q45 -42 79.5 -96.5t54.5 -121.5q13 88 34.5 180t47.5 180
t54.5 169t55.5 148q-83 -50 -163 -162.5t-163 -296.5zM700 762q57 123 115.5 223.5t122.5 173t135.5 116.5t154.5 55q13 1 25 -1.5t20.5 -11t11.5 -23t-3 -35.5q-11 -39 -27.5 -101t-34.5 -140t-37 -169t-35.5 -188t-29.5 -196t-19.5 -193t-5 -180t14.5 -156q2 -13 3 -24
t-2 -17t-10.5 -5t-21.5 13q-34 28 -60.5 62t-44.5 66.5t-28 60.5t-10 45q-1 17 -2 49.5t-6 73.5t-15 87.5t-28 90.5t-46 83.5t-68 66.5q-34 -94 -58.5 -193t-46.5 -193t-46 -178t-58 -148.5t-82.5 -104t-118.5 -44.5q-65 -4 -120.5 23.5t-100 75t-76.5 107.5t-48 122
q-20 79 -23.5 167t11.5 173t49.5 162.5t90.5 136.5t134 94t181 35q57 0 119.5 -14.5t123.5 -46.5z" />
    <glyph glyph-name="B" unicode="B" horiz-adv-x="1278" 
d="M483 746q14 -6 21 -18.5t6.5 -24.5t-8.5 -20t-23 -5q-35 7 -74 22.5t-74 43.5t-63 70.5t-42 102.5q-9 39 -4.5 87.5t25.5 98t60.5 96t101 82t146 57t196.5 20.5q33 0 75.5 -6.5t87.5 -21t89.5 -38t82.5 -57.5t67 -79.5t42 -104.5q13 -60 -1.5 -114.5t-50 -102.5
t-87 -87.5t-111.5 -68.5q38 -20 73.5 -46t64.5 -60t50 -76.5t31 -93.5q17 -93 7.5 -189t-43.5 -185t-91 -166.5t-134 -134.5t-173 -89.5t-208 -30.5q-99 1 -190.5 26.5t-164.5 75t-121.5 124t-61.5 175.5q-11 81 12.5 155t75 132t128 93.5t173.5 38.5q24 0 46 0.5t44 -1.5
q8 69 25.5 144t43.5 152.5t61 155t78 151.5q10 18 31 14t40.5 -19.5t31 -38t2.5 -40.5q-23 -45 -42.5 -92t-36.5 -96q42 5 92.5 20.5t101.5 38t97.5 50.5t81.5 58t53.5 60.5t12.5 58.5q-7 32 -28.5 56t-52 40t-67 25.5t-74 14.5t-72.5 5.5t-63 -0.5q-101 -5 -179.5 -38
t-131 -78.5t-77 -96.5t-18.5 -90q3 -18 7 -36t15 -34.5t31.5 -33t56.5 -31.5zM456 262q-1 13 -1 26.5v27.5q-16 0 -29.5 -0.5t-27.5 -0.5q-57 -2 -113.5 -30t-98.5 -71.5t-63 -96t-8 -104.5q10 -40 34.5 -71t57.5 -53t73 -37t80.5 -24t80.5 -12t73 -2q98 3 181.5 36.5
t150.5 85.5t117 116t81.5 128.5t45 123t7.5 98.5q-9 58 -57.5 97.5t-115.5 61.5t-142.5 26.5t-138.5 -7.5q-12 -48 -19.5 -94.5t-12.5 -94.5q28 -12 56 -29t58 -41q16 -13 21 -29t2 -28t-12.5 -15.5t-23.5 9.5q-42 35 -106 47q0 -41 3 -81q1 -18 5.5 -38.5t10.5 -40
t12.5 -37.5t12.5 -31q10 -23 0.5 -32t-28.5 -8.5t-42 9.5t-39 21q-40 31 -60 80.5t-25 114.5z" />
    <glyph glyph-name="C" unicode="C" horiz-adv-x="771" 
d="M795 456q4 11 12.5 11t17 -7t13.5 -18.5t1 -22.5q-34 -96 -66 -180t-71.5 -157.5t-91 -138t-124.5 -122.5q-27 -22 -66 -38t-82 -19.5t-85.5 7.5t-76.5 43q-24 22 -48.5 45t-47.5 52t-43 67t-34 91q-21 74 -27.5 156.5t3 172t36 185.5t73.5 197q-63 29 -111 79t-65 122
q-12 52 1 97.5t47 79.5t87 54t121 21q57 2 110.5 -10t99.5 -36q65 58 132 96t127 43q47 4 82 -11t58.5 -41.5t36 -62.5t14.5 -74t-6.5 -75.5t-25.5 -67.5q-33 -58 -80 -104.5t-102.5 -80.5t-117 -54t-122.5 -24q-19 -2 -39 -2.5t-40 0.5q-42 -75 -75.5 -157.5t-52.5 -169
t-21 -175.5t18 -178q11 -50 34.5 -77t48 -39.5t45 -15t26.5 -2.5q66 0 133.5 41t130 113.5t117.5 171.5t96 215zM470 981q-31 -35 -61 -74.5t-59 -84.5q2 0 2.5 0.5t2.5 0.5q54 4 112.5 21.5t111.5 47t96.5 71t66.5 93.5q11 24 17.5 46.5t5.5 39t-10.5 26t-30.5 7.5
q-35 -4 -90 -42t-118 -103q7 -21 10 -43.5t4 -48.5q0 -17 -7.5 -23.5t-17.5 -4t-19 12.5t-12 26q0 8 -1 16.5t-3 15.5zM-1 981q8 -42 45 -70.5t85 -48.5q13 23 26.5 45.5t27.5 45.5q28 45 61.5 88.5t71.5 84.5q-31 8 -64 11.5t-66 2.5q-37 -1 -73 -16t-63 -38t-42 -51
t-9 -54z" />
    <glyph glyph-name="D" unicode="D" horiz-adv-x="1327" 
d="M420 272q-3 50 6 121q-85 -8 -144 -39.5t-94.5 -74t-47.5 -90t-3 -88.5q12 -52 40.5 -92t68 -66.5t88.5 -39t102 -9.5q104 5 199 59.5t175.5 141.5t143.5 197.5t102 227.5t51 232t-8 210q-15 72 -55 120t-92 76t-108.5 38.5t-104.5 8.5q-105 -4 -183 -37t-128.5 -79
t-72.5 -97.5t-15 -91.5q3 -19 7.5 -36.5t15.5 -34.5t32 -33t58 -32q15 -7 22 -19.5t6.5 -24.5t-8.5 -20.5t-23 -5.5q-36 7 -76 23.5t-76 45t-65 71.5t-43 104q-10 41 -5.5 91t26 101t62 99.5t102.5 86t148 59.5t198 21q88 -2 168 -31t145 -84t111.5 -135.5t67.5 -183.5
q31 -146 27.5 -294t-38 -286t-100 -258.5t-159 -212t-214.5 -146.5t-266 -62q-73 -3 -148.5 15.5t-141 63t-114 116t-66.5 175.5q-7 39 1 86.5t30.5 94.5t60.5 91t90.5 77t119.5 51t149 14q16 78 33 145t39 131t50.5 127.5t68.5 134.5q10 18 31 14t40.5 -19.5t31 -38
t3.5 -40.5q-29 -60 -50.5 -114.5t-39 -111t-31.5 -119.5t-29 -140q50 -20 90 -43.5t69 -45.5q17 -14 20.5 -30t-2.5 -27.5t-19 -15.5t-29 6q-39 24 -75 41t-68 29q-4 -37 -5.5 -70.5t2.5 -65.5q1 -18 5 -38.5t10 -40t13 -37.5t13 -31q10 -24 0 -33t-28.5 -8.5t-41.5 9.5
t-40 22q-39 31 -59.5 80.5t-25.5 114.5z" />
    <glyph glyph-name="E" unicode="E" horiz-adv-x="836" 
d="M780 1011q-21 -9 -35.5 -3t-21 19t-3.5 29t18 25q10 7 16.5 17t5 22t-13 26t-36.5 31q-24 16 -69.5 20t-99 -3t-108.5 -25t-97 -46.5t-64 -68t-11 -88.5q8 -34 33.5 -59t59.5 -44t73 -34.5t75 -30.5t63.5 -31.5t39.5 -38.5q16 -30 24 -49.5t11.5 -34t4.5 -26.5t4 -26
q-58 -3 -123 -22t-127.5 -52t-118.5 -79t-95 -104t-56.5 -126t-3.5 -145q8 -44 28.5 -79.5t47.5 -60.5t56 -38.5t53 -11.5q80 5 159.5 47.5t152 117.5t133.5 181t105 238q4 12 13 11.5t17 -7.5t13 -19t2 -24q-30 -101 -66.5 -193t-84.5 -174.5t-112 -153.5t-150 -129
q-37 -25 -84.5 -38.5t-99.5 -12t-104.5 21t-97.5 60.5t-79 106t-49 158q-21 122 -8.5 216t46 164t84 119.5t105.5 82.5t110 52.5t98 29.5q-49 1 -98 18t-90.5 47t-72 70.5t-42.5 89.5q-21 82 -5 155.5t65 130.5t128 93.5t184 45.5q28 2 61 3t67.5 -2.5t68 -15t62.5 -34
t51 -59t34 -90.5q6 -26 6.5 -52t-5 -49t-17 -41t-30.5 -27z" />
    <glyph glyph-name="G" unicode="G" horiz-adv-x="1111" 
d="M907 532q7 22 29 32t45.5 8.5t40.5 -14t14 -34.5q-8 -58 -17 -132t-20 -157.5t-24.5 -175t-31 -184.5t-39.5 -186t-50 -180q22 -20 42.5 -40t42.5 -43q9 -10 12.5 -21t1.5 -19t-9 -11t-18 2q-22 20 -45 37t-47 32q-35 -99 -79.5 -184.5t-99.5 -148t-122.5 -98
t-149.5 -34.5q-45 0 -84 22.5t-70 59t-52.5 84t-31.5 97.5q-16 84 -1.5 163t55.5 141t106 99t150 37q63 0 122.5 -15.5t118.5 -46.5q41 124 73 257.5t59 261.5q-22 -47 -36 -89.5t-30.5 -82t-41.5 -76.5t-68 -72q-27 -22 -66 -38t-82 -19.5t-85.5 7.5t-76.5 43
q-24 22 -48.5 45t-47.5 52t-43 67t-34 91q-42 149 -25.5 328.5t110.5 382.5q-63 29 -111.5 79t-65.5 122q-12 52 1 97.5t47 79.5t87 54t122 21q57 2 110.5 -10t99.5 -36q65 58 132 96t127 43q47 4 82 -11t58.5 -41.5t36 -62.5t14.5 -74t-6.5 -75.5t-25.5 -67.5
q-33 -58 -80 -104.5t-102.5 -80.5t-117 -54t-122.5 -24q-19 -2 -39 -2.5t-40 0.5q-42 -75 -75.5 -157.5t-52.5 -169t-21 -175.5t18 -178q11 -50 34.5 -77t48 -39.5t45 -15t26.5 -2.5q66 0 122.5 41t106 113.5t93.5 171.5t85 215q4 20 7.5 39t8.5 37zM335 -836q53 0 99 27
t86.5 75.5t76 114.5t65.5 144q-54 18 -99.5 26t-76.5 7q-38 -1 -77 -14t-74 -34.5t-64.5 -51t-48.5 -65t-26 -75t3 -80.5q6 -24 20 -39t32.5 -22.5t40 -10t43.5 -2.5zM636 981q-31 -35 -61 -74.5t-59 -84.5q2 0 2.5 0.5t2.5 0.5q54 4 112.5 21.5t111.5 47t96.5 71t66.5 93.5
q11 24 17.5 46.5t5.5 39t-10.5 26t-30.5 7.5q-35 -4 -90 -42t-118 -103q7 -21 10 -43.5t4 -48.5q0 -17 -7.5 -23.5t-17.5 -4t-19 12.5t-12 26q0 8 -1 16.5t-3 15.5zM164 981q9 -42 46 -70.5t85 -48.5q13 23 26.5 45.5t27.5 45.5q28 45 61.5 88.5t71.5 84.5q-31 8 -64 11.5
t-66 2.5q-37 -1 -73 -16t-63.5 -38t-42.5 -51t-9 -54z" />
    <glyph glyph-name="J" unicode="J" horiz-adv-x="1083" 
d="M532 239q-27 -41 -68.5 -50t-84.5 9.5t-82.5 61.5t-62.5 107q-40 108 -45 221t16 219t65 200t103.5 165t130.5 112.5t147 42.5q84 1 141 -26t95.5 -75.5t61.5 -113.5t40 -138q16 -68 18 -148t-6.5 -167t-26 -179t-41.5 -183.5t-53.5 -180.5t-61.5 -169q-12 -31 -24 -60.5
t-26 -58.5q34 -55 54 -125q5 -20 6.5 -45t-1 -50.5t-10.5 -49.5t-21 -42q-10 -14 -21.5 -12.5t-19.5 11t-9.5 25t9.5 29.5q10 14 13 31t1.5 34t-5 34t-7.5 31q-4 15 -9.5 28.5t-13.5 27.5q-36 -74 -78.5 -137.5t-93 -110t-109.5 -73t-129 -26.5q-51 0 -90.5 22t-69.5 58
t-50.5 82t-32.5 93q-20 81 -5.5 146t54 111.5t98 74.5t125.5 35t137.5 -7.5t134.5 -51.5q54 117 97 252.5t74 272t48.5 267.5t19.5 239q1 88 -21 126.5t-80 41.5q-67 2 -122 -22.5t-99 -67t-76.5 -100t-56 -121t-37.5 -129.5t-20 -126t-4 -110t10 -82q9 -33 24.5 -59.5
t33.5 -41.5t36.5 -17.5t33.5 11.5q12 11 24 7t19.5 -16t9.5 -28t-7 -29zM273 -417q39 0 79.5 21.5t79.5 60t76.5 92t70.5 118.5q-51 18 -106.5 23t-108.5 -3t-99.5 -27t-78 -49t-45 -69t0.5 -87q6 -23 20 -38.5t32 -24.5t38.5 -13t40.5 -4z" />
    <glyph glyph-name="F" unicode="F" horiz-adv-x="715" 
d="M196 690q61 37 127 49.5t124 10.5q58 102 106 211.5t74 235.5q-44 5 -113.5 -13.5t-147 -54t-154 -84t-133.5 -104.5t-86 -115t-12 -115q10 -32 28 -59t54 -47q15 -9 22 -22t7 -24.5t-7 -19t-21 -4.5q-25 4 -57.5 15.5t-65.5 37t-63 68.5t-49 111q-23 80 -10.5 148
t51 124t97.5 100.5t130.5 78.5t150 57.5t155.5 37.5t147.5 18t125.5 0q31 -3 47.5 -20.5t24 -43t7.5 -54t-2 -52.5q-6 -47 -19 -99t-31.5 -108t-41.5 -115.5t-47 -121.5q46 -20 78 -44q11 -8 16 -20t4.5 -22.5t-6 -16.5t-14.5 -2q-28 11 -54 20t-52 13q-45 -63 -80.5 -135.5
t-61 -149.5t-41.5 -157t-21 -157t0 -149.5t22 -135.5q5 -20 3.5 -29.5t-6.5 -11.5t-13.5 2t-17.5 12q-22 18 -47 46.5t-47 60.5t-38.5 64.5t-20.5 58.5q-15 90 -9 181t28 177.5t58.5 164t83.5 140.5q-26 -9 -60.5 -23.5t-62.5 -30.5q-19 -11 -38 1.5t-30 34.5t-11 45.5
t20 35.5z" />
    <glyph glyph-name="I" unicode="I" 
d="M139 564q-28 100 -30.5 192t16 173.5t54.5 149t85 118t108.5 82t124.5 40.5q120 16 202.5 -32.5t113.5 -158.5q34 -122 42.5 -229t0 -204.5t-29.5 -187t-46 -174.5q-31 -109 -78 -213t-110.5 -184t-145.5 -127.5t-182 -43.5q-44 1 -83 20.5t-69.5 51t-51.5 72.5t-30 87
q-10 50 -4 100.5t28.5 91.5t63 67t99.5 26q25 0 54.5 -10t59 -27t54.5 -39.5t41 -46.5q7 -11 7 -21.5t-4.5 -17.5t-13 -8.5t-17.5 7.5q-42 37 -80 54t-79 16q-26 0 -53 -16.5t-47 -44t-28.5 -63t2.5 -72.5q10 -37 37.5 -55t62.5 -18q69 0 134 46t122 126t104 186.5t81 227.5
t53.5 249.5t21.5 252.5q1 87 -28 127t-80 39q-79 1 -138.5 -31.5t-103 -85t-71.5 -118t-42.5 -130.5t-18 -124t3.5 -97q6 -35 18.5 -62t28 -42.5t32.5 -19.5t32 7q12 9 22.5 5.5t15.5 -14t5 -24t-9 -23.5q-29 -33 -66 -37t-74 17t-68.5 64.5t-48.5 105.5z" />
    <glyph glyph-name="H" unicode="H" 
d="M455 1201q-44 5 -99 -13.5t-110.5 -53t-107 -82.5t-88 -101.5t-53.5 -109t-4 -105.5q4 -15 9 -30.5t12 -29t16.5 -24t22.5 -16.5q13 -5 20.5 -17.5t8 -25t-5.5 -21.5t-20 -6q-19 2 -50 9.5t-64.5 29.5t-64.5 62.5t-50 108.5q-28 99 -7.5 180.5t74.5 145.5t132.5 110
t166.5 74.5t177 39.5t164 5q31 -3 46.5 -12.5t20.5 -23.5t1 -32t-11 -38q-54 -147 -116 -311t-113 -334q63 6 122 6t116 -5q24 103 53.5 204t58.5 188.5t57 156.5t49 108q12 22 32.5 32.5t41 7.5t35 -19.5t14.5 -48.5q-13 -32 -32.5 -97t-41.5 -152t-45 -191.5t-43 -215.5
q17 -3 33.5 -6.5t31.5 -7.5q16 -4 24.5 -15t8.5 -22t-7 -19t-21 -5q-17 3 -37 5.5t-44 4.5q-16 -97 -27 -193.5t-15.5 -186t0 -167t19.5 -137.5q3 -11 3.5 -21t-2.5 -15.5t-11 -4.5t-21 12q-33 26 -62.5 59.5t-52.5 67t-38 62.5t-18 46q-8 43 -8.5 97.5t5 116t16.5 129
t25 137.5q-61 -3 -125.5 -10.5t-127.5 -21.5q-20 -57 -34 -125.5t-22.5 -142t-12 -148.5t-2 -145t6.5 -132t14 -109q5 -26 -2 -36.5t-32 9.5q-21 17 -48.5 46.5t-53 63.5t-45 68.5t-23.5 61.5q-4 30 -6.5 71.5t-3 88t1 96t5.5 96t10.5 87t15.5 70.5q-23 -11 -43.5 -24.5
t-39.5 -29.5q-11 -13 -24.5 -11.5t-26.5 11.5t-23.5 27t-14.5 35t0 34t20 26q46 27 93.5 48t95.5 37q29 97 67.5 187t81.5 173.5t87 160.5t85 148z" />
    <glyph glyph-name="K" unicode="K" horiz-adv-x="1073" 
d="M548 1201q-44 6 -95 -4t-100 -33t-92 -56.5t-72.5 -74.5t-42 -88t0.5 -97q8 -30 21.5 -59.5t39.5 -40.5q12 -6 19.5 -19t9 -25.5t-4.5 -20.5t-21 -5q-13 1 -31 4.5t-39.5 12t-44.5 23t-44.5 37.5t-39.5 55.5t-30 77.5q-28 100 -12 173t63 124t117.5 82.5t151.5 47.5
t165.5 19t159.5 -3q30 -3 46 -12.5t21 -23.5t1.5 -32t-11.5 -38q-33 -87 -69 -181t-71 -193t-67.5 -200.5t-58.5 -202.5q76 23 146 70t129.5 111t107.5 140.5t80 158.5t46.5 165.5t8 161t-36 145.5t-85.5 119q-21 19 -16 31t25 14q25 1 61 -16.5t72.5 -52.5t68.5 -85.5
t50 -114.5q30 -106 28.5 -203t-25 -183.5t-66.5 -161.5t-96.5 -137.5t-114.5 -111t-120.5 -82.5t-114.5 -52.5t-97 -19.5q22 -48 55 -111.5t73 -135.5t85 -148t91.5 -148t92.5 -136t87 -112.5t75 -77t58 -29.5q16 -1 28.5 0t21.5 4.5t16 12t13 22.5q7 16 16.5 20.5t18 -0.5
t15 -19t7.5 -35q1 -29 -4 -63t-20 -63t-40.5 -49.5t-65.5 -21.5q-52 -2 -104.5 30t-104 88.5t-101 132.5t-96.5 161.5t-89.5 176t-80 176.5t-69 161.5t-54.5 131.5q-11 -62 -21.5 -139t-16.5 -155t-5.5 -150t9.5 -124q4 -26 -2.5 -36.5t-31.5 9.5q-21 17 -48 45.5t-51 61.5
t-41.5 66.5t-18.5 59.5q-6 82 -7.5 149.5t4 133t20 133t40.5 149.5q32 103 73 199.5t85 183.5t87.5 163.5t79.5 139.5z" />
    <glyph glyph-name="P" unicode="P" horiz-adv-x="937" 
d="M359 1021q10 18 30.5 13t39.5 -23t31.5 -42.5t5.5 -44.5q-10 -29 -18 -54.5t-16.5 -56.5t-18.5 -72.5t-23 -102.5q56 0 117.5 12.5t120 35.5t109 56t85 74t49 89t-0.5 102q-11 38 -41.5 65t-72 45t-89.5 28t-93.5 15t-83.5 6t-59 0q-76 -2 -143.5 -22.5t-119 -53.5
t-82.5 -75.5t-34 -88.5t26 -92.5t97 -87.5q14 -8 21.5 -21t8 -24.5t-7 -18.5t-22.5 -4q-36 7 -75 20.5t-75.5 40.5t-66.5 69.5t-47 108.5q-22 84 -7.5 159t68.5 134.5t149 99t235 52.5q46 3 102 -0.5t114.5 -17t117 -38t108.5 -64t88.5 -94.5t58.5 -129q23 -88 15 -160.5
t-38 -132t-77.5 -105.5t-103 -80t-115 -57t-112.5 -36t-96 -16t-66 2h-1q-14 -82 -28.5 -175t-23.5 -184.5t-9 -175.5t17 -147q3 -12 3.5 -22t-2.5 -16t-11 -5t-22 12q-33 26 -60.5 58t-48 63t-33.5 58.5t-16 44.5q-14 78 -8 174.5t24.5 200.5t46.5 209t59.5 199t63 170
t56.5 123z" />
    <glyph glyph-name="R" unicode="R" horiz-adv-x="1000" 
d="M961 -483q22 -30 47 -53t48.5 -33t43 -5t31.5 31q7 16 16.5 21.5t18.5 1t15.5 -18t7.5 -34.5q1 -29 -2.5 -61t-16.5 -59.5t-37 -46t-64 -19.5q-49 -2 -97.5 33.5t-97 97.5t-95 145.5t-90.5 178t-85 194t-77.5 193.5t-68.5 177.5t-57 145.5h1l-3 7q-12 -80 -26 -170.5
t-23 -179t-9 -169.5t16 -142q3 -11 3.5 -21t-2.5 -16t-11 -5.5t-22 11.5q-33 26 -60.5 58t-48.5 63t-33.5 58.5t-15.5 44.5q-15 77 -11.5 174t20.5 201t43.5 209t57 199t61 170.5t56.5 123.5q7 12 18.5 13.5t25 -5t27 -19t23 -27.5t13.5 -30.5t0 -28.5q-11 -29 -20 -54.5
t-19 -56.5t-21 -72t-25 -101q56 0 119.5 12t125 35t115.5 55t91.5 73t53.5 89t1 102q-11 38 -42 65t-72.5 44.5t-89 27.5t-92.5 15t-83 6t-60 1q-67 0 -133 -18.5t-120 -49.5t-89.5 -72.5t-41.5 -88.5t23 -96t105 -95q14 -8 21 -21t7.5 -24t-6.5 -18.5t-22 -4.5
q-36 7 -75.5 20.5t-76 40.5t-66.5 70t-46 108q-22 84 -8 160t68 136t149 99t236 50q46 3 102 0t114.5 -16.5t116.5 -38.5t108 -64.5t89 -94.5t59 -129q27 -100 13.5 -181t-54 -144t-100.5 -109.5t-126 -78.5t-131 -50t-115 -23q33 -70 72 -152t81 -168t85.5 -172
t85.5 -164.5t81 -145.5t72 -114z" />
    <glyph glyph-name="T" unicode="T" horiz-adv-x="489" 
d="M393 1333q90 2 164.5 -11t137.5 -36t115 -55t97 -68q15 -12 21.5 -29t5 -31t-12 -20.5t-28.5 3.5q-83 46 -160.5 65.5t-168.5 21.5q-32 -36 -65.5 -101t-65.5 -149.5t-62 -184t-54.5 -205.5t-42 -213.5t-25 -208t-4 -189.5t21.5 -157q3 -12 3.5 -22t-3 -16t-11.5 -5
t-21 12q-33 26 -60.5 58t-48 63t-33.5 58.5t-17 44.5q-11 50 -9.5 117t12.5 145.5t30.5 164.5t44.5 174t55 175t61.5 166t64 147.5t62.5 120.5q-48 -7 -100.5 -26.5t-102 -49.5t-92.5 -69.5t-72 -85t-40 -96.5t3 -105q4 -15 9 -30.5t12 -29t16.5 -24t22.5 -16.5
q13 -5 20.5 -17.5t8 -25t-5.5 -21.5t-20 -6q-19 2 -50 9.5t-64.5 29.5t-64.5 62.5t-50 108.5q-38 136 -8.5 238.5t109 172.5t200 106.5t265.5 39.5z" />
    <glyph glyph-name="Y" unicode="Y" horiz-adv-x="1098" 
d="M330 -449q48 0 92 28t83.5 77.5t75.5 118.5t68 151q-40 11 -75 16t-62 3q-65 -2 -130 -28.5t-114.5 -70.5t-75.5 -101.5t-11 -119.5q6 -25 21 -39.5t35 -22t44.5 -10t48.5 -2.5zM1017 1267q7 22 29.5 31.5t46 8t40.5 -14t13 -33.5q-13 -65 -27.5 -158t-32 -204.5
t-38.5 -236.5t-47.5 -253.5t-59 -255.5t-73.5 -243q24 -21 48 -45.5t50 -51.5q9 -10 12.5 -21t1.5 -19t-9 -11t-18 2q-26 23 -53.5 43.5t-56.5 37.5q-40 -104 -87.5 -193t-104.5 -154t-124.5 -100t-147.5 -30q-64 4 -112 25.5t-82 56t-54.5 79.5t-29.5 95q-15 84 -1.5 162.5
t59.5 141t126 102t196 45.5q115 -3 206 -44q25 73 48 150.5t44 157.5t40.5 161t37.5 159q-42 -98 -87 -189.5t-91.5 -162t-94.5 -112.5t-95 -42q-50 0 -86.5 26.5t-61.5 63.5t-39.5 76t-19.5 64q-14 68 -2.5 142t38 150.5t64 152.5t76 147.5t73 135.5t55.5 117
q-44 5 -106 -22.5t-128.5 -76.5t-130 -113t-111 -131t-71.5 -131.5t-11 -114.5q8 -31 21.5 -60t39.5 -41q13 -5 20.5 -17.5t8 -25t-5.5 -21.5t-20 -6q-19 2 -50 10t-64.5 30t-64.5 62.5t-50 107.5q-21 75 -11.5 143.5t42 130t84.5 115.5t115.5 97.5t134.5 77.5t142 55.5
t138.5 31t123.5 4.5q31 -3 49.5 -12t27.5 -23t9 -32t-7 -39q-5 -14 -23 -61t-43 -114.5t-53.5 -148.5t-55 -164t-47.5 -161.5t-30.5 -139.5t-3.5 -99t33 -40q22 -2 58 34t79 95.5t89 135.5t88 155t77.5 153.5t57.5 131.5q21 89 41 157t39 108z" />
    <glyph glyph-name="Z" unicode="Z" horiz-adv-x="1372" 
d="M493 -398q87 -1 161.5 27.5t137 77.5t112.5 113.5t88 136.5q-48 68 -110 116t-130.5 76.5t-139 38t-135.5 0.5t-120.5 -36t-93.5 -71t-55 -105t-4 -138q8 -47 31 -89.5t59.5 -74.5t86.5 -51.5t112 -20.5zM556 1098q8 -36 26 -53.5t40 -19.5q32 -4 67 12.5t72 42.5
t75 57.5t77.5 59.5t79.5 47.5t81 21.5q40 2 74 -30.5t55 -98.5q20 -70 8 -133t-40.5 -123.5t-66.5 -120t-71 -120.5q11 1 22.5 1h22.5q24 0 49.5 -14t49 -37.5t43.5 -55.5t33 -69q18 -62 20 -134t-10.5 -148t-39 -153t-65.5 -150q27 -49 38 -104.5t9 -109.5t-15.5 -102.5
t-36 -85t-51.5 -56.5t-63 -16q-15 2 -25 11t-13 19.5t1.5 20.5t16.5 14q23 8 39.5 36t24.5 68t8 87t-10 94q-49 -66 -108 -122t-126.5 -97.5t-143.5 -65.5t-160 -25q-92 -2 -171 32.5t-138.5 91t-98 127t-49.5 141.5q-15 99 4.5 176.5t63.5 134.5t109.5 92.5t142.5 50
t162 7.5t168.5 -35.5t161.5 -78.5t142 -121q22 56 35.5 115t18.5 113.5t2.5 101t-11.5 76.5q-10 29 -26.5 42t-31.5 13t-29 -7t-25.5 -17t-21 -21.5t-16.5 -20.5q-8 -8 -24.5 -2t-33 19t-28 29.5t-9.5 30.5q3 29 20 69t41.5 85.5t53.5 94t57.5 95t52.5 87.5t38.5 71.5t16 48
t-15.5 16.5q-22 -1 -52.5 -23t-68.5 -54t-82.5 -68.5t-95 -66.5t-106 -49t-115.5 -15q-22 2 -47.5 13.5t-50 34t-45.5 57t-34 82.5q-12 45 -10 84.5t15.5 69t37.5 46.5t56 17q15 0 31.5 -4t33.5 -15q20 -12 20 -28t-13 -19q-2 -1 -6.5 -5.5t-9 -13t-7 -20.5t0.5 -28z" />
    <glyph glyph-name="U" unicode="U" horiz-adv-x="1167" 
d="M1038 1254q12 23 35 32t46 4t40 -24t17 -51q-12 -31 -28 -94t-33 -147.5t-33.5 -186t-30 -210.5t-23 -219.5t-11.5 -212.5t4.5 -191.5t23.5 -155.5q3 -11 3.5 -21t-2.5 -15.5t-11 -4.5t-21 12q-33 26 -63 59.5t-53 67t-38 62.5t-18 46q-9 51 -10.5 116.5t2.5 140.5
t13 156.5t21 164.5q-30 -89 -64 -181t-72.5 -177.5t-82.5 -160.5t-95 -130.5t-109 -87t-124 -30.5q-50 1 -87 27.5t-62 63t-39.5 75.5t-19.5 64q-10 51 -1.5 120t30 149t53.5 168t68.5 176t75 173t73.5 159.5t63 135t44 100.5q-44 5 -101.5 -15t-117 -58t-115 -89t-96 -107
t-60 -113.5t-6.5 -107.5q4 -15 9.5 -30.5t12.5 -29t16.5 -24t22.5 -16.5q13 -5 20.5 -17.5t8 -25t-5.5 -21.5t-20 -6q-19 2 -50 9.5t-64.5 29.5t-64.5 62.5t-50 108.5q-28 99 -7.5 180.5t74.5 145.5t132.5 110t166.5 74.5t177 39.5t164 5q31 -3 49.5 -12t27.5 -23t9 -32
t-7 -39q-4 -11 -19 -53.5t-38 -107t-51 -145.5t-57.5 -170.5t-59 -182.5t-54 -180.5t-43 -164.5t-26 -134.5t-2.5 -91.5t26 -34q47 -1 96 34t98 94.5t96 138.5t90.5 166t82.5 176.5t71.5 170t57 146.5t38.5 107q23 87 45.5 154.5t42.5 105.5z" />
    <glyph glyph-name="M" unicode="M" horiz-adv-x="1417" 
d="M347 -20q-1 -32 -3 -52t-9 -25.5t-21.5 5.5t-39.5 40q-17 20 -38.5 47t-40 56t-31 57t-12.5 50q1 67 11 146.5t28 165.5t44 176t59.5 178t74.5 171.5t90 156.5q-44 6 -100.5 -19t-114 -70t-111 -104.5t-92 -122.5t-56.5 -125t-5 -112q4 -15 9.5 -31.5t13.5 -31.5
t18 -25.5t24 -13.5q13 -3 20.5 -13.5t9 -22t-4 -19t-19.5 -4.5q-19 1 -48 8t-59.5 28t-59 60t-46.5 106q-21 75 -9 144.5t47 131.5t88 115t114 96t124.5 75t119.5 50t100 22t65 -8q27 -15 43 -36t23.5 -43.5t7 -46t-7.5 -44.5q-18 -55 -39 -119.5t-42.5 -132t-41.5 -135
t-36 -129.5h3q29 76 67 153t81 149.5t89 137.5t91 117t88 88.5t80 52.5q43 18 74 7t51 -36.5t29 -57t8 -54.5q-1 -18 -15 -48t-35 -71t-47.5 -92.5t-52 -113t-48.5 -132t-38 -149.5q30 91 71 178.5t88.5 166.5t97.5 146.5t97 120t88 86.5t71 45q44 17 76.5 5.5t53.5 -36
t29 -55t4 -51.5q-4 -19 -21 -63t-40.5 -108t-50.5 -145t-51 -174.5t-42.5 -196.5t-25 -211t2 -217.5t38.5 -216.5q4 -14 8 -27t3 -21t-8.5 -9.5t-26.5 8.5q-34 18 -80.5 49t-85.5 82q-18 23 -25 51t-12 63q-15 104 -10.5 206.5t20.5 199.5t41.5 186.5t53.5 167t55 141
t47.5 109t30 70.5t2.5 26q-14 2 -47 -26t-76 -78t-92 -118.5t-96 -148t-88 -166.5t-67 -174t-34 -170.5t11 -156.5q3 -14 6.5 -27.5t2.5 -22t-8 -9.5t-26 10q-14 8 -31.5 21.5t-35 30t-34.5 36t-30 40.5q-17 26 -25 48t-9 57q-2 123 22 235t60.5 209t78 177t73 138.5
t46.5 93.5t-2 43q-24 11 -64 -18.5t-89 -88.5t-102.5 -141.5t-104 -178t-95 -197.5t-74.5 -200.5t-42.5 -187.5t1.5 -157z" />
    <glyph glyph-name="N" unicode="N" horiz-adv-x="972" 
d="M347 -20q-1 -32 -3 -52t-9 -25.5t-21.5 5.5t-39.5 40q-17 20 -38.5 47t-40 56t-31 57t-12.5 50q1 67 11 146.5t28 165.5t44 176t59.5 178t74.5 171.5t90 156.5q-44 6 -100.5 -19t-114 -70t-111 -104.5t-92 -122.5t-56.5 -125t-5 -112q4 -15 9.5 -31.5t13.5 -31.5
t18 -25.5t24 -13.5q13 -3 20.5 -13.5t9 -22t-4 -19t-19.5 -4.5q-19 1 -48 8t-59.5 28t-59 60t-46.5 106q-21 75 -9 144.5t47 131.5t88 115t114 96t124.5 75t119.5 50t100 22t65 -8q27 -15 43 -36t23.5 -43.5t7 -46t-7.5 -44.5q-17 -53 -37 -113t-40.5 -124t-39.5 -128.5
t-35 -124.5q41 83 85.5 162.5t90 151.5t91 134.5t88 111t81 81t70.5 44.5q43 17 73.5 3t48.5 -42t24 -61t2 -54q-4 -19 -21 -63t-40.5 -108t-50.5 -145.5t-51 -175t-42.5 -197t-25 -211t1.5 -217.5t38 -216q4 -14 8 -27t3 -21t-8.5 -9.5t-26.5 8.5q-34 18 -80 49.5t-85 82.5
q-18 22 -26 42t-12 56q-18 140 -4.5 276t42.5 259t67.5 228t71 183t51.5 124.5t11 51.5q-16 10 -45 -15t-66.5 -74t-80.5 -118t-86 -147.5t-83.5 -161.5t-74 -161t-56.5 -145.5t-31 -115.5q-8 -70 -6.5 -117t0.5 -72z" />
    <glyph glyph-name="V" unicode="V" horiz-adv-x="961" 
d="M281 -202q-56 0 -92 24t-58.5 55.5t-33 62t-13.5 43.5q-14 55 -9 128.5t24.5 159t49.5 178t65.5 185.5t73 182.5t72 167t62.5 140t44 102.5q-44 5 -101.5 -15t-117 -58t-115 -89t-95.5 -107t-59.5 -113.5t-6.5 -107.5q4 -15 9.5 -30.5t12.5 -29t16.5 -24t21.5 -16.5
q13 -5 20.5 -17.5t8 -25t-5.5 -21.5t-20 -6q-19 2 -50 9.5t-64.5 29.5t-64.5 62.5t-50 108.5q-28 99 -7.5 180.5t74.5 145.5t132.5 110t166.5 74.5t177 39.5t164 5q31 -3 49.5 -12t27.5 -23t9 -32t-7 -39q-4 -11 -18.5 -54.5t-35.5 -108.5t-47.5 -148t-54.5 -174.5t-55 -186
t-49.5 -183.5t-39 -167.5t-22.5 -137.5t-0.5 -93.5t26.5 -34.5q42 -1 84.5 32t84 92t81 138.5t75 171t67 190.5t57 197t44.5 190.5t29.5 170t11.5 136t-8 88.5q-8 27 2.5 38.5t28.5 -9.5q28 -33 54 -73.5t45.5 -82.5t29.5 -82t6 -71q-10 -79 -31.5 -175.5t-52 -200t-70 -210
t-86.5 -205.5t-100.5 -185t-112.5 -150.5t-122.5 -101.5t-130.5 -37z" />
    <glyph glyph-name="W" unicode="W" horiz-adv-x="1508" 
d="M1541 1071q-11 -64 -31 -153t-49 -190.5t-65.5 -209.5t-81 -211.5t-96.5 -196t-110.5 -162t-123 -110t-135.5 -40.5q-59 0 -94 37t-56 116q-13 50 -14 101q-38 -54 -75.5 -98.5t-75 -76.5t-74 -49.5t-70.5 -17.5q-56 0 -93 22t-60 51.5t-34 58t-14 41.5q-14 55 -9 128.5
t24.5 159t49.5 178t65.5 185.5t73 182.5t72 167t62.5 140t44 102.5q-44 5 -101.5 -15t-117 -58t-115 -89t-96 -107t-60 -113.5t-6.5 -107.5q4 -15 9.5 -30.5t12.5 -29t16.5 -24t22.5 -16.5q13 -5 20.5 -17.5t8 -25t-5.5 -21.5t-20 -6q-19 2 -50 9.5t-64.5 29.5t-64.5 62.5
t-50 108.5q-28 99 -7.5 180.5t74.5 145.5t132.5 110t166.5 74.5t177 39.5t164 5q31 -3 49.5 -12t27.5 -23t9 -32t-7 -39q-4 -11 -18 -54t-35 -108t-47 -147t-53.5 -173t-54 -185t-48.5 -182.5t-38 -167t-22 -137.5t0 -94t28 -36q30 -2 63.5 28t68 84.5t70 129.5t70 163
t66.5 184.5t60 193.5t50.5 191.5t38.5 178t24 152.5t6 115q-2 27 12 26.5t32 -21.5q28 -32 52.5 -69t41.5 -75t25 -75t4 -68q-14 -99 -48 -221.5t-83 -252.5q-23 -83 -44.5 -165t-38 -156.5t-27.5 -138.5t-14.5 -111t2.5 -73t24 -24q48 4 92.5 43t86 103.5t78.5 149.5
t69.5 181.5t60.5 198.5t50.5 200.5t39.5 188t27.5 160.5t15 119t1.5 62q-5 27 4 38.5t27 -9.5q28 -33 52.5 -72t42.5 -79.5t26.5 -79.5t4.5 -70z" />
    <glyph glyph-name="X" unicode="X" horiz-adv-x="991" 
d="M988 1593q17 16 30.5 18t30.5 2q22 0 46 -11t46 -33t41 -55t32 -78q19 -71 0 -153t-65 -169.5t-112.5 -177t-141 -175t-150.5 -163.5t-142 -143q-8 -100 -14.5 -194.5t-5.5 -169.5t11.5 -123.5t36.5 -57.5q11 -4 35.5 9t56.5 41.5t70 72.5t76 103.5t74 134t65 163.5
q3 12 12 11t17 -9t12.5 -19.5t0.5 -21.5q-42 -162 -99 -283t-119.5 -201t-125.5 -119t-116 -36q-35 1 -59 22.5t-39.5 57.5t-25 85t-14.5 105.5t-7.5 118.5t-5.5 125q-46 -57 -82 -121t-60 -131.5t-36 -135.5t-10 -134q0 -20 -4.5 -29t-25.5 4q-21 12 -41.5 30t-37.5 40.5
t-29 48.5t-16 53q-12 61 7 127t64.5 136t114 145t154.5 155q2 78 7 157.5t12 153.5t16 140.5t18.5 118t19 86t17.5 45.5q-62 -10 -124.5 -54t-119 -108t-104 -140t-80 -149t-47 -136.5t-4.5 -101.5q7 -24 18.5 -46t36.5 -31q13 -3 19.5 -10.5t7 -15.5t-5 -15.5t-17.5 -11.5
q-21 -7 -52.5 -2t-64.5 24t-61.5 53t-42.5 85q-22 75 -4.5 161t64.5 171t119.5 163.5t160 140t186.5 99.5t199 42q29 1 46 -6.5t25 -21.5t8.5 -34t-3.5 -43q-6 -34 -13.5 -90t-15.5 -125.5t-16.5 -147.5t-17.5 -155q38 47 85.5 120t97 157.5t95.5 173.5t79 169t49.5 144
t6.5 98q-4 16 -13 21t-18 9q-19 5 -23 22t5 25z" />
    <glyph glyph-name="S" unicode="S" horiz-adv-x="1084" 
d="M958 960q-6 -13 -11.5 -17t-10.5 -1t-10 11t-10 20q-13 30 -43.5 54.5t-75.5 41.5t-103.5 26.5t-127.5 9.5q-60 0 -114 -8.5t-93.5 -23.5t-61.5 -35t-17 -43q4 -22 30.5 -37t67 -29t92.5 -30t108.5 -40.5t113.5 -60.5t108.5 -89t93.5 -126t68 -173q28 -107 27.5 -208
t-26 -189t-75 -161t-120 -125t-160 -80.5t-194.5 -27.5q-98 1 -184.5 28t-156 81t-120 136.5t-77.5 195.5q-21 87 -12.5 171t49 151.5t112.5 113t179 56.5q33 4 73 5t82 -6.5t84 -25t81.5 -50t73.5 -82t60 -119.5q5 -13 2.5 -21t-9.5 -8.5t-16.5 6t-18.5 23.5
q-21 40 -50.5 66.5t-64 42.5t-71.5 23.5t-71.5 9t-65 -2t-51.5 -7.5q-62 -13 -111 -45.5t-82.5 -76t-49.5 -92.5t-10 -94q8 -61 33 -106t59.5 -76t75 -50t79 -30t72.5 -14.5t55 -3.5q68 0 139 19.5t136 56t120 89t90.5 119t48 145t-7.5 167.5q-14 62 -51 104.5t-89 73
t-114.5 52.5t-127 42.5t-127.5 44t-115.5 56t-90.5 78.5t-53 112q-13 59 3.5 116.5t65 104t130 76t198.5 31.5q45 1 94.5 -4.5t97 -15t91 -23t77.5 -29t56 -33t27 -35.5q17 -63 15.5 -113.5t-18.5 -91.5z" />
    <glyph glyph-name="L" unicode="L" horiz-adv-x="1047" 
d="M540 1126q14 -9 20.5 -21.5t5.5 -23t-9 -16t-23 1.5q-25 12 -66.5 24t-89 19t-94 7t-81.5 -11t-53 -37t-6 -71q8 -32 32 -57t58.5 -44t77.5 -31.5t88 -20.5t90 -11.5t84 -1.5h16q9 0 17 1q34 104 70 197.5t75.5 166.5t83.5 117.5t94 50.5q32 4 63 -3t58 -24.5t47.5 -47.5
t31.5 -72q27 -109 8.5 -201t-72 -162t-136 -115.5t-182.5 -61.5q-24 -89 -46.5 -180t-49 -177.5t-56.5 -168t-68 -148.5q23 -15 43 -26.5t41 -19.5t44.5 -12.5t53.5 -2.5q37 1 67 8.5t55.5 25t48.5 47t46 74.5q6 11 13.5 9t15 -12.5t12.5 -26t5 -29.5q2 -53 -16 -105
t-49 -93t-72 -67t-84 -26q-49 0 -90.5 12t-78.5 31.5t-72.5 45.5t-70.5 54q-48 -59 -105.5 -90t-125.5 -28q-75 3 -130 35t-87.5 79t-43.5 101.5t2 101t50.5 77t101.5 30.5q80 0 143 -27t118 -65q25 53 49.5 119t48.5 139.5t48 152t48 157.5q-95 5 -176.5 26t-144.5 59.5
t-105.5 95t-59.5 132.5q-15 71 -1.5 118t47 72t83 32t106.5 -1.5t117.5 -30t116.5 -50.5zM980 1232q-29 -7 -55 -36.5t-49 -76.5t-45 -108.5t-43 -132.5q69 32 117.5 78t93.5 93q8 9 17.5 29t17 42t9.5 45.5t-2.5 40t-19 25t-41.5 1.5zM192 -67q29 -4 55.5 12.5t53.5 50.5
q-31 17 -64 28t-68 14q-40 3 -65 -9t-26 -30.5t25 -37t89 -28.5z" />
    <glyph glyph-name="O" unicode="O" horiz-adv-x="1004" 
d="M403 1362q11 7 27.5 -17.5t30.5 -63.5q49 36 97 45q53 10 104 -2t95 -45t80 -87t59 -127q39 -126 48.5 -242t-1.5 -224t-37.5 -208.5t-59.5 -194.5q-37 -100 -91.5 -184t-116.5 -146t-127 -99t-123 -43q-66 -7 -127 7.5t-113.5 53.5t-94.5 105t-70 163q-37 127 -37 261.5
t27 266t75.5 254.5t107.5 226t123.5 181t123.5 120zM543 483q-13 -53 -40 -84.5t-61.5 -44t-72.5 -5t-72.5 33.5t-62 70.5t-41.5 106.5l-2 7q-29 -75 -52 -156t-35 -161.5t-9.5 -156t23.5 -138.5q14 -41 34 -63.5t41.5 -33t42.5 -12.5t36 0q58 5 116.5 45t113.5 105.5
t105 151.5t91 182.5t71 199.5t45.5 202t14 190t-23.5 164q-22 74 -57.5 101t-77.5 19.5t-87.5 -44t-88 -90.5t-79.5 -120t-61.5 -131.5t-33 -125t4.5 -101.5q13 -43 36.5 -61.5t49 -21.5t48.5 6t34 22q9 10 19.5 9t19 -10t12 -23.5t-0.5 -31.5z" />
    <glyph glyph-name="Q" unicode="Q" horiz-adv-x="1004" 
d="M403 1362q11 7 27.5 -17.5t30.5 -63.5q49 36 97 45q53 10 104 -2t95 -45t80 -87t59 -127q39 -126 48.5 -242t-1.5 -224t-37.5 -208.5t-59.5 -194.5q-37 -100 -91.5 -184t-117 -145.5t-128 -97.5t-123.5 -42q-49 -5 -92 1q42 -32 83.5 -69.5t82 -70t79.5 -55t75 -24.5
q12 -1 30 1t37.5 8t38 16t31.5 26q6 8 13 7.5t13.5 -6.5t10.5 -16.5t4 -23.5q0 -15 -2 -37.5t-8 -48t-17 -51t-28.5 -45.5t-42.5 -32.5t-59 -12.5q-54 1 -103 24t-94.5 58.5t-87 79.5t-79.5 86.5t-73 78.5t-67.5 56t-62.5 19t-58 -32q-6 -8 -15 -5t-15.5 11.5t-10 20
t1.5 21.5q23 51 60.5 71.5t93.5 20.5q-45 40 -82 102t-62 150q-37 127 -37 261.5t27.5 265.5t76 253.5t107.5 225t124 180.5t124 120zM543 483q-13 -53 -40 -84.5t-61.5 -44t-72.5 -5t-72.5 33.5t-62 70.5t-41.5 106.5l-2 7q-29 -75 -52 -155.5t-35 -160.5t-10.5 -155
t22.5 -138q14 -41 34 -63.5t41.5 -33t42.5 -12.5t36 0q58 5 116.5 45t114 105.5t106 151t91.5 182t71 199t45.5 201.5t14 189.5t-23.5 163.5q-22 74 -57.5 101t-77.5 19.5t-87.5 -44t-88 -90.5t-79.5 -120t-61.5 -131.5t-33 -125t4.5 -101.5q13 -43 36.5 -61.5t49 -21.5
t48.5 6t34 22q9 10 19.5 9t19 -10t12 -23.5t-0.5 -31.5z" />
    <glyph glyph-name="a.fina" horiz-adv-x="849" 
d="M219 178q-17 -37 -35.5 -71t-39 -59.5t-41.5 -40.5t-43 -13q-32 2 -52 33.5t-30 80.5t-9.5 110.5t10.5 125t29.5 123t47.5 104t64.5 69t80.5 18.5q33 -5 57 -17t40.5 -28t26 -35t14.5 -38q4 -15 -0.5 -37.5t-12.5 -37.5t-16 -15t-11 30q-4 38 -33 39q-24 2 -51 -20
t-58 -86q-9 -17 -17 -45t-15 -59.5t-12.5 -63.5t-7.5 -57.5t-0.5 -41.5t7.5 -16q5 0 19 24.5t32 60.5t37 78t35 77q8 29 17.5 46.5t20.5 16.5q9 -1 26 -17t33 -36.5t27 -40.5t8 -30q-2 -10 -7 -40.5t-9.5 -70.5t-6.5 -84t2 -81t16 -61t36 -24q50 0 95.5 33t74 93t35 143
t-21.5 182q-14 50 -34.5 81.5t-34.5 45.5q-23 23 -20 41.5t31 21.5q34 3 67.5 -9.5t62.5 -38t51.5 -62t34.5 -80.5q21 -78 21 -150t-17.5 -134.5t-50 -112.5t-76 -84t-96.5 -50t-110 -9q-52 6 -88.5 35t-60 73.5t-33.5 99t-9 111.5z" />
    <glyph glyph-name="d.fina" horiz-adv-x="896" 
d="M370 195q-9 -43 -10.5 -87t4.5 -79.5t18.5 -58t30.5 -22.5q50 0 100 32t84.5 91t45.5 141t-17 181q-14 50 -34.5 81.5t-34.5 46.5q-23 23 -19.5 41.5t31.5 21.5q34 3 67.5 -10t62.5 -38.5t51 -62t34 -80.5q21 -78 18.5 -149.5t-23 -133t-57 -111t-83.5 -83t-102 -49
t-112 -8.5q-52 6 -89 38.5t-60.5 80.5t-34.5 106t-9 115q-18 -41 -38 -78.5t-42 -66t-44.5 -45.5t-46.5 -15q-32 2 -52 33.5t-30 80.5t-9.5 110.5t10.5 125t29.5 123t47.5 104t64.5 69t80.5 18.5q31 -5 53.5 -15.5t38.5 -25.5q12 52 24.5 102.5t26.5 96.5q14 50 11.5 102.5
t-13.5 90.5q-3 13 9 10.5t27 -8.5q9 -4 23 -13.5t29 -23t28.5 -31t22.5 -36.5q15 -32 17 -74t-6 -87q-3 -16 -10.5 -50t-17.5 -80t-22.5 -100t-25.5 -110t-25 -110.5t-22 -100.5zM113 130q4 0 13 14.5t21.5 38.5t27 53.5t28.5 60.5t27 59.5t22 49.5q4 27 9.5 55t11.5 57
q-21 0 -37.5 -8t-30 -22.5t-25 -33.5t-22.5 -41q-9 -17 -17 -45t-15 -59.5t-12.5 -63.5t-7.5 -57.5t-0.5 -41.5t7.5 -16z" />
    <glyph glyph-name="g.fina" horiz-adv-x="777" 
d="M664 361q20 -89 5.5 -155t-49 -115t-81.5 -84.5t-92 -62.5q-26 -15 -54 -29.5t-58 -29.5l-7 -278q-2 -66 -17 -110.5t-39.5 -71.5t-56 -38t-65.5 -11q-30 0 -57.5 14t-49.5 38t-38.5 55.5t-24.5 65.5q-17 64 -4 118t45.5 100t79.5 85.5t99 73.5q-1 56 -2 111.5t0 108.5
q-16 -32 -33.5 -60t-36 -49t-38 -32.5t-38.5 -10.5q-32 2 -52 33.5t-30 80.5t-9.5 110.5t10.5 125t29.5 123t47.5 104t64.5 69t80.5 18.5q33 -5 57 -17t40.5 -28t26 -35t14.5 -38q4 -15 -0.5 -37.5t-12.5 -37.5t-16 -15t-11 30q-4 38 -33 39q-24 2 -51 -20t-58 -86
q-9 -17 -17 -45t-15 -59.5t-12.5 -63.5t-7.5 -57.5t-0.5 -41.5t7.5 -16q4 0 16 19.5t27 49.5t32.5 66.5t32.5 71.5q3 14 7 31t11.5 31.5t17.5 24t25 9.5q9 0 22.5 -15.5t25.5 -36t20.5 -41.5t6.5 -31l-9 -296q16 9 30.5 18.5t27.5 18.5q29 22 56 51t45.5 67.5t26 87
t-3.5 108.5q-5 25 -14.5 45t-20 35.5t-21.5 26.5l-18 18q-22 22 -19.5 40.5t28.5 24.5q33 5 66 -9t61.5 -41.5t49.5 -64.5t31 -78zM202 -319q1 30 0.5 63t-0.5 67q-40 -24 -74 -51t-58 -58t-34.5 -67t-3.5 -77q7 -38 30.5 -65.5t59.5 -27.5q27 0 42.5 19.5t23.5 50.5
t10.5 69.5t3.5 76.5z" />
    <glyph glyph-name="h.fina" horiz-adv-x="883" 
d="M310 1008q-19 0 -44 -77t-57 -214q26 23 46 53t34.5 62.5t23 64t11.5 56t-0.5 40t-13.5 15.5zM435 -141q-62 7 -103 49.5t-64 103.5t-29.5 130.5t0.5 129.5q4 45 12 92.5t15 86.5t9.5 64.5t-3.5 26.5q-9 0 -22.5 -10.5t-29.5 -28t-33 -41t-32 -50.5q-14 -83 -23.5 -144
t-15.5 -101t-9 -60.5t-3 -23.5q0 -5 -0.5 -14t-0.5 -19.5t0.5 -20.5t1.5 -16q2 -18 -22.5 -23t-59.5 11q-25 12 -44.5 39.5t-21.5 61.5q-2 24 2 64t11.5 87t17 96t18 91.5t15.5 74.5t10 44q12 52 26 112t31 119t36.5 113t42.5 95t50 65.5t58 24.5q38 -2 62 -28.5t34 -65.5
q14 -55 -1.5 -110.5t-45.5 -104t-66 -87.5t-63 -61l-13 -74q15 19 32 37.5t36.5 32t40.5 20.5t44 4q37 -6 56.5 -28t26.5 -55.5t3.5 -75.5t-10.5 -86.5t-16 -89t-13 -82.5q-2 -19 -5 -48t-4.5 -60.5t-1 -63.5t5.5 -57t16 -41t30 -16q50 0 100 32t84.5 91t45.5 141t-17 181
q-14 50 -34.5 81.5t-34.5 46.5q-23 23 -19.5 41.5t31.5 21.5q34 3 67.5 -10t62.5 -38.5t51 -62t34 -80.5q21 -78 18.5 -149.5t-23 -133t-57 -111t-83.5 -83t-102 -49t-112 -8.5z" />
    <glyph glyph-name="m.fina" horiz-adv-x="1149" 
d="M619 283q-5 -17 -10.5 -48t-9 -68.5t-4 -76t5 -70.5t17.5 -52t33 -20q50 0 98 32t80 91t41 141t-19 181q-14 50 -34.5 81.5t-34.5 46.5q-23 23 -19.5 41.5t31.5 21.5q34 3 67.5 -10t62.5 -38.5t51 -62t34 -80.5q21 -78 18.5 -149.5t-23 -133t-57 -111t-83.5 -83t-102 -49
t-112 -8.5q-50 5 -85.5 31.5t-59.5 65.5t-36 88t-15 100t2.5 101t18.5 91q11 42 23.5 81t20 68.5t6.5 47.5t-16 19q-9 0 -21.5 -9t-27 -25t-29.5 -38.5t-29 -48.5q-7 -46 -19.5 -87.5t-25.5 -82.5t-23.5 -84.5t-14.5 -93.5q-1 -5 -1.5 -14t-1.5 -19.5t-1 -20.5v-16
q1 -9 -5.5 -15t-18 -8t-27 0.5t-32.5 10.5q-25 12 -42.5 39.5t-17.5 61.5q0 19 9 59.5t21.5 90t26 102t23 96t13 71.5t-4.5 29q-11 1 -26.5 -10t-32 -31t-33.5 -47.5t-30 -59.5q-5 -29 -11.5 -54.5t-12.5 -49.5q-22 -85 -34 -137.5t-14 -77.5q-1 -5 -1.5 -14t-1.5 -19.5
t-1 -20.5v-16q1 -18 -23.5 -23t-57.5 11q-25 12 -42.5 39.5t-17.5 61.5q0 24 9 64.5t21.5 89.5t26 104t24 108.5t14 103.5t-3.5 89q-3 14 16 8t43.5 -23t46.5 -41t25 -46l3 -33q37 57 77.5 91.5t72.5 34.5q55 0 80.5 -31.5t31.5 -82.5q35 51 71.5 83.5t65.5 32.5
q38 0 61.5 -16.5t35.5 -44.5t15 -65t-1.5 -78.5t-14.5 -84.5t-22 -82z" />
    <glyph glyph-name="n.fina" horiz-adv-x="892" 
d="M400 -141q-51 5 -86 32t-57.5 67.5t-33.5 90.5t-13.5 101t2 99.5t13.5 86.5q11 42 20 81t14 68.5t5.5 47.5t-5.5 19q-9 0 -22.5 -9.5t-28 -26.5t-30 -40t-28.5 -50q-5 -36 -12.5 -67.5t-15.5 -60.5q-22 -85 -34 -137.5t-14 -77.5q-1 -5 -1.5 -14t-1.5 -19.5t-1 -20.5v-16
q1 -18 -23.5 -23t-57.5 11q-25 12 -42.5 39.5t-17.5 61.5q0 24 9 64.5t21.5 89.5t26 104t24 108.5t14 103.5t-3.5 89q-3 14 16 8t43.5 -23t46.5 -41t25 -46q2 -8 2 -14.5v-12.5q37 54 74 88t68 34q57 0 81.5 -35t28.5 -89.5t-8 -120t-28 -126.5q-4 -14 -9 -44.5t-9 -67.5
t-4.5 -76.5t4.5 -72t16.5 -53.5t33.5 -21q50 0 98 32t80 91t41 141t-19 181q-14 50 -34.5 81.5t-34.5 46.5q-23 23 -19.5 41.5t31.5 21.5q34 3 67.5 -10t62.5 -38.5t51 -62t34 -80.5q21 -78 18.5 -149.5t-23 -133t-57 -111t-83.5 -83t-102 -49t-112 -8.5z" />
    <glyph glyph-name="o.fina" horiz-adv-x="824" 
d="M309 557q-36 0 -68 -35t-58 -87t-45 -113t-28 -113.5t-7 -88t18 -37.5q21 -2 45.5 21.5t59.5 83.5q-15 28 -21 56t-6 55.5t4.5 53.5t11.5 50q4 16 13.5 36.5t23 36.5t30.5 24t35 -2q33 -18 47 -49t13 -71t-14.5 -86t-34.5 -93q17 -8 38 -12t37 -4q36 0 62 17.5t43.5 46.5
t26.5 67t10.5 79.5t-3.5 82.5t-15 77q-14 50 -34.5 81.5t-34.5 45.5q-23 23 -20 41.5t31 21.5q34 3 64 -9t55.5 -37t45.5 -61t33 -80q15 -52 17.5 -106.5t-6.5 -105.5t-29 -96.5t-50 -80.5t-69.5 -56t-87.5 -24q-34 -2 -73 6t-77 37l-13 -24q-14 -23 -32 -44t-40 -38
t-46.5 -28t-50.5 -13q-44 -3 -73 24t-45 74t-19.5 108t4.5 125t26 126t45.5 111t63 79t78.5 31q9 0 26 -3.5t36 -11t37.5 -20t31.5 -31.5t13.5 -28.5t-25.5 -9.5z" />
    <glyph glyph-name="p.fina" horiz-adv-x="800" 
d="M55 595q7 -4 17 -13.5t20.5 -21.5t21 -25.5t18.5 -26.5q17 45 47 74t89 31q52 -1 79.5 -33t39.5 -80q11 -48 5.5 -109t-22.5 -123t-44 -119t-58 -96q17 -11 43 -16.5t50 -5.5q46 0 80 17.5t56.5 45.5t36 63t19 71.5t3.5 70.5t-8 59q-12 50 -33.5 81.5t-35.5 46.5
q-23 23 -19.5 41.5t31.5 21.5q34 3 65 -9.5t56.5 -37.5t45.5 -61t31 -80q20 -81 3.5 -157t-60.5 -135.5t-110.5 -95.5t-146.5 -36q-49 0 -88 18.5t-77 47.5q-26 -13 -58.5 -10.5t-67.5 31.5q-11 -93 -21.5 -180.5t-18 -158.5t-12.5 -121t-5 -68q-5 -9 -24.5 10t-41.5 48.5
t-38.5 59.5t-15.5 43q7 116 20 225t28.5 221.5t32 234.5t30.5 264q2 11 12.5 7t24.5 -14zM130 353q-6 -36 -11.5 -73.5t-10.5 -75.5q17 -5 28 -11.5t19 -14.5t15 -17.5t16 -20.5q15 27 28 60t22 68t14 69t3 63.5t-10.5 52t-26.5 33.5q-12 7 -24 -1.5t-23.5 -27.5t-21 -46
t-17.5 -58z" />
    <glyph glyph-name="q.fina" horiz-adv-x="777" 
d="M44 -209q-15 -5 -24.5 6.5t-11 30t6 38t25.5 30.5q23 12 47.5 26t50.5 30q7 31 13.5 61.5t12.5 60.5q-24 -37 -50 -59.5t-54 -20.5q-32 2 -52 33.5t-30 80.5t-9.5 110.5t10.5 125t29.5 123t47.5 104t64.5 69t80.5 18.5q33 -5 57 -17t40.5 -28t26 -35t14.5 -38
q4 -15 -0.5 -37.5t-12.5 -37.5t-16 -15t-11 30q-4 38 -33 39q-24 2 -51 -20t-58 -86q-9 -17 -17 -45t-15 -59.5t-12.5 -63.5t-7.5 -57.5t-0.5 -41.5t7.5 -16q7 0 18 18.5t24 47.5t28 64.5t30 70.5t29 64.5t26 46.5q8 12 24 -2t31.5 -38t26 -51t7.5 -42q-14 -67 -26.5 -129
t-25.5 -121l77 53q29 21 56 50.5t45.5 67.5t26 87t-3.5 109q-5 25 -14.5 45t-20 35.5t-21.5 26t-18 17.5q-22 23 -19.5 41.5t28.5 24.5q33 5 66 -9t61.5 -41.5t49.5 -64.5t31 -78q20 -89 5.5 -155.5t-49 -115.5t-81.5 -84t-92 -62q-32 -18 -71.5 -37t-83.5 -40
q-29 -133 -53 -260t-41 -265q-3 -7 -14 0.5t-24.5 23t-29 36t-28 40.5t-20 36.5t-5.5 24.5q10 51 24 124t32 157q-44 -26 -73 -55z" />
    <glyph glyph-name="r.fina" horiz-adv-x="757" 
d="M111 276q15 75 22.5 122t7 74.5t-8.5 39.5t-24 17l-51 -148q-4 -12 -13.5 -11t-18 9.5t-13.5 21.5t0 26l46 154q-9 7 -16.5 22.5t-12 34.5t-7 38.5t-0.5 36.5q2 20 8.5 44t18.5 44t29 33.5t40 12.5q32 -2 46.5 -18.5t17.5 -41.5t-3 -53.5t-15 -54.5t-19 -45.5t-14 -24.5
q23 8 55.5 11.5t60.5 -8t42.5 -44t1.5 -96.5q-1 -3 -6.5 -26.5t-13 -61t-16 -84t-15 -95t-9 -94.5t1 -82t14.5 -58.5t32 -22.5q50 0 95.5 33t74 93t35 143t-21.5 182q-14 50 -34.5 81.5t-34.5 45.5q-23 23 -20 41.5t31 21.5q34 3 67.5 -9.5t62.5 -38t51.5 -62t34.5 -80.5
q21 -78 21 -150t-17.5 -134.5t-50 -112.5t-76 -84t-96.5 -50t-110 -9q-42 5 -74 25t-55 52t-37 72.5t-20.5 85.5t-4.5 91.5t11 90.5z" />
    <glyph glyph-name="s.fina" horiz-adv-x="624" 
d="M211 711q-28 -62 -64 -119q7 -33 18 -71t23.5 -79.5t25 -85t21.5 -86.5q31 -143 -41 -235q63 9 103 47.5t61 88t25.5 101t-4.5 86.5q-12 50 -33.5 81.5t-35.5 46.5q-23 23 -19.5 41.5t31.5 21.5q34 3 65 -9.5t56.5 -37.5t45.5 -61t31 -80q17 -70 0.5 -141.5t-61 -129.5
t-114 -95t-158.5 -37q-37 0 -76 8t-73.5 31t-61.5 64t-42 106q-6 29 -6.5 58.5t5.5 54.5t19 44t34 27q10 29 21.5 65.5t22 72t19.5 66t15 48.5q-4 68 2 113t19 72t31.5 38t39.5 11t35 -14.5t20.5 -34.5t6 -41.5t-6.5 -35.5zM90 490q-12 -29 -24 -72t-26 -85q13 -13 22.5 -29
t13.5 -32q5 -25 3 -39t-9 -30q-6 -8 -14 -10.5t-9 9.5q-4 23 -12 31.5t-15.5 4.5t-12 -20t-0.5 -42q4 -23 12 -39.5t17 -27.5t17.5 -16.5t14.5 -5.5q23 -2 34.5 17.5t14.5 53.5t0 77.5t-8.5 89t-11 89t-7.5 76.5z" />
    <glyph glyph-name="t.fina" horiz-adv-x="646" 
d="M-61 806q42 11 80 19t76 12q8 45 5 91t-12 81q-3 13 9 10.5t27 -8.5q9 -4 25 -16t31.5 -28t28.5 -32t18 -28q4 -14 5.5 -30t1.5 -33q79 -1 139 -12q12 -5 19.5 -14t9 -18t-3.5 -15t-16 -5q-19 1 -61 -2t-94 -11l-2 -8q-3 -14 -10.5 -52.5t-17.5 -92t-21.5 -117
t-22.5 -127.5t-19.5 -124t-12.5 -106q-3 -40 -2 -75t7.5 -61t18.5 -41t30 -15q50 0 98 32t80 91t41 141t-19 181q-14 50 -34.5 81.5t-34.5 46.5q-23 23 -19.5 41.5t31.5 21.5q34 3 67.5 -10t62.5 -38.5t51 -62t34 -80.5q21 -78 18.5 -149.5t-23 -133t-57 -111t-83.5 -83
t-102 -49t-112 -8.5q-62 7 -101.5 44t-61.5 90.5t-29 115.5t-2 119q4 55 12.5 118.5t20.5 130.5t26.5 135t30.5 131q-48 -8 -83.5 -16.5t-46.5 -13.5q-9 -5 -16 6t-8.5 28.5t4 34.5t19.5 24z" />
    <glyph glyph-name="u.fina" horiz-adv-x="913" 
d="M259 147q-17 -35 -36 -65t-39 -51.5t-40 -33.5t-37 -12q-48 0 -76.5 34t-42 87t-13.5 118t10 127q5 30 13.5 67t16 77.5t11.5 80.5t0 76q-2 13 9 10.5t27 -8.5q9 -4 27.5 -18t37 -31.5t33 -35t17.5 -29.5q1 -3 -3 -25t-10.5 -53.5t-14.5 -69t-15 -71.5t-12 -60.5
t-6 -35.5q-3 -24 -4.5 -48.5t-0.5 -44t4.5 -32t11.5 -12.5q12 1 30 17.5t36.5 44t35.5 64t27 77.5q4 28 13 74.5t18.5 98t17 101.5t9.5 85q1 11 11.5 6.5t24.5 -13.5q10 -5 24.5 -20t29 -33.5t26 -36.5t14.5 -29q-1 -39 -8 -84t-15 -92t-16 -94.5t-11 -91.5q-3 -40 -1 -78.5
t9 -68.5t19 -48.5t30 -18.5q50 0 95.5 28t76.5 76t43 111t-6 134q-12 50 -33.5 81.5t-35.5 45.5q-23 23 -19.5 41.5t31.5 21.5q34 3 67.5 -9.5t63 -38t51.5 -62t33 -80.5q15 -59 9.5 -116.5t-27.5 -108.5t-57.5 -93t-81.5 -71t-100 -42.5t-111 -6.5q-52 6 -88 32.5t-59 66.5
t-33.5 89.5t-10.5 99.5z" />
    <glyph glyph-name="y.fina" horiz-adv-x="841" 
d="M132 88q13 1 31.5 18.5t37.5 46t36 66.5t26 79q3 42 10.5 91t13.5 97.5t9 92.5t-1 76q-1 6 2 7.5t8.5 0t12.5 -5.5t14 -9q10 -5 24.5 -20t29 -33t26 -36t14.5 -30q3 -15 2.5 -40.5t-2.5 -54.5t-5 -59t-5 -54q-7 -73 -13 -143.5t-14 -141.5q19 11 36 22t33 22q29 21 56 50
t45.5 67.5t25.5 87t-4 108.5q-5 25 -14 45.5t-19.5 36t-21.5 26t-18 17.5q-23 22 -20.5 40.5t29.5 25.5q33 5 65.5 -9t61 -41.5t50 -64.5t30.5 -78q21 -89 6.5 -155.5t-49 -115.5t-82 -84.5t-92.5 -62.5q-29 -17 -62.5 -32.5t-69.5 -32.5l-27 -247q-14 -127 -60 -183
t-115 -56q-30 0 -57.5 14t-50 38t-38.5 55.5t-25 65.5q-16 61 -1.5 112.5t48.5 95t82.5 79.5t102.5 68q5 81 12 161q-32 -57 -68 -91.5t-66 -34.5q-54 0 -82.5 36t-39 92t-7.5 125t11.5 135t19 122t14.5 86q1 5 2 14.5t1.5 20t0.5 20.5t-1 16q-3 13 8.5 10.5t27.5 -8.5
q9 -4 27.5 -18t37 -31.5t33 -35t17.5 -29.5q1 -3 -3 -25t-10.5 -53.5t-14.5 -69t-15 -71.5t-12 -60.5t-6 -35.5q-3 -24 -4.5 -48.5t-0.5 -44t4.5 -32t11.5 -12.5zM145 -489q23 0 37.5 16.5t23 43.5t12 61.5t5 70.5t1.5 71t2 62q-40 -21 -74 -45.5t-58 -53t-35 -61.5t-4 -72
q7 -38 30.5 -65.5t59.5 -27.5z" />
    <glyph glyph-name="z.fina" horiz-adv-x="838" 
d="M53 371q-5 -13 -14 -12.5t-18 8t-14 20.5t-1 26q8 20 17.5 60.5t14.5 94.5q-19 31 -24.5 64t-0.5 64q8 48 30.5 75t45.5 28q20 1 36.5 -13.5t26 -36.5t11.5 -47.5t-6 -46.5l-26 -66q16 7 41.5 15t53 6.5t53.5 -17t44 -55.5q20 -45 20.5 -90.5t-12 -89.5t-34.5 -86.5
t-46 -81.5q40 -11 85 -46.5t77 -93.5l45 30q29 21 56 50t45.5 67.5t25.5 87t-4 108.5q-5 25 -14 45.5t-19.5 36t-21.5 26t-18 17.5q-23 22 -20.5 40.5t29.5 25.5q33 5 65.5 -9t61 -41.5t50 -64.5t30.5 -78q21 -89 6.5 -155.5t-49 -115.5t-82 -84.5t-92.5 -62.5
q-13 -7 -27 -14l-30 -15q17 -80 14 -150.5t-21.5 -128.5t-48.5 -104t-67 -77t-77 -47t-77 -15q-31 1 -58 15.5t-49.5 38t-38.5 54.5t-25 65q-18 71 4 128.5t67.5 105.5t107 87.5t122.5 73.5q-16 35 -40 58t-50 22q-28 -2 -39.5 -25t-19.5 -59q-5 -9 -18.5 -10.5t-28 3
t-26 14t-12.5 21.5q-4 42 4.5 87t23.5 88.5t33.5 84t34.5 74t26.5 58.5t9.5 38q-1 20 -9.5 27.5t-22 11t-31.5 6.5t-38 15q-11 -29 -22 -61.5t-25 -71.5zM145 -489q42 4 76.5 41t58.5 91t36.5 118t9.5 124q-55 -26 -107.5 -54t-91.5 -62t-60 -74.5t-12 -90.5
q7 -38 30.5 -65.5t59.5 -27.5z" />
    <glyph glyph-name="i.fina" horiz-adv-x="645" 
d="M56 867q9 38 35 51t54 -9q15 -11 26 -28.5t17.5 -37.5t8 -41t-2.5 -40q-9 -41 -35.5 -53t-55.5 9q-29 23 -42 65.5t-5 83.5zM-12 182q0 54 7 115.5t15.5 125.5t15 127t6.5 119q0 12 11 7.5t25 -14.5q10 -5 24.5 -20t29 -33t26 -36t14.5 -30q-2 -37 -8.5 -84.5t-14.5 -98
t-15 -100t-11 -89.5q-3 -40 -2.5 -80t6 -71.5t17 -51.5t29.5 -20q50 0 98 32t80 91t41 141t-19 181q-14 50 -34.5 81.5t-34.5 46.5q-23 23 -19.5 41.5t31.5 21.5q34 3 67.5 -10t62.5 -38.5t51 -62t34 -80.5q21 -78 18.5 -149.5t-23 -133t-57 -111t-83.5 -83t-102 -49
t-112 -8.5q-52 6 -85.5 35.5t-53.5 74.5t-27.5 100.5t-7.5 112.5z" />
    <glyph glyph-name="k.fina" horiz-adv-x="910" 
d="M295 284q17 -74 41.5 -127.5t53 -88.5t59 -51.5t60.5 -16.5q41 1 77.5 27t59.5 73t28 112.5t-16 145.5q-12 49 -33.5 81t-35.5 47q-23 23 -19.5 41.5t31.5 21.5q34 3 65.5 -13t58 -45t46 -67.5t29.5 -79.5q22 -90 7 -166.5t-54.5 -132t-99 -87t-125.5 -31.5
q-50 1 -101 22t-98.5 65.5t-88 114.5t-68.5 169q23 36 42.5 80t32.5 83t18 65.5t-1 26.5q-11 0 -24.5 -10.5t-27.5 -29.5t-28.5 -45t-26.5 -56q-27 -163 -38.5 -243t-11.5 -86q0 -5 -0.5 -14t-0.5 -19.5t0.5 -20.5t1.5 -16q2 -18 -22.5 -23t-59.5 11q-25 12 -44.5 39.5
t-21.5 61.5q-2 24 2 64t11.5 87t17 96t18 91.5t15.5 74.5t10 44q12 52 25 113.5t28.5 122t33.5 117t39.5 100t47.5 69t57 25.5q27 0 46.5 -15t32 -37t17.5 -47.5t3 -47.5q-4 -49 -18.5 -95.5t-37 -87.5t-51 -75t-59.5 -58l-12 -70q27 37 54 59.5t52 22.5q38 0 62.5 -18
t36 -47.5t11 -68t-12.5 -79.5t-36 -82t-58 -76zM297 1023q-9 1 -18 -19.5t-18.5 -59.5t-21.5 -94t-27 -123q35 48 59.5 100t36.5 95.5t9.5 71.5t-20.5 29z" />
    <glyph glyph-name="l.fina" horiz-adv-x="686" 
d="M135 389q-11 -59 -18.5 -119t-2.5 -108q3 -24 9 -51.5t16.5 -51t27 -39t40.5 -16.5q50 -2 88.5 16.5t67 49.5t46.5 70.5t27 79.5t9.5 76.5t-5.5 61.5q-12 50 -33.5 81.5t-35.5 46.5q-23 23 -19.5 41.5t31.5 21.5q34 3 65 -9.5t56.5 -37.5t45.5 -61t31 -80
q11 -43 7.5 -93.5t-20 -101t-46 -96.5t-71 -81t-95 -54.5t-118.5 -15.5q-40 2 -78.5 20.5t-71.5 53t-57 85t-34 117.5q-12 80 -6 174.5t27 189.5q12 53 27 112.5t33.5 118t39.5 112.5t45.5 95t52.5 65t59 24q27 0 46.5 -15t31.5 -37t17 -47.5t4 -47.5q-3 -40 -13.5 -91
t-27.5 -105.5t-39.5 -109.5t-48 -103t-54 -85t-56.5 -56zM311 1007q-6 0 -17 -24t-24 -64t-28 -91.5t-29.5 -107t-28 -110t-23.5 -99.5q24 27 48.5 74t46 102t38 111.5t25.5 103t7.5 75.5t-15.5 30z" />
    <glyph glyph-name="a" unicode="a" horiz-adv-x="497" 
d="M558 393q-12 -32 -24 -74.5t-26.5 -88t-30.5 -89.5t-35.5 -78.5t-43 -56t-50.5 -21.5q-32 0 -55 15.5t-38.5 41.5t-24 60t-11.5 72q-17 -37 -35.5 -70t-39 -58t-41.5 -39.5t-43 -12.5q-32 2 -52 33.5t-30 80.5t-9.5 110.5t10.5 125t29.5 123t47.5 104t64.5 69t80.5 18.5
q33 -5 57 -17t40.5 -28t26 -35t14.5 -38q4 -15 -0.5 -37.5t-12.5 -37.5t-16 -15t-11 30q-4 38 -33 39q-24 2 -51 -20t-58 -86q-9 -17 -17 -45t-15 -59.5t-12.5 -63.5t-7.5 -57.5t-0.5 -41.5t7.5 -16q5 0 19 24.5t32 60.5t37 78t35 77q8 29 17.5 46.5t20.5 16.5
q9 -1 26.5 -17.5t34 -37.5t27.5 -41t6 -28q-1 -2 -4 -19t-6 -41.5t-5 -52.5t-2 -52t4 -40t14 -16q13 0 26 18t25.5 47t25 66.5t24.5 76.5t23 75.5t21 65.5q4 12 13.5 11.5t18 -9t13 -21.5t0.5 -25z" />
    <glyph glyph-name="a.swsh" horiz-adv-x="444" 
d="M339 540q4 -15 -0.5 -37.5t-12.5 -37.5t-16 -15t-11 30q-4 38 -33 39q-24 2 -51 -20t-58 -86q-9 -17 -17 -45t-15 -59.5t-12.5 -63.5t-7.5 -57.5t-0.5 -41.5t7.5 -16q4 0 14 16t23.5 42t28.5 58.5t30 64.5t27.5 61t20.5 48q2 5 7 9t10 4q9 -1 26 -17t33.5 -37t27.5 -41
t7 -29q-12 -29 -26.5 -82t-23.5 -119t-7.5 -140.5t23.5 -146.5q16 -54 42 -86.5t57.5 -50.5t66.5 -24.5t69 -6.5q26 -1 51.5 11.5t45.5 34t33.5 49t15.5 56.5q1 12 6 13.5t12.5 -5.5t15.5 -22.5t14 -37.5q13 -49 11.5 -87t-13 -66t-29.5 -47t-38.5 -31t-39.5 -17t-32 -5
q-66 0 -127 32t-112 88.5t-90 134t-63 169.5q-16 59 -23.5 110.5t-5.5 99.5q-15 -30 -32 -56t-34.5 -44.5t-36 -29t-37.5 -9.5q-32 2 -52 33.5t-30 80.5t-9.5 110.5t10.5 125t29.5 123t47.5 104t64.5 69t80.5 18.5q33 -5 57 -17t40.5 -28t26 -35t14.5 -38z" />
    <glyph glyph-name="m.swsh" horiz-adv-x="734" 
d="M172 102q0 19 9 59.5t21.5 90t26 102t23 96t13 71.5t-4.5 29q-11 1 -26.5 -10t-32 -31t-33.5 -47.5t-30 -59.5q-5 -29 -11.5 -54.5t-12.5 -49.5q-22 -85 -34 -137.5t-14 -77.5q-1 -5 -1.5 -14t-1.5 -19.5t-1 -20.5v-16q1 -18 -23.5 -23t-57.5 11q-25 12 -42.5 39.5
t-17.5 61.5q0 24 9 64.5t21.5 89.5t26 104t24 108.5t14 103.5t-3.5 89q-3 14 16 8t43.5 -23t46.5 -41t25 -46l3 -33q37 57 77.5 91.5t72.5 34.5q56 0 81.5 -33t30.5 -84q35 53 72 86t67 33q57 0 81.5 -35t28.5 -89.5t-8 -120t-28 -126.5q-11 -41 -27 -97t-27 -119
t-13 -129.5t15 -126.5q13 -48 39.5 -79t59.5 -48.5t68.5 -23t68.5 -2.5q27 3 51 15.5t43 31.5t31 44.5t14 54.5q1 12 6 13.5t12.5 -5.5t15.5 -22.5t14 -37.5q13 -49 11.5 -87t-13 -66t-29.5 -47t-38.5 -31t-39.5 -17t-32 -5q-66 0 -129 29t-116 82.5t-94.5 128t-65.5 166.5
q-17 66 -18.5 127t5.5 115.5t20 102t24 86.5q12 42 21 80.5t14 68.5t5 48t-6 19q-9 0 -22.5 -9.5t-28 -26.5t-30 -40.5t-29.5 -51.5q-5 -32 -13.5 -63.5t-18.5 -62.5q-6 -16 -14 -44t-14 -62q-9 -39 -14.5 -66t-7.5 -43q-1 -5 -1.5 -14t-1.5 -19.5t-1 -20.5v-16
q1 -9 -5.5 -15t-18 -8t-27 0.5t-32.5 10.5q-25 12 -42.5 39.5t-17.5 61.5z" />
    <glyph glyph-name="n.swsh" horiz-adv-x="490" 
d="M376 283q-11 -41 -27.5 -97.5t-29 -120.5t-16 -129t12.5 -122q13 -48 40.5 -79.5t62 -49.5t71.5 -24t70 -3q27 3 51 15.5t43 31.5t31 44.5t14 54.5q1 12 6 13.5t12.5 -5.5t15.5 -22.5t14 -37.5q13 -49 11.5 -87t-13 -66t-29.5 -47t-38.5 -31t-39.5 -17t-32 -5
q-66 0 -128.5 30t-116 85t-94.5 130.5t-65 167.5q-17 66 -18.5 125.5t5.5 113t19.5 100t23.5 85.5q12 42 21 80.5t14 68.5t5 48t-6 19q-11 0 -25.5 -11.5t-31 -31.5t-33 -47.5t-30.5 -59.5q-5 -29 -11.5 -54.5t-12.5 -49.5q-22 -85 -34 -137.5t-14 -77.5q-1 -5 -1.5 -14
t-1.5 -19.5t-1 -20.5v-16q1 -18 -23.5 -23t-57.5 11q-25 12 -42.5 39.5t-17.5 61.5q0 24 9 64.5t21.5 89.5t26 104t24 108.5t14 103.5t-3.5 89q-3 14 16 8t43.5 -23t46.5 -41t25 -46q2 -14 2.5 -26.5t1.5 -25.5l3 21q37 56 75 91t69 35q57 0 81.5 -35t28.5 -89.5t-8 -120
t-28 -126.5z" />
    <glyph glyph-name="h.swsh" horiz-adv-x="500" 
d="M387 283q-11 -41 -28 -96t-30.5 -117t-17.5 -126.5t11 -122.5q12 -48 40.5 -80.5t64 -52t73.5 -26.5t71 -4q27 3 51 15.5t43 31.5t31 44.5t14 54.5q1 12 6 13.5t12.5 -5.5t15.5 -22.5t14 -37.5q13 -49 11.5 -87t-13 -66t-29.5 -47t-38.5 -31t-39.5 -17t-32 -5
q-66 0 -128.5 30t-116 85t-94.5 130.5t-65 167.5q-17 66 -18.5 125.5t5.5 113t19.5 100t23.5 85.5q12 42 21 80.5t14 68.5t5 48t-6 19q-11 0 -26.5 -12.5t-32.5 -34.5t-34 -51.5t-31 -62.5q-27 -155 -38 -228.5t-11 -79.5q0 -5 -0.5 -14t-0.5 -19.5t0.5 -20.5t1.5 -16
q2 -18 -22.5 -23t-59.5 11q-25 12 -44.5 39.5t-21.5 61.5q-2 24 2 64t11.5 87t17 96t18 91.5t15.5 74.5t10 44q12 52 26 112t31 119t36.5 113t42.5 95t50 65.5t58 24.5q38 -2 62 -28.5t34 -65.5q14 -55 -1.5 -110.5t-45.5 -104t-66 -87.5t-63 -61l-16 -88q35 50 70 80.5
t64 30.5q57 0 81.5 -35t28.5 -89.5t-8 -120t-28 -126.5zM310 1008q-19 0 -44 -77t-57 -214q26 23 46 53t34.5 62.5t23 64t11.5 56t-0.5 40t-13.5 15.5z" />
    <glyph glyph-name="r.swsh" horiz-adv-x="359" 
d="M108 336q12 52 18.5 87t7 57.5t-5.5 33.5t-20 15l-51 -148q-4 -12 -13.5 -11t-18 9.5t-13.5 21.5t0 26l46 154q-9 7 -16.5 22.5t-12 34.5t-7 38.5t-0.5 36.5q2 20 8.5 44t18.5 44t29 33.5t40 12.5q32 -2 46.5 -18.5t17.5 -41.5t-3 -53.5t-15 -54.5t-19 -45.5t-14 -24.5
q23 8 55.5 11.5t60.5 -8t42.5 -44t1.5 -96.5l-41 -186q-9 -41 -24 -99.5t-26 -123t-11 -130.5t21 -122q18 -47 46.5 -78t63 -49t70.5 -23.5t69 -2.5q27 3 50.5 15.5t42 31.5t29.5 44.5t12 54.5q1 23 18.5 7.5t31.5 -59.5q15 -49 14.5 -87t-11 -66t-28.5 -47t-37.5 -31
t-38.5 -17t-32 -5q-66 0 -129.5 30t-118.5 85t-99 130.5t-71 167.5q-19 66 -22.5 125.5t2 112.5t16.5 99.5t20 86.5z" />
    <glyph glyph-name="g.swsh" horiz-adv-x="448" 
d="M331 540q4 -15 -0.5 -37.5t-12.5 -37.5t-16 -15t-11 30q-4 38 -33 39q-24 2 -51 -20t-58 -86q-9 -17 -17 -45t-15 -59.5t-12.5 -63.5t-7.5 -57.5t-0.5 -41.5t7.5 -16q4 0 16 19.5t27 49.5t32.5 66.5t32.5 71.5q6 32 15.5 54t22.5 33q5 7 14 7q2 0 4.5 1t4.5 1
q9 0 22.5 -15.5t25.5 -36t20.5 -41.5t6.5 -31l-11 -383q42 -16 84.5 -37t82 -41t75.5 -36.5t66.5 -23.5t54 -2t37.5 28q9 16 18 18.5t24 -25.5q11 -21 13.5 -54.5t-5.5 -66.5t-27.5 -57t-53.5 -25q-57 -2 -106.5 21.5t-94.5 56.5t-87 68t-85 58l-5 -201q-2 -66 -15.5 -111.5
t-36.5 -73t-54.5 -39t-68.5 -9.5q-31 1 -58.5 18t-50.5 43.5t-39.5 59.5t-24.5 67q-19 77 -10 147.5t39.5 124t79.5 85.5t110 33q-1 50 -1 98.5v95.5q-16 -32 -33.5 -60t-36 -49t-38 -32.5t-38.5 -10.5q-32 2 -52 33.5t-30 80.5t-9.5 110.5t10.5 125t29.5 123t47.5 104
t64.5 69t80.5 18.5q33 -5 57 -17t40.5 -28t26 -35t14.5 -38zM202 -319q1 35 0.5 73.5t-1.5 77.5q-48 -8 -84 -35t-58 -64.5t-29 -80.5t2 -82q4 -19 13.5 -38t22 -34t28.5 -24.5t34 -9.5q27 0 41 19.5t21 50.5t8 70t2 77z" />
    <glyph glyph-name="i.swsh" horiz-adv-x="229" 
d="M143 326q-8 -46 -22 -109.5t-22 -133.5t-5 -141t29 -131q20 -47 50.5 -78t65.5 -49t71.5 -23.5t68.5 -2.5q27 3 50 15.5t40.5 31.5t27 44.5t8.5 54.5q0 12 5.5 13.5t13.5 -5.5t17 -22.5t17 -37.5q17 -49 19 -87t-7 -66t-25.5 -47t-36 -31t-38 -17t-31.5 -5
q-66 0 -131.5 30t-123 85t-105.5 130.5t-80 167.5q-25 71 -31.5 138t-2 130t15.5 123.5t22 119.5q4 25 10.5 59.5t11.5 70t7.5 66.5t-0.5 50q-2 13 10 8t26 -15q10 -5 24.5 -20t29 -33t26 -36t14.5 -30q3 -15 2 -42.5t-4 -59t-8 -62.5t-9 -53zM56 867q9 38 35 51t54 -9
q15 -11 26 -28.5t17.5 -37.5t8 -41t-2.5 -40q-9 -41 -35.5 -53t-55.5 9q-29 23 -42 65.5t-5 83.5z" />
    <glyph glyph-name="u.swsh" horiz-adv-x="510" 
d="M421 326q-8 -46 -22 -109.5t-23 -133.5t-6 -141t29 -131q20 -47 51 -78t66 -49t72 -23.5t69 -2.5q27 3 50 15.5t40.5 31.5t27 44.5t8.5 54.5q0 12 5.5 13.5t13.5 -5.5t17 -22.5t17 -37.5q17 -49 19 -87t-7 -66t-25.5 -47t-36 -31t-38 -17t-31.5 -5q-66 0 -131.5 30
t-123.5 85t-106 130.5t-80 167.5q-19 53 -26.5 102.5t-9.5 97.5q-31 -57 -67 -92t-66 -35q-48 0 -76.5 34t-42 87t-13.5 118t10 127q4 27 9.5 57.5t10.5 61t10 59t8 52.5q1 5 2 14.5t1.5 20t0.5 20.5t-1 16q-3 13 8.5 10.5t27.5 -8.5q9 -4 27.5 -18t37 -31.5t33 -35
t17.5 -29.5q1 -3 -3 -25t-10.5 -53.5t-14.5 -69t-15 -71.5t-12 -60.5t-6 -35.5q-3 -24 -4.5 -48.5t-0.5 -44t4.5 -32t11.5 -12.5q13 1 31.5 18.5t37.5 46t36 66.5t26 79l5 31q2 6 2 13t1 14q2 9 4 11l11 56q4 25 10.5 56.5t12 63t8.5 60t0 47.5q-2 12 10 7t26 -14
q10 -5 25 -20t29.5 -33t26 -35.5t14.5 -29.5q3 -15 1.5 -39.5t-5 -52.5t-9 -56.5t-9.5 -50.5z" />
    <glyph glyph-name="y.swsh" horiz-adv-x="510" 
d="M132 88q13 1 31 18t37 45.5t35.5 65.5t26.5 78l3 31q4 42 9.5 82l11 80t8.5 81t1 86q0 13 11.5 8t25.5 -15q10 -5 24.5 -20t29 -33t26 -36t14.5 -30q3 -15 3 -41t-2 -56t-5 -60.5t-6 -53.5l-37 -401q41 -16 81 -36t77.5 -39t71.5 -34t62.5 -21t50.5 -0.5t36 27.5
q9 16 18 18.5t24 -25.5q11 -21 13.5 -54.5t-5.5 -66.5t-27.5 -57t-53.5 -25q-55 -2 -102.5 19.5t-91 52.5t-84 65t-81.5 59l-19 -195q-12 -128 -56.5 -181.5t-118.5 -49.5q-31 1 -58.5 18t-50.5 43.5t-39.5 59.5t-25.5 67q-19 78 -9.5 149t41.5 125t83 85.5t114 30.5h2
q3 39 6.5 78.5t7.5 78.5q-32 -56 -67.5 -90t-65.5 -34q-48 0 -76.5 34t-42 87t-13.5 118t10 127q4 27 9 57.5t10.5 61t10.5 59t8 52.5q1 5 2 14.5t1.5 20t0.5 20.5t-1 16q-3 13 8.5 10.5t27.5 -8.5q9 -4 27.5 -18t37 -31.5t33 -35t17.5 -29.5q1 -3 -3 -25t-10.5 -53.5
t-14.5 -69t-15 -71.5t-12 -60.5t-6 -35.5q-3 -24 -4.5 -48.5t-0.5 -44t4.5 -32t11.5 -12.5zM215 -318q2 38 4 75.5t4 74.5q-48 -8 -84 -35t-58.5 -64.5t-29.5 -80.5t2 -82q4 -19 13.5 -38t22 -34t28.5 -24.5t34 -9.5q21 0 32.5 20t18 51.5t9 70t4.5 76.5z" />
    <glyph glyph-name="z.swsh" horiz-adv-x="427" 
d="M68 15q-2 42 7.5 86.5t24.5 88t33 83.5t33.5 74t25.5 59t9 38q-1 20 -9.5 27.5t-22 11t-31.5 6.5t-38 15q-11 -29 -22 -61.5t-25 -71.5q-5 -13 -14 -12.5t-18 8t-14 20.5t-1 26q8 20 18.5 59.5t18.5 87.5l-5 8q-19 31 -24.5 64t-0.5 64q8 48 30.5 75t45.5 28
q20 1 36.5 -13.5t26 -36.5t11.5 -47.5t-6 -46.5l-26 -66q13 8 22 12q16 8 39.5 11.5t48 -2.5t46.5 -23t36 -49q20 -46 20 -91.5t-12.5 -89.5t-34.5 -86.5t-47 -81.5q28 -12 51 -38t40.5 -62.5t29.5 -81.5t18 -94q40 -17 79.5 -37t76 -38t69.5 -32t61 -19.5t49 0t35 27.5
q9 16 18 18.5t24 -25.5q11 -21 13.5 -54.5t-5.5 -66.5t-27.5 -57t-53.5 -25q-50 -2 -94 16t-84 45t-78 59t-75 58q0 -77 -12 -150.5t-34.5 -131.5t-55.5 -94.5t-77 -39.5q-36 -3 -70.5 10.5t-63 39.5t-50 63.5t-33.5 82.5q-19 78 -9.5 149t41.5 125t83 85.5t114 30.5
q8 0 16.5 -0.5t17.5 -1.5q-8 54 -23.5 89t-35.5 37q-11 0 -24 -19t-26 -71q-5 -9 -18.5 -11t-28.5 2.5t-27 14.5t-12 23zM151 -536q33 2 56.5 36t38 87.5t20.5 118.5t5 129h-12q-57 0 -100 -25.5t-70 -64.5t-36.5 -86t0.5 -89q4 -19 13.5 -38t22.5 -34.5t28.5 -25t33.5 -8.5
z" />
    <glyph glyph-name="r.ini" horiz-adv-x="390" 
d="M-35 36q-7 -16 -21 -26.5t-26.5 -12.5t-21 4t-3.5 23l156 568q-9 7 -15 21t-9 30.5t-4 34.5t1 35q2 20 8.5 44t18.5 44t29 33.5t40 12.5q32 -2 46.5 -18.5t17.5 -41.5t-3 -53.5t-15 -54.5t-19 -45.5t-14 -24.5q23 8 55.5 11.5t60.5 -8t42.5 -44t1.5 -96.5
q-2 -10 -9.5 -42t-17 -74t-18 -88.5t-14 -85.5t-5 -65t10.5 -27q13 -2 28 17t30.5 50.5t31.5 70.5t30 77.5t26 73t20 55.5q5 13 14.5 14t18.5 -6.5t13.5 -21t-0.5 -29.5q-13 -39 -28.5 -86t-33.5 -94t-39 -90t-44.5 -75t-49.5 -49t-55 -11q-31 6 -56 29.5t-40.5 56.5
t-21.5 71t2 74q17 84 29.5 139t17.5 89.5t2.5 52.5t-15.5 27q-5 5 -3.5 4.5t-0.5 1.5q-4 -14 -15 -51.5t-25 -87t-30.5 -105.5t-31.5 -106.5t-27.5 -89.5t-19.5 -55z" />
    <glyph glyph-name="s.ini" horiz-adv-x="446" 
d="M99 -14q-24 10 -50.5 34t-50 60t-41 83t-23.5 104q-3 43 4.5 82t24 66t41 38.5t57.5 0.5q26 -11 45 -29.5t31.5 -40.5t18.5 -46t6 -45q2 -39 -8 -71.5t-28 -40.5q-12 -4 -20 7.5t-3 24.5q6 19 4 37t-9.5 32t-17.5 23.5t-20 12.5q-18 6 -29 -6.5t-14 -35t0.5 -51t13.5 -55
t26 -47t37 -26.5q39 -12 59.5 6.5t29 58t7 96t-6 120t-10.5 129.5t-7 124.5t5.5 105t26.5 71.5q20 24 38.5 26t33 -6.5t24 -22t12.5 -21.5q10 -31 8 -60t-11 -53.5t-22.5 -44t-24.5 -31.5q2 -29 11.5 -65.5t21.5 -77t23 -83t16.5 -84t2.5 -79t-20 -67.5q22 18 43.5 53t41 78
t36.5 87t30 80q4 12 13.5 11.5t18 -9t13 -21.5t0.5 -25q-11 -32 -28.5 -81t-41.5 -102.5t-56.5 -104.5t-73.5 -86t-92.5 -47.5t-113.5 11.5z" />
    <glyph glyph-name="x.ini" horiz-adv-x="484" 
d="M-6 -64q-6 24 1 53.5t24.5 62.5t42.5 68.5t54 72.5q-7 58 -8.5 122.5t-1 127t1 118t-0.5 97.5q0 12 11 21.5t27 16t35 10t35 4t27 -2t11 -7.5q-2 -36 -4.5 -78.5t-4 -88t-3 -92t-1.5 -90.5q32 43 59 85.5t43.5 83.5t19.5 79t-12 73q-6 15 8 24t37 4t44.5 -30.5
t29.5 -73.5q8 -42 -10 -83.5t-52 -83.5t-78 -85t-87 -89q2 -35 5 -64.5t7.5 -51t10.5 -33t15 -11.5q18 1 38.5 19.5t41.5 47.5t41.5 65.5t39 74t33.5 73t25 62.5q4 12 13.5 11.5t18 -9t13 -21.5t0.5 -25q-11 -31 -28.5 -74t-39.5 -90t-48 -93t-54.5 -82.5t-59 -59
t-61.5 -22.5q-49 0 -78 39t-44 102q-26 -43 -39 -88.5t-8 -97.5q1 -12 4 -18.5t6 -12t4 -11.5t-2 -15q-3 -12 -16 -17.5t-28.5 0t-31.5 25t-26 58.5z" />
    <glyph glyph-name="f.fina" horiz-adv-x="739" 
d="M214 57q36 -22 76 -29t77 1t69.5 30t54.5 57t30 82t-3 106q-5 25 -16 48t-24 42t-25.5 33t-19.5 21q-23 22 -20.5 40.5t29.5 25.5q29 2 62 -9.5t63 -35.5t52 -61t30 -87q12 -76 -3 -138.5t-48 -110t-79.5 -78t-99 -42.5t-106.5 -4t-100 38q-3 -80 -15.5 -160.5
t-33.5 -145t-49 -105t-61 -40.5q-43 0 -70 30t-41.5 81t-18 119.5t1 145t14.5 156.5t22.5 155.5t25.5 142t23 114.5q10 53 26.5 119.5t37.5 135.5t45.5 134.5t52 116.5t57 83t59.5 34q29 2 53 -18t35 -75q11 -56 8 -124t-18 -138.5t-38.5 -140t-53.5 -129t-63.5 -104.5
t-66.5 -66q-1 -3 -2 -14t-2 -23t-2.5 -22.5t-2.5 -13.5q18 -1 35 -16t28.5 -39.5t16 -56t-1.5 -65.5zM167 13q-15 6 -27.5 17.5t-22 26.5t-15.5 33t-7 36q-11 -51 -21 -106.5t-18.5 -109.5t-14 -103t-6.5 -86t3 -59t15 -22q13 1 25.5 17.5t24.5 45t22 66t18.5 79t14.5 84
t9 81.5zM322 1001q-7 1 -17.5 -28.5t-24 -78t-28.5 -110.5t-29.5 -126t-28.5 -124.5t-24 -105.5q26 36 60 106t61 159q17 54 26.5 108t13 98.5t1 72.5t-9.5 29z" />
    <glyph glyph-name="NULL" horiz-adv-x="0" 
 />
    <glyph glyph-name="NULL" horiz-adv-x="0" 
 />
    <glyph glyph-name="nonmarkingreturn" unicode="&#xd;" horiz-adv-x="260" 
 />
    <glyph glyph-name="r" unicode="r" horiz-adv-x="390" 
d="M238 90q13 -2 28 17t30.5 50.5t31.5 70.5t30 77.5t26 73t20 55.5q5 13 14.5 14t18.5 -6.5t13.5 -21t-0.5 -29.5q-13 -39 -28.5 -86t-33.5 -94t-39 -90t-44.5 -75t-49.5 -49t-55 -11q-31 6 -56 29.5t-40.5 56.5t-21.5 71t2 74q18 91 30.5 149.5t17 93t-1 49.5t-22.5 20
l-51 -148q-4 -12 -13.5 -11t-18 9.5t-13.5 21.5t0 26l46 154q-9 7 -16.5 22.5t-12 34.5t-7 38.5t-0.5 36.5q2 20 8.5 44t18.5 44t29 33.5t40 12.5q32 -2 46.5 -18.5t17.5 -41.5t-3 -53.5t-15 -54.5t-19 -45.5t-14 -24.5q23 8 55.5 11.5t60.5 -8t42.5 -44t1.5 -96.5
q-2 -10 -9.5 -42t-17 -74t-18 -88.5t-14 -85.5t-5 -65t10.5 -27z" />
    <glyph glyph-name="b.fina" horiz-adv-x="1130" 
d="M311 1009q-6 0 -17 -24t-24.5 -64t-28.5 -92t-29.5 -107t-28.5 -110t-24 -100q25 29 50 77t46.5 103.5t38.5 111.5t25.5 101.5t7 74.5t-15.5 29zM408 280q-14 -57 -32.5 -109.5t-41.5 -93.5t-52 -66t-65 -25q-51 -1 -89.5 21.5t-65.5 62t-43 93.5t-21.5 115.5t-1 128
t18.5 132.5q12 55 27 117t33 122.5t39 116t46 98t53.5 68t61.5 27.5q27 1 46 -13t31 -35.5t17.5 -48t5.5 -49.5q0 -39 -11.5 -92t-30.5 -111.5t-43.5 -116.5t-50.5 -107t-52.5 -84t-49.5 -45q-12 -60 -10 -117t14 -101t32 -70t44 -25t43 27.5t35 70t29.5 98.5t26.5 113
q-15 37 -20 93t4 113q3 22 9 43.5t16.5 38t26.5 25.5t40 8q27 -2 40 -24.5t15.5 -55.5t-3 -72.5t-13 -76.5t-16 -66.5t-11.5 -42.5q17 -51 42 -85t54 -54t62 -28.5t66 -8.5q30 0 58 12t52 32.5t43.5 49t32.5 61.5q6 16 11 42t6.5 56t-1 62.5t-9.5 62.5t-20 54.5t-32 39.5
q-11 8 -16.5 18.5t-4.5 19.5t8 14t22 1q52 -12 91.5 -55t65 -99t35.5 -116t1 -107q-14 -74 -48 -122.5t-78.5 -77.5t-93.5 -41t-93 -11q-78 2 -150 48.5t-135 146.5z" />
    <glyph glyph-name="c.fina" horiz-adv-x="780" 
d="M319 -90q-51 0 -100 13t-91 41.5t-75 73.5t-51 108q-12 40 -17 87t-2.5 95.5t13.5 96.5t32 90q39 80 84.5 112t84.5 31q32 0 56 -11.5t41 -29t27 -38t14 -39.5q3 -12 6 -32.5t0 -46.5t-14.5 -56t-38.5 -61q-7 -8 -16 -5.5t-15.5 10.5t-9 19.5t3.5 20.5q17 26 23.5 50
t4.5 42t-11 29t-22 11q-7 0 -17 -4.5t-22 -16.5t-25.5 -33t-28.5 -54q-12 -26 -20 -60t-10 -70.5t2 -73.5t15 -68q10 -29 22 -53.5t30 -42t42.5 -27.5t58.5 -10q49 0 87 21.5t65 57t44 80.5t24 93t5 95t-12 85q-14 49 -34.5 80.5t-34.5 46.5q-23 23 -19.5 41.5t31.5 21.5
q34 3 64.5 -9.5t56.5 -37.5t45.5 -61t30.5 -80q15 -56 13.5 -117.5t-17.5 -120.5t-45.5 -112.5t-70.5 -94t-93.5 -64t-113.5 -23.5z" />
    <glyph glyph-name="e.fina" horiz-adv-x="750" 
d="M130 196q3 -36 13.5 -70.5t31 -61.5t51.5 -43.5t73 -16.5q44 0 79 20t61.5 53t43.5 77.5t25 92.5t7 98t-12 95q-12 49 -33.5 80.5t-35.5 46.5q-23 23 -19.5 41.5t31.5 21.5q34 3 64 -9.5t55.5 -37.5t45.5 -61t32 -80q17 -59 17 -121t-15.5 -120.5t-45 -110.5t-71.5 -91
t-95 -61.5t-115 -22.5q-35 0 -81.5 6t-92.5 31.5t-86 76t-62 139.5q-14 56 -15.5 113.5t7.5 112t28 102t45.5 84t59 58t70.5 23.5q28 1 51.5 -8t41.5 -25t30 -37t18 -44q11 -41 8 -82t-16.5 -78.5t-35.5 -70.5t-48.5 -58t-55 -41.5t-54.5 -20.5zM121 273q25 8 54.5 33
t53 57.5t37.5 67.5t8 62q-2 9 -9.5 17.5t-19.5 8.5q-29 0 -52.5 -22.5t-40 -57.5t-25 -79t-6.5 -87z" />
    <glyph glyph-name="j.fina" horiz-adv-x="554" 
d="M36 867q9 38 35 51t54 -9q15 -11 26 -28.5t17.5 -37.5t8 -41t-2.5 -40q-9 -41 -35.5 -53t-55.5 9q-29 23 -42 65.5t-5 83.5zM-45 -50q5 95 15 187t19 189q2 31 7.5 77.5t10 96t6.5 95.5t-2 78q-1 6 2 7.5t8.5 0t12.5 -5.5t14 -9q10 -5 24.5 -20t29 -33t26 -36t14.5 -30
q3 -15 3.5 -43.5t0 -61.5t-2.5 -65.5t-5 -55.5q-8 -70 -13.5 -141.5t-15.5 -143.5q19 11 36 22t33 22q29 21 56 50t45.5 67.5t25.5 87t-4 108.5q-5 25 -14 45.5t-19.5 36t-21.5 26t-18 17.5q-23 22 -20.5 40.5t29.5 25.5q33 5 65.5 -9t61 -41.5t50 -64.5t30.5 -78
q21 -89 6.5 -155.5t-49 -115.5t-82 -84.5t-92.5 -62.5q-29 -17 -62.5 -32.5t-69.5 -32.5l-27 -247q-14 -127 -59.5 -183t-114.5 -56q-30 0 -57.5 14t-50 38t-38.5 55.5t-25 65.5q-16 61 -2 112.5t48 95t83 79.5t103 68zM-134 -489q23 0 37.5 16.5t23 43.5t12 61.5t5 70.5
t1.5 71t2 62q-40 -21 -74 -45.5t-58 -53t-35 -61.5t-4 -72q7 -38 30.5 -65.5t59.5 -27.5z" />
    <glyph glyph-name="v.fina" horiz-adv-x="1067" 
d="M341 280q-2 -25 -11.5 -56t-24 -63.5t-35 -64t-45 -56t-54 -40t-61.5 -15.5q-48 -1 -76.5 33t-42 87t-13.5 118.5t10 127.5q4 27 9.5 57.5t10.5 61t10 59t8 52.5q1 5 2 14.5t1.5 20t0.5 20.5t-1 16q-3 13 8.5 10.5t27.5 -8.5q9 -4 27.5 -18t37 -31.5t33 -35t17.5 -29.5
q1 -3 -3 -25t-10.5 -53.5t-14.5 -69t-15 -71.5t-12 -60.5t-6 -35.5q-3 -24 -4.5 -48t-1 -43.5t4.5 -32t12 -13.5q24 -2 48 26t46 72.5t39.5 99t29.5 105.5q-15 37 -24.5 88.5t-0.5 108.5q3 22 9 43.5t16.5 38t26.5 25.5t40 8q27 -2 40 -24.5t15.5 -55.5t-3 -72.5t-13 -76.5
t-16 -66.5t-11.5 -42.5q17 -51 42 -85t54 -54t62 -28.5t66 -8.5q30 0 58 12t52 32.5t43.5 49t32.5 61.5q6 16 11 42t6.5 56t-1 62.5t-9.5 62.5t-20 54.5t-32 39.5q-11 8 -16.5 18.5t-4.5 19.5t8 14t22 1q52 -12 91.5 -55t65 -99t35.5 -116t1 -107q-14 -74 -48 -122.5
t-78.5 -77.5t-93.5 -41t-93 -11q-78 2 -150 48.5t-135 146.5z" />
    <glyph glyph-name="w.fina" horiz-adv-x="1336" 
d="M606 280q-3 -20 -11 -50.5t-21.5 -64t-32 -66.5t-42 -59.5t-52.5 -41.5t-63 -13q-54 4 -84 44t-41 100q-17 -32 -35.5 -58t-37 -45.5t-37 -30t-34.5 -10.5q-48 0 -76.5 34t-42 87t-13.5 118t10 127q4 27 9 57.5t10.5 61t10.5 59t8 52.5q1 5 2 14.5t1.5 20t0.5 20.5t-1 16
q-3 13 8.5 10.5t27.5 -8.5q9 -4 27.5 -18t37 -31.5t33 -35t17.5 -29.5q1 -3 -3 -25t-10.5 -53.5t-14.5 -69t-15 -71.5t-12 -60.5t-6 -35.5q-3 -24 -4.5 -48.5t-0.5 -44t4.5 -32t11.5 -12.5q11 0 26 12.5t31 33.5t31 50t27 62q1 26 3.5 52.5t7.5 52.5q4 27 9.5 57.5l11 61
t10.5 59t8 52.5q1 5 2 14.5t1.5 20t0.5 20.5t-1 16q-3 13 8.5 10.5t27.5 -8.5q9 -4 27.5 -18t37 -31.5t33 -35t17.5 -29.5q1 -3 -3 -25t-10.5 -53.5t-14.5 -69t-15 -71.5t-12 -60.5t-6 -35.5q-3 -24 -4.5 -48t-1 -43.5t4.5 -32t12 -13.5q24 -2 48 29t45 77.5t38 100t26 96.5
q-15 37 -26 88.5t-2 108.5q3 22 9 43.5t16.5 38t26.5 25.5t40 8q27 -2 40 -24.5t15.5 -55.5t-3 -72.5t-13 -76.5t-16 -66.5t-11.5 -42.5q17 -51 42 -85t54 -54t62 -28.5t66 -8.5q30 0 58 12t52 32.5t43.5 49t32.5 61.5q6 16 11 42t6.5 56t-1 62.5t-9.5 62.5t-20 54.5
t-32 39.5q-11 8 -16.5 18.5t-4.5 19.5t8 14t22 1q52 -12 91.5 -55t65 -99t35.5 -116t1 -107q-14 -74 -48 -122.5t-78.5 -77.5t-93.5 -41t-93 -11q-78 2 -150 48.5t-135 146.5z" />
    <glyph glyph-name="x.fina" horiz-adv-x="809" 
d="M101 109q-26 -43 -39.5 -86.5t-8.5 -95.5q1 -12 4 -18.5t6 -12t4 -11.5t-2 -15q-3 -12 -16 -17.5t-28.5 0t-31.5 25t-26 58.5q-6 24 1 53.5t24.5 62.5t42.5 68.5t54 72.5q-7 58 -8.5 120.5t-1.5 123.5l-21 -73q-3 -13 -12.5 -11.5t-18.5 11t-14 23.5t0 26l67 245
q4 17 27 28.5t49.5 17t48 4.5t21.5 -8q-2 -36 -4.5 -78.5t-4 -88t-3 -92t-1.5 -90.5q32 43 59 85.5t43.5 83.5t19.5 79t-12 73q-6 15 8 24t37 4t44.5 -30.5t29.5 -73.5q8 -42 -10 -83.5t-52 -83.5t-78 -85t-87 -89q2 -41 4 -88t11 -87.5t29.5 -68.5t59.5 -31
q40 -3 81.5 18.5t76.5 62t60.5 96.5t33 121.5t-6 137t-55.5 144.5q-21 26 -12 38t35 5q18 -5 43.5 -23.5t50.5 -47.5t46 -67t31 -80q20 -87 12.5 -159t-34.5 -129t-69 -98.5t-89 -68.5t-95.5 -40t-88.5 -12q-62 1 -104 18.5t-69 47.5t-41 72t-20 93z" />
    <glyph glyph-name="z.ini" horiz-adv-x="439" 
d="M100 504q-35 18 -54 44.5t-27 54t-8.5 53t2.5 40.5q8 48 30.5 75t45.5 28q20 1 36.5 -13.5t26 -36.5t11.5 -47.5t-6 -46.5l-26 -66q16 7 41.5 15t53 6.5t53.5 -17t44 -55.5q20 -45 20 -90.5t-12.5 -90t-34.5 -87t-46 -81.5q22 -8 39.5 -25t30.5 -39q23 36 40.5 71
t33 72.5t30 79.5t31.5 90q4 13 13.5 12t18 -10t13 -22.5t0.5 -25.5q-18 -47 -34 -92t-33 -87.5t-37 -83t-46 -79.5q16 -58 18.5 -122.5t-3.5 -119.5q-7 -62 -22 -115.5t-39 -93.5t-57 -62.5t-75 -22.5q-28 0 -48 12.5t-33.5 30.5t-21.5 37.5t-12 33.5q-12 47 -2 92.5
t35.5 91t62 92t76.5 96.5q-2 31 -5.5 49t-8 26t-9 10t-8.5 2q-5 -1 -11.5 -10.5t-12.5 -24.5t-11.5 -32.5t-8.5 -33.5q-5 -9 -18.5 -11t-28.5 2.5t-27 14.5t-12 23q-2 42 7 86.5t24 88t33 84t33.5 74t25.5 58.5t10 38q-1 20 -9.5 28t-22 11.5t-31 6.5t-38.5 14zM153 -403
q27 1 42.5 27t23.5 68t10.5 95t2.5 108q-29 -41 -52.5 -79.5t-39.5 -72t-23 -61t-2 -45.5q5 -19 14.5 -30.5t23.5 -9.5z" />
    <glyph glyph-name="j.swsh" horiz-adv-x="493" 
d="M437 -396q-57 -2 -104 21t-89 55.5t-81.5 68t-80.5 58.5l-22 -200q-8 -66 -25 -111t-41.5 -73t-56 -39.5t-68.5 -9.5q-31 1 -57.5 18t-47.5 43.5t-35 59.5t-20 67q-13 77 1.5 147.5t49.5 124t86.5 85.5t112.5 33q5 100 12 198t18 176q2 31 7.5 77.5t10 96t6.5 95.5t-2 78
q-1 6 2 7.5t8.5 0t12.5 -5.5t14 -9q10 -5 24.5 -20t29 -33t26 -36t14.5 -30q3 -15 3.5 -43.5t0 -61.5t-2.5 -65.5t-5 -55.5q-3 -24 -5.5 -51t-7 -70.5t-12 -109.5t-18.5 -166q41 -16 81.5 -36.5t78.5 -40.5t72.5 -36t64 -23t53 -2t39.5 28q10 16 19 18.5t22 -25.5
q9 -21 9.5 -54.5t-10 -66.5t-32 -57t-55.5 -25zM-59 -319q3 35 6 73t5 78q-48 -8 -86.5 -35t-63.5 -64.5t-35.5 -80.5t-3.5 -82q3 -19 10.5 -38t19.5 -34t27 -24.5t33 -9.5q27 0 42.5 19.5t24.5 50.5t13 70t8 77zM36 867q9 38 35 51t54 -9q15 -11 26 -28.5t17.5 -37.5t8 -41
t-2.5 -40q-9 -41 -35.5 -53t-55.5 9q-29 23 -42 65.5t-5 83.5z" />
    <glyph glyph-name="k.swsh" horiz-adv-x="469" 
d="M297 1023q-9 1 -18 -19.5t-18.5 -59.5t-21.5 -94t-27 -123q35 48 59.5 100t36.5 95.5t9.5 71.5t-20.5 29zM724 -455q-57 1 -115 36.5t-113 95t-105.5 136.5t-92.5 160t-74.5 167t-51.5 158q23 36 42.5 80t32.5 83t18 65.5t-1 26.5q-11 0 -24.5 -10.5t-27.5 -29.5
t-28.5 -45t-26.5 -56q-27 -163 -38.5 -243t-11.5 -86q0 -5 -0.5 -14t-0.5 -19.5t0.5 -20.5t1.5 -16q2 -18 -22.5 -23t-59.5 11q-25 12 -44.5 39.5t-21.5 61.5q-2 24 2 64t11.5 87t17 96t18 91.5t15.5 74.5t10 44q12 52 25 113.5t28.5 122t33.5 117t39.5 100t47.5 69t57 25.5
q27 0 46.5 -15t32 -37t17.5 -47.5t3 -47.5q-4 -49 -18.5 -95.5t-37 -87.5t-51 -75t-59.5 -58l-12 -70q27 37 54 59.5t52 22.5q38 0 62.5 -18t36 -47.5t11 -68t-12.5 -79.5t-36 -82t-58 -76q35 -121 70.5 -228t80 -186.5t103 -124t139.5 -38.5q27 2 49.5 22t38 49t23.5 63.5
t6 66.5q-3 25 14.5 13.5t36.5 -54.5q25 -61 29 -119t-13.5 -103.5t-54.5 -73t-93 -26.5z" />
    <glyph glyph-name="grave" unicode="`" horiz-adv-x="833" 
d="M407 763q-1 -6 -3 -16t-14 -8q-51 33 -96 71t-73 64q-12 13 -12.5 31.5t7 33t20.5 20.5t27 -7q18 -21 43 -50t47.5 -57.5t38.5 -51t15 -30.5z" />
    <glyph glyph-name="circumflex" unicode="&#x2c6;" horiz-adv-x="833" 
d="M230 788q1 0 13.5 11t32 26.5t42 33t43 31.5t36.5 22t21 4q4 -3 11 -16.5t14 -32t14.5 -39.5t13 -39t9.5 -30t4 -13q-2 -24 -14.5 -27t-23.5 16q-7 12 -11 20t-8 15.5t-9 16t-13 19.5q-17 -6 -36.5 -14.5t-40 -17.5t-40.5 -18.5t-36 -17.5q-15 -3 -21.5 4t-8 17t1 18.5
t6.5 10.5z" />
    <glyph glyph-name="tilde" unicode="&#x2dc;" horiz-adv-x="833" 
d="M346 788q-5 -10 -11.5 -12t-13 1.5t-11.5 12.5t-5 22q3 18 11 40.5t19.5 40t25.5 26t30 -1.5q11 -7 19 -22t15 -32t13 -34t13.5 -28t17 -13t22.5 10q11 11 20 26.5t14 35.5q4 12 11 15t14 -1t11.5 -14.5t2.5 -23.5q-5 -24 -15 -51t-24.5 -48t-33.5 -30t-41 4
q-12 7 -24 30t-23.5 46t-21.5 37.5t-18 5.5q-14 -17 -17 -42z" />
    <glyph glyph-name="macron" unicode="&#xaf;" horiz-adv-x="833" 
d="M310 745q-11 1 -14 11.5t-0.5 22.5t10 21.5t17.5 10.5h206q9 -4 11.5 -13.5t0 -20.5t-9 -20t-15.5 -12h-206v0z" />
    <glyph glyph-name="breve" unicode="&#x2d8;" horiz-adv-x="833" 
d="M296 907q0 13 4.5 19t10.5 4.5t11.5 -9t7.5 -21.5q1 -20 6.5 -37t13.5 -29.5t18.5 -18.5t22.5 -4t26 12.5t27 26t22.5 33.5t14.5 35q4 8 10 8.5t11.5 -4.5t8 -14t1.5 -19q-5 -21 -17 -48t-30 -50.5t-41 -39t-48 -12.5q-20 3 -34.5 17.5t-24 37.5t-14.5 52t-7 61z" />
    <glyph glyph-name="dotaccent" unicode="&#x2d9;" horiz-adv-x="833" 
d="M171 844q-5 32 7.5 54.5t35.5 22.5t41.5 -22.5t23.5 -54.5t-7.5 -54.5t-35.5 -22.5t-41.5 22.5t-23.5 54.5z" />
    <glyph glyph-name="ring" unicode="&#x2da;" horiz-adv-x="833" 
d="M323 847q3 22 9.5 43t16.5 38t23.5 29t30.5 17q22 5 41 -6t32 -32t19.5 -48.5t4.5 -55.5q-5 -42 -22 -77t-46 -49q-26 -13 -47 -5.5t-35.5 29t-21.5 52.5t-5 65zM365 832q-2 -26 2 -44t12.5 -27t21.5 -7t28 17q13 13 20 33.5t9 42.5q3 15 0.5 30.5t-9.5 26t-17 15
t-22 -2.5q-19 -11 -30.5 -33.5t-14.5 -50.5z" />
    <glyph glyph-name="cedilla" unicode="&#xb8;" horiz-adv-x="833" 
d="M314 32q11 0 28 -1.5t23 -1.5q0 -2 -4.5 -12.5t-10 -24t-11 -25.5t-6.5 -16q20 -3 39.5 -13t36.5 -30q18 -21 23 -47t1.5 -50t-15 -44t-27.5 -29q-31 -16 -64.5 -11t-68.5 22q-9 7 -11.5 17.5t-1 19.5t6.5 14t13 1q17 -9 35 -13.5t33.5 -3t27 8.5t14.5 22q3 16 -3 30.5
t-17.5 25t-26 16.5t-29.5 4q-13 1 -21 11.5t-3 30.5q10 25 21.5 50.5t17.5 48.5z" />
    <glyph glyph-name="hungarumlaut" unicode="&#x2dd;" horiz-adv-x="675" 
d="M216 763q-3 8 6 30.5t23 51t30.5 57.5t28.5 50q10 13 24.5 7t26 -20.5t16.5 -33t-3 -31.5q-20 -26 -53.5 -64t-75.5 -71q-11 -2 -16 8t-7 16zM29 763q-3 8 6 30.5t23 51t30.5 57.5t28.5 50q10 13 24.5 7t26 -20.5t16.5 -33t-3 -31.5q-20 -26 -53.5 -64t-75.5 -71
q-11 -2 -16 8t-7 16z" />
    <glyph glyph-name="ogonek" unicode="&#x2db;" horiz-adv-x="833" 
d="M319 34q1 3 8 5t16 2t18 -1t14 -2q-7 -9 -14.5 -25t-15 -34t-13 -34t-7.5 -25q-5 -24 4 -45.5t40 -34.5q12 -3 16 -12.5t2 -19.5t-9 -17t-17 -7q-19 10 -35.5 21.5t-28.5 27.5t-17 37t-1 50q6 29 16.5 56t23.5 58z" />
    <glyph glyph-name="caron" unicode="&#x2c7;" horiz-adv-x="833" 
d="M521 871q0 -2 -12.5 -13t-32 -26.5t-42.5 -32.5t-44 -31t-37 -21.5t-21 -3.5q-5 3 -11.5 16.5t-13.5 32t-14 39.5l-13 39t-9.5 30t-3.5 13q-2 26 10.5 31.5t26.5 -20.5q7 -12 11 -20t8 -15.5t9 -16t14 -19.5q16 6 35.5 14.5t40 17.5t40.5 18.5t37 17.5q11 1 18.5 -4.5
t10.5 -14t1 -17.5t-8 -14z" />
    <glyph glyph-name="Adieresis" unicode="&#xc4;" horiz-adv-x="1264" 
d="M325 -31q40 2 70 28.5t54 72.5t45 109.5t44.5 139.5t51 162t65.5 178q-58 28 -108 36t-80 6q-67 -6 -121 -34t-94 -72t-66.5 -101.5t-38.5 -121.5t-9 -132.5t21 -133.5q19 -70 62.5 -104t103.5 -33zM808 686q45 -42 79.5 -96.5t54.5 -121.5q13 88 34.5 180t47.5 180
t54.5 169t55.5 148q-83 -50 -163 -162.5t-163 -296.5zM700 762q57 123 115.5 223.5t122.5 173t135.5 116.5t154.5 55q13 1 25 -1.5t20.5 -11t11.5 -23t-3 -35.5q-11 -39 -27.5 -101t-34.5 -140t-37 -169t-35.5 -188t-29.5 -196t-19.5 -193t-5 -180t14.5 -156q2 -13 3 -24
t-2 -17t-10.5 -5t-21.5 13q-34 28 -60.5 62t-44.5 66.5t-28 60.5t-10 45q-1 17 -2 49.5t-6 73.5t-15 87.5t-28 90.5t-46 83.5t-68 66.5q-34 -94 -58.5 -193t-46.5 -193t-46 -178t-58 -148.5t-82.5 -104t-118.5 -44.5q-65 -4 -120.5 23.5t-100 75t-76.5 107.5t-48 122
q-20 79 -23.5 167t11.5 173t49.5 162.5t90.5 136.5t134 94t181 35q57 0 119.5 -14.5t123.5 -46.5zM1365 1495q-5 33 6.5 56t34.5 23t42 -23t24 -56q5 -32 -7.5 -54.5t-35.5 -22.5t-41 22.5t-23 54.5zM1199 1494q-5 32 6.5 55t34.5 23t42 -23t24 -55q5 -33 -7.5 -55
t-35.5 -22t-41 22t-23 55z" />
    <glyph glyph-name="Ccedilla" unicode="&#xc7;" horiz-adv-x="771" 
d="M795 456q4 11 12.5 11t17 -7t13.5 -18.5t1 -22.5q-34 -96 -66 -180t-71.5 -157.5t-91 -138t-124.5 -122.5q-17 -13 -38 -24.5t-45.5 -19.5t-51 -12t-52.5 -2q-5 -12 -9.5 -22.5t-5.5 -13.5q20 -3 39.5 -13t36.5 -30q18 -21 23.5 -47t1.5 -50t-15.5 -44t-27.5 -29
q-31 -16 -64.5 -11t-68.5 22q-9 7 -11.5 17.5t-1 19.5t6.5 14t13 1q18 -9 36 -13.5t33.5 -3t26.5 8.5t14 22q3 16 -3 30.5t-17 25t-26 16.5t-30 4q-13 1 -21 11.5t-3 30.5q6 16 13 31.5t13 31.5q-20 5 -39.5 15.5t-36.5 26.5q-24 22 -48.5 45t-47.5 52t-43 67t-34 91
q-21 74 -27.5 156.5t3 172t36 185.5t73.5 197q-63 29 -111 79t-65 122q-12 52 1 97.5t47 79.5t87 54t121 21q57 2 110.5 -10t99.5 -36q65 58 132 96t127 43q47 4 82 -11t58.5 -41.5t36 -62.5t14.5 -74t-6.5 -75.5t-25.5 -67.5q-33 -58 -80 -104.5t-102.5 -80.5t-117 -54
t-122.5 -24q-19 -2 -39 -2.5t-40 0.5q-42 -75 -75.5 -157.5t-52.5 -169t-21 -175.5t18 -178q11 -50 34.5 -77t48 -39.5t45 -15t26.5 -2.5q66 0 133.5 41t130 113.5t117.5 171.5t96 215zM470 981q-31 -35 -61 -74.5t-59 -84.5q2 0 2.5 0.5t2.5 0.5q54 4 112.5 21.5t111.5 47
t96.5 71t66.5 93.5q11 24 17.5 46.5t5.5 39t-10.5 26t-30.5 7.5q-35 -4 -90 -42t-118 -103q7 -21 10 -43.5t4 -48.5q0 -17 -7.5 -23.5t-17.5 -4t-19 12.5t-12 26q0 8 -1 16.5t-3 15.5zM-1 981q8 -42 45 -70.5t85 -48.5q13 23 26.5 45.5t27.5 45.5q28 45 61.5 88.5t71.5 84.5
q-31 8 -64 11.5t-66 2.5q-37 -1 -73 -16t-63 -38t-42 -51t-9 -54z" />
    <glyph glyph-name="Atilde" unicode="&#xc3;" horiz-adv-x="1264" 
d="M325 -31q40 2 70 28.5t54 72.5t45 109.5t44.5 139.5t51 162t65.5 178q-58 28 -108 36t-80 6q-67 -6 -121 -34t-94 -72t-66.5 -101.5t-38.5 -121.5t-9 -132.5t21 -133.5q19 -70 62.5 -104t103.5 -33zM808 686q45 -42 79.5 -96.5t54.5 -121.5q13 88 34.5 180t47.5 180
t54.5 169t55.5 148q-83 -50 -163 -162.5t-163 -296.5zM700 762q57 123 115.5 223.5t122.5 173t135.5 116.5t154.5 55q13 1 25 -1.5t20.5 -11t11.5 -23t-3 -35.5q-11 -39 -27.5 -101t-34.5 -140t-37 -169t-35.5 -188t-29.5 -196t-19.5 -193t-5 -180t14.5 -156q2 -13 3 -24
t-2 -17t-10.5 -5t-21.5 13q-34 28 -60.5 62t-44.5 66.5t-28 60.5t-10 45q-1 17 -2 49.5t-6 73.5t-15 87.5t-28 90.5t-46 83.5t-68 66.5q-34 -94 -58.5 -193t-46.5 -193t-46 -178t-58 -148.5t-82.5 -104t-118.5 -44.5q-65 -4 -120.5 23.5t-100 75t-76.5 107.5t-48 122
q-20 79 -23.5 167t11.5 173t49.5 162.5t90.5 136.5t134 94t181 35q57 0 119.5 -14.5t123.5 -46.5zM1210 1445q-5 -10 -11.5 -12.5t-13 1.5t-11 13t-4.5 22q3 18 10.5 40t19 40t25.5 26.5t30 -1.5q11 -7 19.5 -22t15 -32l13 -34t14 -28t16.5 -13t22 10q11 11 20 26t14 35
q4 13 11.5 16t14 -1.5t11 -14.5t3.5 -24q-5 -24 -15 -51t-25 -47.5t-34 -29.5t-41 4q-12 7 -24 30t-23.5 46t-21.5 37.5t-18 5.5q-12 -15 -17 -42z" />
    <glyph glyph-name="dotlessi" unicode="&#x131;" horiz-adv-x="289" 
d="M109 -17q-34 -1 -57.5 19t-38 54.5t-21 79.5t-7 94.5t4.5 99t13 93.5q4 25 10.5 59.5t11.5 70t7.5 66.5t-0.5 50q-2 13 10 8t26 -15q10 -5 24.5 -20t29 -33t26 -36t14.5 -30q3 -15 2 -42.5t-4 -59t-8 -62.5t-9 -53q-8 -37 -13.5 -79t-7.5 -77.5t0 -58.5t9 -23
q15 1 31 19.5t32 48t31.5 66.5t29.5 75.5t26.5 75t22.5 64.5q4 12 13.5 11.5t18 -9t13 -21.5t0.5 -25q-11 -31 -25 -73.5t-31 -88t-37 -89.5t-43 -79t-49 -57t-55 -23z" />
    <glyph glyph-name="Ecircumflex" unicode="&#xca;" horiz-adv-x="836" 
d="M780 1011q-21 -9 -35.5 -3t-21 19t-3.5 29t18 25q10 7 16.5 17t5 22t-13 26t-36.5 31q-24 16 -69.5 20t-99 -3t-108.5 -25t-97 -46.5t-64 -68t-11 -88.5q8 -34 33.5 -59t59.5 -44t73 -34.5t75 -30.5t63.5 -31.5t39.5 -38.5q16 -30 24 -49.5t11.5 -34t4.5 -26.5t4 -26
q-58 -3 -123 -22t-127.5 -52t-118.5 -79t-95 -104t-56.5 -126t-3.5 -145q8 -44 28.5 -79.5t47.5 -60.5t56 -38.5t53 -11.5q80 5 159.5 47.5t152 117.5t133.5 181t105 238q4 12 13 11.5t17 -7.5t13 -19t2 -24q-30 -101 -66.5 -193t-84.5 -174.5t-112 -153.5t-150 -129
q-37 -25 -84.5 -38.5t-99.5 -12t-104.5 21t-97.5 60.5t-79 106t-49 158q-21 122 -8.5 216t46 164t84 119.5t105.5 82.5t110 52.5t98 29.5q-49 1 -98 18t-90.5 47t-72 70.5t-42.5 89.5q-21 82 -5 155.5t65 130.5t128 93.5t184 45.5q28 2 61 3t67.5 -2.5t68 -15t62.5 -34
t51 -59t34 -90.5q6 -26 6.5 -52t-5 -49t-17 -41t-30.5 -27zM508 1511q1 0 13.5 10.5t32 26t42.5 33t43.5 31.5t36.5 22t21 4q4 -3 11 -16t14 -31.5t14 -39.5l13 -39t9.5 -30t3.5 -13q-2 -25 -14.5 -28t-22.5 16q-7 12 -11 20t-8.5 16t-9.5 16t-13 20q-17 -6 -36.5 -15
t-40 -18t-40.5 -18.5t-36 -17.5q-15 -3 -21.5 4t-8 17t1 19t6.5 11z" />
    <glyph glyph-name="Edieresis" unicode="&#xcb;" horiz-adv-x="836" 
d="M780 1011q-21 -9 -35.5 -3t-21 19t-3.5 29t18 25q10 7 16.5 17t5 22t-13 26t-36.5 31q-24 16 -69.5 20t-99 -3t-108.5 -25t-97 -46.5t-64 -68t-11 -88.5q8 -34 33.5 -59t59.5 -44t73 -34.5t75 -30.5t63.5 -31.5t39.5 -38.5q16 -30 24 -49.5t11.5 -34t4.5 -26.5t4 -26
q-58 -3 -123 -22t-127.5 -52t-118.5 -79t-95 -104t-56.5 -126t-3.5 -145q8 -44 28.5 -79.5t47.5 -60.5t56 -38.5t53 -11.5q80 5 159.5 47.5t152 117.5t133.5 181t105 238q4 12 13 11.5t17 -7.5t13 -19t2 -24q-30 -101 -66.5 -193t-84.5 -174.5t-112 -153.5t-150 -129
q-37 -25 -84.5 -38.5t-99.5 -12t-104.5 21t-97.5 60.5t-79 106t-49 158q-21 122 -8.5 216t46 164t84 119.5t105.5 82.5t110 52.5t98 29.5q-49 1 -98 18t-90.5 47t-72 70.5t-42.5 89.5q-21 82 -5 155.5t65 130.5t128 93.5t184 45.5q28 2 61 3t67.5 -2.5t68 -15t62.5 -34
t51 -59t34 -90.5q6 -26 6.5 -52t-5 -49t-17 -41t-30.5 -27zM690 1522q-5 32 6.5 55t34.5 23t42 -23t24 -55q5 -33 -7.5 -55t-35.5 -22t-41 22t-23 55zM524 1520q-5 33 6.5 56t34.5 23t42 -23t24 -56q5 -32 -7.5 -54.5t-35.5 -22.5t-41 22.5t-23 54.5z" />
    <glyph glyph-name="iacute" unicode="&#xed;" horiz-adv-x="289" 
d="M109 -17q-34 -1 -57.5 19t-38 54.5t-21 79.5t-7 94.5t4.5 99t13 93.5q4 25 10.5 59.5t11.5 70t7.5 66.5t-0.5 50q-2 13 10 8t26 -15q10 -5 24.5 -20t29 -33t26 -36t14.5 -30q3 -15 2 -42.5t-4 -59t-8 -62.5t-9 -53q-8 -37 -13.5 -79t-7.5 -77.5t0 -58.5t9 -23
q15 1 31 19.5t32 48t31.5 66.5t29.5 75.5t26.5 75t22.5 64.5q4 12 13.5 11.5t18 -9t13 -21.5t0.5 -25q-11 -31 -25 -73.5t-31 -88t-37 -89.5t-43 -79t-49 -57t-55 -23zM69 746q-3 8 5.5 31t23 51.5t30.5 57.5t28 49q11 13 25.5 7t26 -20.5t16.5 -33t-3 -31.5
q-20 -26 -53.5 -64t-75.5 -71q-11 -2 -16 8t-7 16z" />
    <glyph glyph-name="igrave" unicode="&#xec;" horiz-adv-x="289" 
d="M109 -17q-34 -1 -57.5 19t-38 54.5t-21 79.5t-7 94.5t4.5 99t13 93.5q4 25 10.5 59.5t11.5 70t7.5 66.5t-0.5 50q-2 13 10 8t26 -15q10 -5 24.5 -20t29 -33t26 -36t14.5 -30q3 -15 2 -42.5t-4 -59t-8 -62.5t-9 -53q-8 -37 -13.5 -79t-7.5 -77.5t0 -58.5t9 -23
q15 1 31 19.5t32 48t31.5 66.5t29.5 75.5t26.5 75t22.5 64.5q4 12 13.5 11.5t18 -9t13 -21.5t0.5 -25q-11 -31 -25 -73.5t-31 -88t-37 -89.5t-43 -79t-49 -57t-55 -23zM133 743q-1 -6 -3 -15.5t-14 -7.5q-26 16 -50 34t-45.5 36t-40 34.5t-32.5 29.5q-12 13 -12.5 31.5t7 33
t20.5 20.5t27 -7q18 -20 42.5 -49t47 -57.5t38.5 -51.5t15 -31z" />
    <glyph glyph-name="idieresis" unicode="&#xef;" horiz-adv-x="289" 
d="M109 -17q-34 -1 -57.5 19t-38 54.5t-21 79.5t-7 94.5t4.5 99t13 93.5q4 25 10.5 59.5t11.5 70t7.5 66.5t-0.5 50q-2 13 10 8t26 -15q10 -5 24.5 -20t29 -33t26 -36t14.5 -30q3 -15 2 -42.5t-4 -59t-8 -62.5t-9 -53q-8 -37 -13.5 -79t-7.5 -77.5t0 -58.5t9 -23
q15 1 31 19.5t32 48t31.5 66.5t29.5 75.5t26.5 75t22.5 64.5q4 12 13.5 11.5t18 -9t13 -21.5t0.5 -25q-11 -31 -25 -73.5t-31 -88t-37 -89.5t-43 -79t-49 -57t-55 -23zM137 833q-5 32 7 55t35 23t41.5 -23t23.5 -55t-7.5 -54.5t-35.5 -22.5t-41 22.5t-23 54.5zM-28 832
q-5 32 6.5 55t33.5 23q23 0 42 -23t24 -55q5 -33 -7.5 -55t-35.5 -22t-40.5 22t-22.5 55z" />
    <glyph glyph-name="ntilde" unicode="&#xf1;" horiz-adv-x="512" 
d="M375 283q-9 -34 -15 -69t-8.5 -63t-1.5 -45.5t7 -17.5q13 0 28 18.5t30.5 48.5t31 67.5t30 76t27.5 75t23 63.5q4 12 13.5 11.5t18 -9t13 -21.5t0.5 -25q-11 -30 -25 -71.5t-31.5 -87t-38 -90t-43.5 -80t-48.5 -57.5t-52.5 -22q-46 0 -74 30.5t-39.5 80.5t-8 112.5
t19.5 127.5q11 42 20 81t14 68.5t5.5 47.5t-5.5 19q-10 0 -24.5 -11t-31 -30.5t-33 -46.5t-29.5 -58q-5 -29 -12 -55.5t-13 -52.5q-22 -85 -34 -137.5t-14 -77.5q-1 -5 -1.5 -14t-1.5 -19.5t-1 -20.5v-16q1 -18 -23.5 -23t-57.5 11q-25 12 -42.5 39.5t-17.5 61.5
q0 24 9 64.5t21.5 89.5t26 104t24 108.5t14 103.5t-3.5 89q-3 14 16 8t43.5 -23t46.5 -41t25 -46q2 -13 2.5 -24t1.5 -23l2 16q37 56 75 91t69 35q57 0 81.5 -35t28.5 -89.5t-8 -120t-28 -126.5zM131 805q-5 -10 -11.5 -12.5t-12.5 1.5t-11 13t-5 22q3 18 11 40t19.5 40
t25.5 26.5t30 -1.5q11 -7 19 -22t15 -32t13 -34t13.5 -28t17 -13t22.5 10q11 11 20 26t14 35q4 13 11 16t13.5 -1t11 -14.5t3.5 -23.5q-5 -24 -15 -51t-25 -48t-34 -30t-41 4q-11 7 -23 30t-23.5 46t-22 37.5t-18.5 5.5q-12 -15 -17 -42z" />
    <glyph glyph-name="fi" unicode="&#xfb01;" horiz-adv-x="672" 
d="M492 -17q-30 -1 -52 14.5t-37 43.5t-23 65.5t-11 79.5q-14 -30 -30 -58.5t-34 -51t-38 -38t-43 -21.5q-2 -53 -9 -110t-18.5 -110.5t-27 -101t-33.5 -83t-39 -56.5t-43 -21q-43 0 -70 30t-41.5 81t-18 119.5t1 145t14.5 156.5t22.5 155.5t25.5 142t23 114.5
q10 53 26.5 119.5t37.5 135.5t45.5 134.5t52 116.5t57 83t59.5 34q29 2 53 -18t35 -75q11 -56 8 -124t-18 -138.5t-38.5 -140t-53.5 -129t-63.5 -104.5t-66.5 -66q-2 -7 -3 -14t-3 -13q37 -1 57 -45.5t26 -114.5q20 12 40.5 37t40.5 58.5t38.5 73.5t35.5 83l9 51
q4 25 10.5 59.5t11.5 70t7.5 66.5t-0.5 50q-2 13 10 8t26 -15q10 -5 24.5 -20t29 -33t26 -36t14.5 -30q3 -15 2 -42.5t-4 -59t-8 -62.5t-9 -53q-8 -37 -13.5 -79t-7.5 -77.5t0 -58.5t9 -23q15 1 31 19.5t32 48t31.5 66.5t29.5 75.5t26.5 75t22.5 64.5q4 12 13.5 11.5t18 -9
t13 -21.5t0.5 -25q-11 -31 -25 -73.5t-31 -88t-37 -89.5t-43 -79t-49 -57t-55 -23zM158 20q-22 6 -38 18t-27 29q-16 -76 -30.5 -152.5t-22 -137.5t-5.5 -99t18 -38q19 1 36.5 38.5t31 94t23.5 122.5t14 125zM322 1001q-7 1 -17.5 -28.5t-24 -78t-28.5 -110.5t-29.5 -126
t-28.5 -124.5t-24 -105.5q26 36 60 106t61 159q17 54 26.5 108t13 98.5t1 72.5t-9.5 29zM439 867q9 38 35 51t54 -9q15 -11 26 -28.5t17.5 -37.5t8 -41t-2.5 -40q-9 -41 -35.5 -53t-55.5 9q-29 23 -42 65.5t-5 83.5z" />
    <glyph glyph-name="fl" unicode="&#xfb02;" horiz-adv-x="726" 
d="M549 -15q-36 0 -65 15t-51 42.5t-37.5 65t-24.5 82.5q-14 -32 -30 -60.5t-34 -52t-39 -39t-44 -21.5q-2 -53 -9 -110t-18.5 -110.5t-27 -101t-33.5 -83t-39 -56.5t-43 -21q-43 0 -70 30t-41.5 81t-18 119.5t1 145t14.5 156.5t22.5 155.5t25.5 142t23 114.5
q10 53 26.5 119.5t37.5 135.5t45.5 134.5t52 116.5t57 83t59.5 34q29 2 53 -18t35 -75q11 -56 8 -124t-18 -138.5t-38.5 -140t-53.5 -129t-63.5 -104.5t-66.5 -66q-2 -7 -3 -14t-3 -13q37 -1 57 -45.5t26 -114.5q34 21 69 76t66 126q-2 58 3.5 119.5t16.5 121.5
q10 52 22.5 112t28.5 118.5t35 112.5t42 95t49.5 65.5t57.5 24.5q27 -1 47 -16t33 -36.5t19.5 -47t5.5 -47.5q-1 -40 -9.5 -91t-23.5 -106t-35 -110t-44 -103t-50.5 -85t-53.5 -56q-9 -60 -6 -115.5t12.5 -97.5t22.5 -67t22 -25q22 0 42 18t37.5 47.5t33 67t29 76.5
t25.5 75.5t22 64.5q4 12 13.5 11.5t18 -9t13 -21.5t0.5 -25q-11 -31 -25 -73.5t-30.5 -88t-36 -89.5t-42 -79t-48.5 -56.5t-55 -21.5zM158 20q-22 6 -38 18t-27 29q-16 -76 -30.5 -152.5t-22 -137.5t-5.5 -99t18 -38q19 1 36.5 38.5t31 94t23.5 122.5t14 125zM322 1001
q-7 1 -17.5 -28.5t-24 -78t-28.5 -110.5t-29.5 -126t-28.5 -124.5t-24 -105.5q26 36 60 106t61 159q17 54 26.5 108t13 98.5t1 72.5t-9.5 29zM651 1011q-6 0 -16 -24t-21.5 -64t-24 -91.5t-24.5 -107t-23 -110t-19 -99.5q23 27 45 74t41.5 102t33.5 111.5t20.5 103t4 75.5
t-16.5 30z" />
    <glyph glyph-name="Euro" unicode="&#x20ac;" horiz-adv-x="607" 
d="M62 442q-15 4 -22.5 22t-7.5 38t8 37t24 18h41q18 57 44.5 104.5t57.5 82t66 53.5t71 19q28 0 56.5 -10.5t53.5 -35.5t45.5 -67.5t31.5 -106.5q-13 -9 -34.5 -7.5t-42 8.5t-35.5 17t-14 19q-3 24 -10.5 38t-19.5 14q-20 0 -46 -34t-51 -94h84q13 -8 19 -24.5t5.5 -34.5
t-7.5 -34t-19 -22h-122q-4 -14 -7.5 -27.5t-6.5 -28.5l-7 -26h127q14 -8 20 -25t5.5 -35t-7.5 -33.5t-19 -21.5h-147q-9 -69 -2 -113t30 -44q14 0 31 17t35 49q2 13 26 23.5t54.5 13.5t59.5 -4.5t41 -29.5q-20 -41 -44.5 -74.5t-51.5 -57.5t-56 -37t-59 -13q-37 0 -69 20
t-56.5 56t-41 85.5t-22.5 108.5h-26q-16 4 -23.5 22t-7 38t8.5 37t23 18h23q0 15 3 35q1 11 2 23.5t3 23.5h-15v0z" />
    <glyph glyph-name="fraction" unicode="&#x2044;" horiz-adv-x="423" 
d="M236 1102q3 11 12.5 15t20 2t19.5 -9.5t10 -20.5q-32 -277 -66.5 -551t-65.5 -551q-2 -14 -12 -19t-21.5 -3.5t-21 10t-9.5 22.5q32 277 67.5 552.5t66.5 552.5z" />
    <glyph glyph-name="Aring" unicode="&#xc5;" horiz-adv-x="1264" 
d="M325 -31q40 2 70 28.5t54 72.5t45 109.5t44.5 139.5t51 162t65.5 178q-58 28 -108 36t-80 6q-67 -6 -121 -34t-94 -72t-66.5 -101.5t-38.5 -121.5t-9 -132.5t21 -133.5q19 -70 62.5 -104t103.5 -33zM808 686q45 -42 79.5 -96.5t54.5 -121.5q13 88 34.5 180t47.5 180
t54.5 169t55.5 148q-83 -50 -163 -162.5t-163 -296.5zM700 762q57 123 115.5 223.5t122.5 173t135.5 116.5t154.5 55q13 1 25 -1.5t20.5 -11t11.5 -23t-3 -35.5q-11 -39 -27.5 -101t-34.5 -140t-37 -169t-35.5 -188t-29.5 -196t-19.5 -193t-5 -180t14.5 -156q2 -13 3 -24
t-2 -17t-10.5 -5t-21.5 13q-34 28 -60.5 62t-44.5 66.5t-28 60.5t-10 45q-1 17 -2 49.5t-6 73.5t-15 87.5t-28 90.5t-46 83.5t-68 66.5q-34 -94 -58.5 -193t-46.5 -193t-46 -178t-58 -148.5t-82.5 -104t-118.5 -44.5q-65 -4 -120.5 23.5t-100 75t-76.5 107.5t-48 122
q-20 79 -23.5 167t11.5 173t49.5 162.5t90.5 136.5t134 94t181 35q57 0 119.5 -14.5t123.5 -46.5zM1227 1529q3 22 9.5 43t16.5 38t23.5 29t30.5 17q22 5 40.5 -6t32 -32t20 -49t4.5 -56q-5 -42 -22 -76.5t-46 -49.5q-26 -13 -47 -5t-35.5 29.5t-21.5 52.5t-5 65zM1269 1513
q-2 -26 2 -44t12.5 -26.5t21.5 -6.5t28 17q12 13 19.5 33t9.5 43q2 15 -0.5 30t-9 26t-16.5 15t-22 -3q-19 -11 -30.5 -33t-14.5 -51z" />
    <glyph glyph-name="Eacute" unicode="&#xc9;" horiz-adv-x="836" 
d="M780 1011q-21 -9 -35.5 -3t-21 19t-3.5 29t18 25q10 7 16.5 17t5 22t-13 26t-36.5 31q-24 16 -69.5 20t-99 -3t-108.5 -25t-97 -46.5t-64 -68t-11 -88.5q8 -34 33.5 -59t59.5 -44t73 -34.5t75 -30.5t63.5 -31.5t39.5 -38.5q16 -30 24 -49.5t11.5 -34t4.5 -26.5t4 -26
q-58 -3 -123 -22t-127.5 -52t-118.5 -79t-95 -104t-56.5 -126t-3.5 -145q8 -44 28.5 -79.5t47.5 -60.5t56 -38.5t53 -11.5q80 5 159.5 47.5t152 117.5t133.5 181t105 238q4 12 13 11.5t17 -7.5t13 -19t2 -24q-30 -101 -66.5 -193t-84.5 -174.5t-112 -153.5t-150 -129
q-37 -25 -84.5 -38.5t-99.5 -12t-104.5 21t-97.5 60.5t-79 106t-49 158q-21 122 -8.5 216t46 164t84 119.5t105.5 82.5t110 52.5t98 29.5q-49 1 -98 18t-90.5 47t-72 70.5t-42.5 89.5q-21 82 -5 155.5t65 130.5t128 93.5t184 45.5q28 2 61 3t67.5 -2.5t68 -15t62.5 -34
t51 -59t34 -90.5q6 -26 6.5 -52t-5 -49t-17 -41t-30.5 -27zM512 1457q-3 8 5.5 31t23 51.5t30.5 57.5t28 49q11 13 25.5 7t26 -20.5t16.5 -33t-3 -31.5q-10 -13 -23.5 -29.5t-30 -34.5t-35.5 -36t-40 -34q-11 -2 -16 7.5t-7 15.5z" />
    <glyph glyph-name="Ntilde" unicode="&#xd1;" horiz-adv-x="972" 
d="M347 -20q-1 -32 -3 -52t-9 -25.5t-21.5 5.5t-39.5 40q-17 20 -38.5 47t-40 56t-31 57t-12.5 50q1 67 11 146.5t28 165.5t44 176t59.5 178t74.5 171.5t90 156.5q-44 6 -100.5 -19t-114 -70t-111 -104.5t-92 -122.5t-56.5 -125t-5 -112q4 -15 9.5 -31.5t13.5 -31.5
t18 -25.5t24 -13.5q13 -3 20.5 -13.5t9 -22t-4 -19t-19.5 -4.5q-19 1 -48 8t-59.5 28t-59 60t-46.5 106q-21 75 -9 144.5t47 131.5t88 115t114 96t124.5 75t119.5 50t100 22t65 -8q27 -15 43 -36t23.5 -43.5t7 -46t-7.5 -44.5q-17 -53 -37 -113t-40.5 -124t-39.5 -128.5
t-35 -124.5q41 83 85.5 162.5t90 151.5t91 134.5t88 111t81 81t70.5 44.5q43 17 73.5 3t48.5 -42t24 -61t2 -54q-4 -19 -21 -63t-40.5 -108t-50.5 -145.5t-51 -175t-42.5 -197t-25 -211t1.5 -217.5t38 -216q4 -14 8 -27t3 -21t-8.5 -9.5t-26.5 8.5q-34 18 -80 49.5t-85 82.5
q-18 22 -26 42t-12 56q-18 140 -4.5 276t42.5 259t67.5 228t71 183t51.5 124.5t11 51.5q-16 10 -45 -15t-66.5 -74t-80.5 -118t-86 -147.5t-83.5 -161.5t-74 -161t-56.5 -145.5t-31 -115.5q-8 -70 -6.5 -117t0.5 -72zM611 1417q-5 -10 -11.5 -12.5t-12.5 1.5t-11 13t-5 22
q3 18 11 40t19.5 40t25.5 26.5t30 -1.5q11 -7 19 -22t15 -32t13 -34t13.5 -28t17 -13t22.5 10q11 11 20 26t14 35q4 13 11 16t13.5 -1.5t11 -14.5t3.5 -24q-5 -24 -15 -51t-25 -47.5t-34 -29.5t-41 4q-8 5 -16 17t-15.5 27.5t-15 31.5t-15 27.5t-14 16.5t-11.5 -1
q-12 -15 -17 -42z" />
    <glyph glyph-name="Odieresis" unicode="&#xd6;" horiz-adv-x="1004" 
d="M403 1362q11 7 27.5 -17.5t30.5 -63.5q49 36 97 45q53 10 104 -2t95 -45t80 -87t59 -127q39 -126 48.5 -242t-1.5 -224t-37.5 -208.5t-59.5 -194.5q-37 -100 -91.5 -184t-116.5 -146t-127 -99t-123 -43q-66 -7 -127 7.5t-113.5 53.5t-94.5 105t-70 163q-37 127 -37 261.5
t27 266t75.5 254.5t107.5 226t123.5 181t123.5 120zM543 483q-13 -53 -40 -84.5t-61.5 -44t-72.5 -5t-72.5 33.5t-62 70.5t-41.5 106.5l-2 7q-29 -75 -52 -156t-35 -161.5t-9.5 -156t23.5 -138.5q14 -41 34 -63.5t41.5 -33t42.5 -12.5t36 0q58 5 116.5 45t113.5 105.5
t105 151.5t91 182.5t71 199.5t45.5 202t14 190t-23.5 164q-22 74 -57.5 101t-77.5 19.5t-87.5 -44t-88 -90.5t-79.5 -120t-61.5 -131.5t-33 -125t4.5 -101.5q13 -43 36.5 -61.5t49 -21.5t48.5 6t34 22q9 10 19.5 9t19 -10t12 -23.5t-0.5 -31.5zM700 1459q-5 32 7 55t35 23
t41.5 -23t23.5 -55q5 -33 -7.5 -55t-35.5 -22t-41 22t-23 55zM535 1457q-5 33 6 56t34 23t42.5 -23t24.5 -56q5 -32 -7.5 -54.5t-35.5 -22.5t-41 22.5t-23 54.5z" />
    <glyph glyph-name="Udieresis" unicode="&#xdc;" horiz-adv-x="1167" 
d="M1038 1254q12 23 35 32t46 4t40 -24t17 -51q-12 -31 -28 -94t-33 -147.5t-33.5 -186t-30 -210.5t-23 -219.5t-11.5 -212.5t4.5 -191.5t23.5 -155.5q3 -11 3.5 -21t-2.5 -15.5t-11 -4.5t-21 12q-33 26 -63 59.5t-53 67t-38 62.5t-18 46q-9 51 -10.5 116.5t2.5 140.5
t13 156.5t21 164.5q-30 -89 -64 -181t-72.5 -177.5t-82.5 -160.5t-95 -130.5t-109 -87t-124 -30.5q-50 1 -87 27.5t-62 63t-39.5 75.5t-19.5 64q-10 51 -1.5 120t30 149t53.5 168t68.5 176t75 173t73.5 159.5t63 135t44 100.5q-44 5 -101.5 -15t-117 -58t-115 -89t-96 -107
t-60 -113.5t-6.5 -107.5q4 -15 9.5 -30.5t12.5 -29t16.5 -24t22.5 -16.5q13 -5 20.5 -17.5t8 -25t-5.5 -21.5t-20 -6q-19 2 -50 9.5t-64.5 29.5t-64.5 62.5t-50 108.5q-28 99 -7.5 180.5t74.5 145.5t132.5 110t166.5 74.5t177 39.5t164 5q31 -3 49.5 -12t27.5 -23t9 -32
t-7 -39q-4 -11 -19 -53.5t-38 -107t-51 -145.5t-57.5 -170.5t-59 -182.5t-54 -180.5t-43 -164.5t-26 -134.5t-2.5 -91.5t26 -34q47 -1 96 34t98 94.5t96 138.5t90.5 166t82.5 176.5t71.5 170t57 146.5t38.5 107q23 87 45.5 154.5t42.5 105.5zM911 1462q-5 32 6.5 55t34.5 23
q22 0 41.5 -23t24.5 -55q5 -33 -7.5 -55t-35.5 -22t-41 22t-23 55zM745 1460q-5 33 6 56t34 23t42.5 -23t24.5 -56q5 -32 -7.5 -54.5t-35.5 -22.5t-41 22.5t-23 54.5z" />
    <glyph glyph-name="aacute" unicode="&#xe1;" horiz-adv-x="497" 
d="M558 393q-12 -32 -24 -74.5t-26.5 -88t-30.5 -89.5t-35.5 -78.5t-43 -56t-50.5 -21.5q-32 0 -55 15.5t-38.5 41.5t-24 60t-11.5 72q-17 -37 -35.5 -70t-39 -58t-41.5 -39.5t-43 -12.5q-32 2 -52 33.5t-30 80.5t-9.5 110.5t10.5 125t29.5 123t47.5 104t64.5 69t80.5 18.5
q33 -5 57 -17t40.5 -28t26 -35t14.5 -38q4 -15 -0.5 -37.5t-12.5 -37.5t-16 -15t-11 30q-4 38 -33 39q-24 2 -51 -20t-58 -86q-9 -17 -17 -45t-15 -59.5t-12.5 -63.5t-7.5 -57.5t-0.5 -41.5t7.5 -16q5 0 19 24.5t32 60.5t37 78t35 77q8 29 17.5 46.5t20.5 16.5
q9 -1 26.5 -17.5t34 -37.5t27.5 -41t6 -28q-1 -2 -4 -19t-6 -41.5t-5 -52.5t-2 -52t4 -40t14 -16q13 0 26 18t25.5 47t25 66.5t24.5 76.5t23 75.5t21 65.5q4 12 13.5 11.5t18 -9t13 -21.5t0.5 -25zM197 767q-3 8 6 31t23 51.5t30.5 57.5t28.5 49q10 13 24.5 7t26 -20.5
t16.5 -33t-3 -31.5q-20 -26 -53.5 -64t-75.5 -71q-5 -1 -9 1.5t-6.5 6.5t-4.5 8.5t-3 7.5z" />
    <glyph glyph-name="agrave" unicode="&#xe0;" horiz-adv-x="497" 
d="M558 393q-12 -32 -24 -74.5t-26.5 -88t-30.5 -89.5t-35.5 -78.5t-43 -56t-50.5 -21.5q-32 0 -55 15.5t-38.5 41.5t-24 60t-11.5 72q-17 -37 -35.5 -70t-39 -58t-41.5 -39.5t-43 -12.5q-32 2 -52 33.5t-30 80.5t-9.5 110.5t10.5 125t29.5 123t47.5 104t64.5 69t80.5 18.5
q33 -5 57 -17t40.5 -28t26 -35t14.5 -38q4 -15 -0.5 -37.5t-12.5 -37.5t-16 -15t-11 30q-4 38 -33 39q-24 2 -51 -20t-58 -86q-9 -17 -17 -45t-15 -59.5t-12.5 -63.5t-7.5 -57.5t-0.5 -41.5t7.5 -16q5 0 19 24.5t32 60.5t37 78t35 77q8 29 17.5 46.5t20.5 16.5
q9 -1 26.5 -17.5t34 -37.5t27.5 -41t6 -28q-1 -2 -4 -19t-6 -41.5t-5 -52.5t-2 -52t4 -40t14 -16q13 0 26 18t25.5 47t25 66.5t24.5 76.5t23 75.5t21 65.5q4 12 13.5 11.5t18 -9t13 -21.5t0.5 -25zM208 763q-1 -6 -3 -16t-14 -8q-51 33 -96 71t-73 64q-12 13 -12 31.5t7 33
t20 20.5t27 -7q18 -21 43 -50t47.5 -57.5t38.5 -51t15 -30.5z" />
    <glyph glyph-name="acircumflex" unicode="&#xe2;" horiz-adv-x="497" 
d="M558 393q-12 -32 -24 -74.5t-26.5 -88t-30.5 -89.5t-35.5 -78.5t-43 -56t-50.5 -21.5q-32 0 -55 15.5t-38.5 41.5t-24 60t-11.5 72q-17 -37 -35.5 -70t-39 -58t-41.5 -39.5t-43 -12.5q-32 2 -52 33.5t-30 80.5t-9.5 110.5t10.5 125t29.5 123t47.5 104t64.5 69t80.5 18.5
q33 -5 57 -17t40.5 -28t26 -35t14.5 -38q4 -15 -0.5 -37.5t-12.5 -37.5t-16 -15t-11 30q-4 38 -33 39q-24 2 -51 -20t-58 -86q-9 -17 -17 -45t-15 -59.5t-12.5 -63.5t-7.5 -57.5t-0.5 -41.5t7.5 -16q5 0 19 24.5t32 60.5t37 78t35 77q8 29 17.5 46.5t20.5 16.5
q9 -1 26.5 -17.5t34 -37.5t27.5 -41t6 -28q-1 -2 -4 -19t-6 -41.5t-5 -52.5t-2 -52t4 -40t14 -16q13 0 26 18t25.5 47t25 66.5t24.5 76.5t23 75.5t21 65.5q4 12 13.5 11.5t18 -9t13 -21.5t0.5 -25zM72 788q1 0 13.5 11t32 26.5t42 33t43 31.5t36.5 22t21 4q4 -3 11 -16.5
t14 -32t14.5 -39.5t13 -39t9.5 -30t4 -13q-2 -24 -14.5 -27t-23.5 16q-7 12 -11 20t-8 15.5t-9 16t-13 19.5q-17 -6 -36.5 -14.5t-40 -17.5t-40.5 -18.5t-36 -17.5q-15 -3 -21.5 4t-8 17t1 18.5t6.5 10.5z" />
    <glyph glyph-name="adieresis" unicode="&#xe4;" horiz-adv-x="497" 
d="M558 393q-12 -32 -24 -74.5t-26.5 -88t-30.5 -89.5t-35.5 -78.5t-43 -56t-50.5 -21.5q-32 0 -55 15.5t-38.5 41.5t-24 60t-11.5 72q-17 -37 -35.5 -70t-39 -58t-41.5 -39.5t-43 -12.5q-32 2 -52 33.5t-30 80.5t-9.5 110.5t10.5 125t29.5 123t47.5 104t64.5 69t80.5 18.5
q33 -5 57 -17t40.5 -28t26 -35t14.5 -38q4 -15 -0.5 -37.5t-12.5 -37.5t-16 -15t-11 30q-4 38 -33 39q-24 2 -51 -20t-58 -86q-9 -17 -17 -45t-15 -59.5t-12.5 -63.5t-7.5 -57.5t-0.5 -41.5t7.5 -16q5 0 19 24.5t32 60.5t37 78t35 77q8 29 17.5 46.5t20.5 16.5
q9 -1 26.5 -17.5t34 -37.5t27.5 -41t6 -28q-1 -2 -4 -19t-6 -41.5t-5 -52.5t-2 -52t4 -40t14 -16q13 0 26 18t25.5 47t25 66.5t24.5 76.5t23 75.5t21 65.5q4 12 13.5 11.5t18 -9t13 -21.5t0.5 -25zM258 832q-5 32 7 55t35 23t41.5 -23t23.5 -55q5 -33 -7.5 -55t-35.5 -22
t-41 22t-23 55zM93 830q-5 33 6 56t34 23t42.5 -23t24.5 -56q5 -32 -7.5 -54.5t-35.5 -22.5t-41 22.5t-23 54.5z" />
    <glyph glyph-name="atilde" unicode="&#xe3;" horiz-adv-x="497" 
d="M558 393q-12 -32 -24 -74.5t-26.5 -88t-30.5 -89.5t-35.5 -78.5t-43 -56t-50.5 -21.5q-32 0 -55 15.5t-38.5 41.5t-24 60t-11.5 72q-17 -37 -35.5 -70t-39 -58t-41.5 -39.5t-43 -12.5q-32 2 -52 33.5t-30 80.5t-9.5 110.5t10.5 125t29.5 123t47.5 104t64.5 69t80.5 18.5
q33 -5 57 -17t40.5 -28t26 -35t14.5 -38q4 -15 -0.5 -37.5t-12.5 -37.5t-16 -15t-11 30q-4 38 -33 39q-24 2 -51 -20t-58 -86q-9 -17 -17 -45t-15 -59.5t-12.5 -63.5t-7.5 -57.5t-0.5 -41.5t7.5 -16q5 0 19 24.5t32 60.5t37 78t35 77q8 29 17.5 46.5t20.5 16.5
q9 -1 26.5 -17.5t34 -37.5t27.5 -41t6 -28q-1 -2 -4 -19t-6 -41.5t-5 -52.5t-2 -52t4 -40t14 -16q13 0 26 18t25.5 47t25 66.5t24.5 76.5t23 75.5t21 65.5q4 12 13.5 11.5t18 -9t13 -21.5t0.5 -25zM145 808q-5 -10 -11.5 -12.5t-12.5 1.5t-11 13t-5 22q3 18 11 40t19.5 40
t25.5 26.5t30 -1.5q11 -7 19 -22t15 -32t13 -34t13.5 -28t17 -13t22.5 10q11 11 20 26t14 35q4 13 11 16t14 -1.5t11.5 -14.5t2.5 -24q-5 -24 -15 -51t-24.5 -47.5t-33.5 -29.5t-41 4q-12 7 -24 30t-23.5 46t-21.5 37.5t-18 5.5q-8 -8 -12 -18.5t-6 -23.5z" />
    <glyph glyph-name="aring" unicode="&#xe5;" horiz-adv-x="497" 
d="M558 393q-12 -32 -24 -74.5t-26.5 -88t-30.5 -89.5t-35.5 -78.5t-43 -56t-50.5 -21.5q-32 0 -55 15.5t-38.5 41.5t-24 60t-11.5 72q-17 -37 -35.5 -70t-39 -58t-41.5 -39.5t-43 -12.5q-32 2 -52 33.5t-30 80.5t-9.5 110.5t10.5 125t29.5 123t47.5 104t64.5 69t80.5 18.5
q33 -5 57 -17t40.5 -28t26 -35t14.5 -38q4 -15 -0.5 -37.5t-12.5 -37.5t-16 -15t-11 30q-4 38 -33 39q-24 2 -51 -20t-58 -86q-9 -17 -17 -45t-15 -59.5t-12.5 -63.5t-7.5 -57.5t-0.5 -41.5t7.5 -16q5 0 19 24.5t32 60.5t37 78t35 77q8 29 17.5 46.5t20.5 16.5
q9 -1 26.5 -17.5t34 -37.5t27.5 -41t6 -28q-1 -2 -4 -19t-6 -41.5t-5 -52.5t-2 -52t4 -40t14 -16q13 0 26 18t25.5 47t25 66.5t24.5 76.5t23 75.5t21 65.5q4 12 13.5 11.5t18 -9t13 -21.5t0.5 -25zM146 871q3 22 9.5 43t16.5 38t23.5 29t30.5 17q22 5 40.5 -6t32 -32t20 -49
t4.5 -56q-5 -42 -22 -76.5t-46 -49.5q-26 -13 -47 -5t-35.5 29.5t-21.5 52.5t-5 65zM188 855q-2 -26 2 -44t12.5 -26.5t21.5 -6.5t28 17q12 13 19.5 33t9.5 43q3 15 0.5 30t-9.5 26t-17 15t-22 -3q-19 -11 -30.5 -33t-14.5 -51z" />
    <glyph glyph-name="ccedilla" unicode="&#xe7;" horiz-adv-x="419" 
d="M226 105q35 7 65.5 41.5t56.5 83t47.5 104t38.5 103.5q4 12 13.5 11.5t18 -9t13 -21.5t0.5 -25q-15 -42 -31 -88.5t-34.5 -91.5t-41 -86t-51.5 -72t-64.5 -49.5t-80.5 -18.5q-5 0 -11 1t-11 1l-13 -34q20 -3 39 -13t36 -30q18 -21 23.5 -47t2 -50t-15.5 -44t-28 -29
q-30 -16 -63.5 -11t-68.5 23q-9 7 -11.5 17t-1 19t6.5 14t13 1q17 -9 35 -13t33.5 -3t26.5 8t14 22q3 16 -2.5 30.5t-17 25.5t-26 16.5t-29.5 3.5q-14 1 -21.5 11.5t-2.5 30.5q6 17 13.5 33.5t14.5 32.5q-49 25 -80.5 82.5t-43 130.5t-2 152t42.5 147q39 80 84.5 112
t84.5 31q32 0 56 -11.5t41 -29t27 -38t14 -39.5q3 -12 6 -32.5t0 -46.5t-14.5 -56t-38.5 -61q-7 -8 -16 -5.5t-15.5 10.5t-9 19.5t3.5 20.5q17 26 23.5 50t4.5 42t-11 29t-22 11q-7 0 -17 -4.5t-22 -16.5t-25.5 -33t-28.5 -54q-12 -27 -19.5 -60t-9 -67.5t3 -67.5t17 -58.5
t32.5 -40.5t49 -14z" />
    <glyph glyph-name="eacute" unicode="&#xe9;" horiz-adv-x="430" 
d="M215 102q42 0 77.5 36.5t64.5 89t51.5 110t37.5 99.5q4 12 13.5 11.5t18 -9t13 -21.5t0.5 -25q-16 -43 -32 -90t-35 -92t-41.5 -85t-51.5 -70.5t-66 -48.5t-83 -18q-63 0 -105.5 28.5t-66.5 75t-32 106.5t-2 122.5t24.5 122.5t47 107.5t65 77.5t78.5 32q28 1 51.5 -8
t41.5 -25t30 -37t18 -44q17 -62 1.5 -122.5t-49 -109.5t-77.5 -81.5t-84 -38.5q9 -42 31.5 -68t60.5 -25zM121 273q25 8 54.5 33t53 57.5t37.5 67.5t8 62q-2 9 -9.5 17.5t-19.5 8.5q-29 0 -52.5 -22.5t-40 -57.5t-25 -79t-6.5 -87zM197 759q-3 8 6 30.5t23 51t30.5 57.5
t28.5 50q10 12 24.5 6.5t26 -20.5t16.5 -33.5t-3 -31.5q-10 -12 -23.5 -28.5t-30 -34.5t-35.5 -36.5t-40 -34.5q-11 -2 -16 7.5t-7 16.5z" />
    <glyph glyph-name="egrave" unicode="&#xe8;" horiz-adv-x="430" 
d="M215 102q42 0 77.5 36.5t64.5 89t51.5 110t37.5 99.5q4 12 13.5 11.5t18 -9t13 -21.5t0.5 -25q-16 -43 -32 -90t-35 -92t-41.5 -85t-51.5 -70.5t-66 -48.5t-83 -18q-63 0 -105.5 28.5t-66.5 75t-32 106.5t-2 122.5t24.5 122.5t47 107.5t65 77.5t78.5 32q28 1 51.5 -8
t41.5 -25t30 -37t18 -44q17 -62 1.5 -122.5t-49 -109.5t-77.5 -81.5t-84 -38.5q9 -42 31.5 -68t60.5 -25zM121 273q25 8 54.5 33t53 57.5t37.5 67.5t8 62q-2 9 -9.5 17.5t-19.5 8.5q-29 0 -52.5 -22.5t-40 -57.5t-25 -79t-6.5 -87zM239 763q-1 -6 -3 -16t-14 -8
q-51 33 -96 71t-73 64q-12 13 -12.5 31.5t7 33t20.5 20.5t27 -7q18 -21 43 -50t47.5 -57.5t38.5 -51t15 -30.5z" />
    <glyph glyph-name="ecircumflex" unicode="&#xea;" horiz-adv-x="430" 
d="M215 102q42 0 77.5 36.5t64.5 89t51.5 110t37.5 99.5q4 12 13.5 11.5t18 -9t13 -21.5t0.5 -25q-16 -43 -32 -90t-35 -92t-41.5 -85t-51.5 -70.5t-66 -48.5t-83 -18q-63 0 -105.5 28.5t-66.5 75t-32 106.5t-2 122.5t24.5 122.5t47 107.5t65 77.5t78.5 32q28 1 51.5 -8
t41.5 -25t30 -37t18 -44q17 -62 1.5 -122.5t-49 -109.5t-77.5 -81.5t-84 -38.5q9 -42 31.5 -68t60.5 -25zM121 273q25 8 54.5 33t53 57.5t37.5 67.5t8 62q-2 9 -9.5 17.5t-19.5 8.5q-29 0 -52.5 -22.5t-40 -57.5t-25 -79t-6.5 -87zM78 797q1 0 14 10.5t32 26t42 33
t43.5 31.5t36.5 22t21 4q4 -3 11 -16t14 -31.5t14 -39.5l13 -39t9.5 -30t3.5 -13q-1 -25 -13.5 -28t-23.5 16q-7 12 -11 20l-8 16t-9 16t-13 20q-17 -6 -36.5 -15t-40 -18t-40.5 -18.5t-36 -17.5q-15 -3 -22 4t-8.5 17t1 19t6.5 11z" />
    <glyph glyph-name="edieresis" unicode="&#xeb;" horiz-adv-x="430" 
d="M215 102q42 0 77.5 36.5t64.5 89t51.5 110t37.5 99.5q4 12 13.5 11.5t18 -9t13 -21.5t0.5 -25q-16 -43 -32 -90t-35 -92t-41.5 -85t-51.5 -70.5t-66 -48.5t-83 -18q-63 0 -105.5 28.5t-66.5 75t-32 106.5t-2 122.5t24.5 122.5t47 107.5t65 77.5t78.5 32q28 1 51.5 -8
t41.5 -25t30 -37t18 -44q17 -62 1.5 -122.5t-49 -109.5t-77.5 -81.5t-84 -38.5q9 -42 31.5 -68t60.5 -25zM121 273q25 8 54.5 33t53 57.5t37.5 67.5t8 62q-2 9 -9.5 17.5t-19.5 8.5q-29 0 -52.5 -22.5t-40 -57.5t-25 -79t-6.5 -87zM256 825q-5 32 7 55t35 23t41.5 -23
t23.5 -55q5 -33 -7.5 -55t-35.5 -22t-41 22t-23 55zM90 823q-5 33 6.5 56t34.5 23t42 -23t24 -56q5 -32 -7 -54.5t-35 -22.5t-41.5 22.5t-23.5 54.5z" />
    <glyph glyph-name="icircumflex" unicode="&#xee;" horiz-adv-x="289" 
d="M109 -17q-34 -1 -57.5 19t-38 54.5t-21 79.5t-7 94.5t4.5 99t13 93.5q4 25 10.5 59.5t11.5 70t7.5 66.5t-0.5 50q-2 13 10 8t26 -15q10 -5 24.5 -20t29 -33t26 -36t14.5 -30q3 -15 2 -42.5t-4 -59t-8 -62.5t-9 -53q-8 -37 -13.5 -79t-7.5 -77.5t0 -58.5t9 -23
q15 1 31 19.5t32 48t31.5 66.5t29.5 75.5t26.5 75t22.5 64.5q4 12 13.5 11.5t18 -9t13 -21.5t0.5 -25q-11 -31 -25 -73.5t-31 -88t-37 -89.5t-43 -79t-49 -57t-55 -23zM-19 792q1 0 14 11t32 26.5t41.5 33t43 31.5t36.5 22t21 4q7 -4 18 -30.5t21.5 -57t18 -55.5t7.5 -27
q-1 -24 -13.5 -27t-23.5 16q-7 12 -11 20l-8 16t-9 16t-13 20q-17 -6 -36.5 -15t-40 -18t-40.5 -18.5t-36 -17.5q-15 -3 -21.5 4t-8 17t1 18.5t6.5 10.5z" />
    <glyph glyph-name="oacute" unicode="&#xf3;" horiz-adv-x="484" 
d="M309 557q-27 0 -53 -21t-50 -54.5t-44.5 -76.5t-36 -87.5t-25.5 -87.5t-12.5 -76.5t3 -53.5t21.5 -20q20 0 49.5 24t64.5 84q-15 28 -21 56t-6 55.5t4.5 53.5t11.5 50q4 16 13.5 36.5t23 36.5t30.5 24t35 -2q31 -16 45 -44t15 -63.5t-9 -77.5t-28 -85q27 5 50 23
t42.5 45.5t35.5 62t30 72.5q4 12 13.5 12.5t18.5 -6.5t14 -19t1 -25q-24 -77 -49 -129.5t-54 -83.5t-64.5 -41.5t-81.5 -2.5l-17 -30q-14 -23 -32 -44t-40 -38t-46.5 -28t-50.5 -13q-31 -2 -57 14.5t-45 45t-31 66.5t-16 79q-5 50 -0.5 104.5t17.5 106.5t34 99.5t48 83
t60 57t70 22.5q9 0 26 -3.5t36 -11t37.5 -20t31.5 -31.5t13.5 -28.5t-25.5 -9.5zM153 742q-3 8 5.5 30.5t23 51t30.5 57.5t28 50q11 13 25.5 7t26 -20.5t16.5 -33t-3 -31.5q-20 -26 -53.5 -64t-75.5 -71q-11 -2 -16 8t-7 16z" />
    <glyph glyph-name="ograve" unicode="&#xf2;" horiz-adv-x="484" 
d="M309 557q-27 0 -53 -21t-50 -54.5t-44.5 -76.5t-36 -87.5t-25.5 -87.5t-12.5 -76.5t3 -53.5t21.5 -20q20 0 49.5 24t64.5 84q-15 28 -21 56t-6 55.5t4.5 53.5t11.5 50q4 16 13.5 36.5t23 36.5t30.5 24t35 -2q31 -16 45 -44t15 -63.5t-9 -77.5t-28 -85q27 5 50 23
t42.5 45.5t35.5 62t30 72.5q4 12 13.5 12.5t18.5 -6.5t14 -19t1 -25q-24 -77 -49 -129.5t-54 -83.5t-64.5 -41.5t-81.5 -2.5l-17 -30q-14 -23 -32 -44t-40 -38t-46.5 -28t-50.5 -13q-31 -2 -57 14.5t-45 45t-31 66.5t-16 79q-5 50 -0.5 104.5t17.5 106.5t34 99.5t48 83
t60 57t70 22.5q9 0 26 -3.5t36 -11t37.5 -20t31.5 -31.5t13.5 -28.5t-25.5 -9.5zM287 759q-1 -7 -3 -16.5t-14 -7.5q-26 16 -50 34.5t-46 36.5t-40.5 34.5t-32.5 28.5q-12 13 -12.5 31.5t7 33.5t20.5 20.5t27 -6.5q18 -21 43 -50t47.5 -57.5t38.5 -51t15 -30.5z" />
    <glyph glyph-name="ocircumflex" unicode="&#xf4;" horiz-adv-x="484" 
d="M309 557q-27 0 -53 -21t-50 -54.5t-44.5 -76.5t-36 -87.5t-25.5 -87.5t-12.5 -76.5t3 -53.5t21.5 -20q20 0 49.5 24t64.5 84q-15 28 -21 56t-6 55.5t4.5 53.5t11.5 50q4 16 13.5 36.5t23 36.5t30.5 24t35 -2q31 -16 45 -44t15 -63.5t-9 -77.5t-28 -85q27 5 50 23
t42.5 45.5t35.5 62t30 72.5q4 12 13.5 12.5t18.5 -6.5t14 -19t1 -25q-24 -77 -49 -129.5t-54 -83.5t-64.5 -41.5t-81.5 -2.5l-17 -30q-14 -23 -32 -44t-40 -38t-46.5 -28t-50.5 -13q-31 -2 -57 14.5t-45 45t-31 66.5t-16 79q-5 50 -0.5 104.5t17.5 106.5t34 99.5t48 83
t60 57t70 22.5q9 0 26 -3.5t36 -11t37.5 -20t31.5 -31.5t13.5 -28.5t-25.5 -9.5zM123 795q1 0 13.5 11t32 26.5t42.5 33t43.5 31.5t36.5 22t21 4q4 -3 11 -16.5t14 -32t14 -39.5l13 -39t9.5 -30t3.5 -13q-2 -24 -14.5 -27t-22.5 16q-7 12 -11 20t-8.5 15.5t-9.5 16t-13 19.5
q-17 -6 -36.5 -14.5t-40 -17.5t-40.5 -18.5t-36 -17.5q-15 -3 -21.5 4t-8 17t1 18.5t6.5 10.5z" />
    <glyph glyph-name="odieresis" unicode="&#xf6;" horiz-adv-x="484" 
d="M309 557q-27 0 -53 -21t-50 -54.5t-44.5 -76.5t-36 -87.5t-25.5 -87.5t-12.5 -76.5t3 -53.5t21.5 -20q20 0 49.5 24t64.5 84q-15 28 -21 56t-6 55.5t4.5 53.5t11.5 50q4 16 13.5 36.5t23 36.5t30.5 24t35 -2q31 -16 45 -44t15 -63.5t-9 -77.5t-28 -85q27 5 50 23
t42.5 45.5t35.5 62t30 72.5q4 12 13.5 12.5t18.5 -6.5t14 -19t1 -25q-24 -77 -49 -129.5t-54 -83.5t-64.5 -41.5t-81.5 -2.5l-17 -30q-14 -23 -32 -44t-40 -38t-46.5 -28t-50.5 -13q-31 -2 -57 14.5t-45 45t-31 66.5t-16 79q-5 50 -0.5 104.5t17.5 106.5t34 99.5t48 83
t60 57t70 22.5q9 0 26 -3.5t36 -11t37.5 -20t31.5 -31.5t13.5 -28.5t-25.5 -9.5zM323 816q-5 33 7 56t35 23t41.5 -23t23.5 -56q5 -32 -7.5 -54.5t-35.5 -22.5t-41 22.5t-23 54.5zM158 815q-5 32 6 55t34 23q22 0 42 -23t25 -55q5 -33 -7.5 -55t-35.5 -22t-41 22t-23 55z
" />
    <glyph glyph-name="otilde" unicode="&#xf5;" horiz-adv-x="484" 
d="M309 557q-27 0 -53 -21t-50 -54.5t-44.5 -76.5t-36 -87.5t-25.5 -87.5t-12.5 -76.5t3 -53.5t21.5 -20q20 0 49.5 24t64.5 84q-15 28 -21 56t-6 55.5t4.5 53.5t11.5 50q4 16 13.5 36.5t23 36.5t30.5 24t35 -2q31 -16 45 -44t15 -63.5t-9 -77.5t-28 -85q27 5 50 23
t42.5 45.5t35.5 62t30 72.5q4 12 13.5 12.5t18.5 -6.5t14 -19t1 -25q-24 -77 -49 -129.5t-54 -83.5t-64.5 -41.5t-81.5 -2.5l-17 -30q-14 -23 -32 -44t-40 -38t-46.5 -28t-50.5 -13q-31 -2 -57 14.5t-45 45t-31 66.5t-16 79q-5 50 -0.5 104.5t17.5 106.5t34 99.5t48 83
t60 57t70 22.5q9 0 26 -3.5t36 -11t37.5 -20t31.5 -31.5t13.5 -28.5t-25.5 -9.5zM180 799q-5 -10 -11.5 -12t-13 2t-11.5 13t-5 21q3 18 11 40.5t19.5 40t25.5 26t30 -1.5q11 -7 19 -22t15 -32t13.5 -33.5t14 -27.5t16.5 -13.5t22 9.5q11 11 20 26.5t14 35.5q4 12 11 15
t14 -1t11.5 -14.5t2.5 -23.5q-5 -24 -15 -51t-24.5 -48t-33.5 -30t-41 4q-12 7 -24 30t-23.5 46t-21.5 38t-18 5q-14 -17 -17 -42z" />
    <glyph glyph-name="uacute" unicode="&#xfa;" horiz-adv-x="565" 
d="M408 88q15 1 30.5 20t31.5 49t31.5 67.5t30 75.5t26.5 74t22 63q4 12 13 11.5t17.5 -8.5t13.5 -21t1 -26q-10 -31 -24 -74t-31.5 -88.5t-38 -90t-44 -79.5t-50.5 -56.5t-56 -21.5q-29 1 -50 14.5t-35.5 35t-24 51t-13.5 63.5q-16 -35 -35 -65t-39 -51.5t-40 -33.5
t-37 -12q-48 0 -76.5 34t-42 87t-13.5 118t10 127q4 27 9.5 57.5t10.5 61t10 59t8 52.5q1 5 2 14.5t1.5 20t0.5 20.5t-1 16q-3 13 8.5 10.5t27.5 -8.5q9 -4 27.5 -18t37 -31.5t33 -35t17.5 -29.5q1 -3 -3 -25t-10.5 -53.5t-14.5 -69t-15 -71.5t-12 -60.5t-6 -35.5
q-3 -24 -4.5 -48.5t-0.5 -44t4.5 -32t11.5 -12.5q12 1 30 18t37 45t35.5 65t26.5 78q2 34 7 66t11 63q4 25 12 56.5t15 63t11.5 60t1.5 47.5q-2 12 10 7t26 -14q10 -5 24.5 -20t29 -33.5t26 -36.5t14.5 -29q3 -15 0.5 -39.5t-7.5 -52.5t-12 -56t-11 -50q-8 -39 -14 -81.5
t-7.5 -77.5t2 -57.5t13.5 -21.5zM140 755q-3 8 6 30.5t23 51t30.5 57.5t28.5 50q10 12 24.5 6.5t26 -20.5t17 -33.5t-2.5 -31.5q-10 -12 -24 -28.5t-30.5 -34.5t-35 -36.5t-39.5 -34.5q-11 -2 -16 7.5t-8 16.5z" />
    <glyph glyph-name="ugrave" unicode="&#xf9;" horiz-adv-x="565" 
d="M408 88q15 1 30.5 20t31.5 49t31.5 67.5t30 75.5t26.5 74t22 63q4 12 13 11.5t17.5 -8.5t13.5 -21t1 -26q-10 -31 -24 -74t-31.5 -88.5t-38 -90t-44 -79.5t-50.5 -56.5t-56 -21.5q-29 1 -50 14.5t-35.5 35t-24 51t-13.5 63.5q-16 -35 -35 -65t-39 -51.5t-40 -33.5
t-37 -12q-48 0 -76.5 34t-42 87t-13.5 118t10 127q4 27 9.5 57.5t10.5 61t10 59t8 52.5q1 5 2 14.5t1.5 20t0.5 20.5t-1 16q-3 13 8.5 10.5t27.5 -8.5q9 -4 27.5 -18t37 -31.5t33 -35t17.5 -29.5q1 -3 -3 -25t-10.5 -53.5t-14.5 -69t-15 -71.5t-12 -60.5t-6 -35.5
q-3 -24 -4.5 -48.5t-0.5 -44t4.5 -32t11.5 -12.5q12 1 30 18t37 45t35.5 65t26.5 78q2 34 7 66t11 63q4 25 12 56.5t15 63t11.5 60t1.5 47.5q-2 12 10 7t26 -14q10 -5 24.5 -20t29 -33.5t26 -36.5t14.5 -29q3 -15 0.5 -39.5t-7.5 -52.5t-12 -56t-11 -50q-8 -39 -14 -81.5
t-7.5 -77.5t2 -57.5t13.5 -21.5zM289 750q0 -6 -2.5 -15.5t-13.5 -7.5q-26 16 -50.5 34t-46 36t-40 34.5t-32.5 29.5q-12 13 -12.5 31.5t7 33t20 20.5t26.5 -7q18 -20 43 -49t47.5 -57.5t38.5 -51.5t15 -31z" />
    <glyph glyph-name="ucircumflex" unicode="&#xfb;" horiz-adv-x="565" 
d="M408 88q15 1 30.5 20t31.5 49t31.5 67.5t30 75.5t26.5 74t22 63q4 12 13 11.5t17.5 -8.5t13.5 -21t1 -26q-10 -31 -24 -74t-31.5 -88.5t-38 -90t-44 -79.5t-50.5 -56.5t-56 -21.5q-29 1 -50 14.5t-35.5 35t-24 51t-13.5 63.5q-16 -35 -35 -65t-39 -51.5t-40 -33.5
t-37 -12q-48 0 -76.5 34t-42 87t-13.5 118t10 127q4 27 9.5 57.5t10.5 61t10 59t8 52.5q1 5 2 14.5t1.5 20t0.5 20.5t-1 16q-3 13 8.5 10.5t27.5 -8.5q9 -4 27.5 -18t37 -31.5t33 -35t17.5 -29.5q1 -3 -3 -25t-10.5 -53.5t-14.5 -69t-15 -71.5t-12 -60.5t-6 -35.5
q-3 -24 -4.5 -48.5t-0.5 -44t4.5 -32t11.5 -12.5q12 1 30 18t37 45t35.5 65t26.5 78q2 34 7 66t11 63q4 25 12 56.5t15 63t11.5 60t1.5 47.5q-2 12 10 7t26 -14q10 -5 24.5 -20t29 -33.5t26 -36.5t14.5 -29q3 -15 0.5 -39.5t-7.5 -52.5t-12 -56t-11 -50q-8 -39 -14 -81.5
t-7.5 -77.5t2 -57.5t13.5 -21.5zM109 792q1 0 14 11t32 26.5t42 33t43.5 31.5t36.5 22t21 4q7 -4 18 -30.5t21.5 -57t18 -55.5t7.5 -27q-1 -24 -13.5 -27t-23.5 16q-7 12 -11 20l-8 16t-9 16t-13 20q-17 -6 -36.5 -15t-40 -18t-40.5 -18.5t-36 -17.5q-15 -3 -22 4t-8.5 17
t1 18.5t6.5 10.5z" />
    <glyph glyph-name="udieresis" unicode="&#xfc;" horiz-adv-x="565" 
d="M408 88q15 1 30.5 20t31.5 49t31.5 67.5t30 75.5t26.5 74t22 63q4 12 13 11.5t17.5 -8.5t13.5 -21t1 -26q-10 -31 -24 -74t-31.5 -88.5t-38 -90t-44 -79.5t-50.5 -56.5t-56 -21.5q-29 1 -50 14.5t-35.5 35t-24 51t-13.5 63.5q-16 -35 -35 -65t-39 -51.5t-40 -33.5
t-37 -12q-48 0 -76.5 34t-42 87t-13.5 118t10 127q4 27 9.5 57.5t10.5 61t10 59t8 52.5q1 5 2 14.5t1.5 20t0.5 20.5t-1 16q-3 13 8.5 10.5t27.5 -8.5q9 -4 27.5 -18t37 -31.5t33 -35t17.5 -29.5q1 -3 -3 -25t-10.5 -53.5t-14.5 -69t-15 -71.5t-12 -60.5t-6 -35.5
q-3 -24 -4.5 -48.5t-0.5 -44t4.5 -32t11.5 -12.5q12 1 30 18t37 45t35.5 65t26.5 78q2 34 7 66t11 63q4 25 12 56.5t15 63t11.5 60t1.5 47.5q-2 12 10 7t26 -14q10 -5 24.5 -20t29 -33.5t26 -36.5t14.5 -29q3 -15 0.5 -39.5t-7.5 -52.5t-12 -56t-11 -50q-8 -39 -14 -81.5
t-7.5 -77.5t2 -57.5t13.5 -21.5zM265 825q-5 32 7 55t35 23t41.5 -23t23.5 -55q5 -33 -7.5 -55t-35.5 -22t-41 22t-23 55zM99 823q-5 33 6.5 56t34.5 23t42 -23t24 -56q5 -32 -7 -54.5t-35 -22.5t-41.5 22.5t-23.5 54.5z" />
    <glyph glyph-name="Acircumflex" unicode="&#xc2;" horiz-adv-x="1264" 
d="M325 -31q40 2 70 28.5t54 72.5t45 109.5t44.5 139.5t51 162t65.5 178q-58 28 -108 36t-80 6q-67 -6 -121 -34t-94 -72t-66.5 -101.5t-38.5 -121.5t-9 -132.5t21 -133.5q19 -70 62.5 -104t103.5 -33zM808 686q45 -42 79.5 -96.5t54.5 -121.5q13 88 34.5 180t47.5 180
t54.5 169t55.5 148q-83 -50 -163 -162.5t-163 -296.5zM700 762q57 123 115.5 223.5t122.5 173t135.5 116.5t154.5 55q13 1 25 -1.5t20.5 -11t11.5 -23t-3 -35.5q-11 -39 -27.5 -101t-34.5 -140t-37 -169t-35.5 -188t-29.5 -196t-19.5 -193t-5 -180t14.5 -156q2 -13 3 -24
t-2 -17t-10.5 -5t-21.5 13q-34 28 -60.5 62t-44.5 66.5t-28 60.5t-10 45q-1 17 -2 49.5t-6 73.5t-15 87.5t-28 90.5t-46 83.5t-68 66.5q-34 -94 -58.5 -193t-46.5 -193t-46 -178t-58 -148.5t-82.5 -104t-118.5 -44.5q-65 -4 -120.5 23.5t-100 75t-76.5 107.5t-48 122
q-20 79 -23.5 167t11.5 173t49.5 162.5t90.5 136.5t134 94t181 35q57 0 119.5 -14.5t123.5 -46.5zM1085 1462q1 0 13.5 10.5t32 26t42 33t43 31.5t36.5 22t21 4q4 -3 11 -16t14 -31.5t14 -39.5l13 -39t9.5 -30t3.5 -13q-1 -25 -13.5 -28t-23.5 16q-7 12 -11 20l-8 16t-9 16
t-13 20q-17 -6 -36.5 -15t-40 -18t-40.5 -18.5t-36 -17.5q-15 -3 -22 4t-8.5 17t1.5 19t7 11z" />
    <glyph glyph-name="Aacute" unicode="&#xc1;" horiz-adv-x="1264" 
d="M325 -31q40 2 70 28.5t54 72.5t45 109.5t44.5 139.5t51 162t65.5 178q-58 28 -108 36t-80 6q-67 -6 -121 -34t-94 -72t-66.5 -101.5t-38.5 -121.5t-9 -132.5t21 -133.5q19 -70 62.5 -104t103.5 -33zM808 686q45 -42 79.5 -96.5t54.5 -121.5q13 88 34.5 180t47.5 180
t54.5 169t55.5 148q-83 -50 -163 -162.5t-163 -296.5zM700 762q57 123 115.5 223.5t122.5 173t135.5 116.5t154.5 55q13 1 25 -1.5t20.5 -11t11.5 -23t-3 -35.5q-11 -39 -27.5 -101t-34.5 -140t-37 -169t-35.5 -188t-29.5 -196t-19.5 -193t-5 -180t14.5 -156q2 -13 3 -24
t-2 -17t-10.5 -5t-21.5 13q-34 28 -60.5 62t-44.5 66.5t-28 60.5t-10 45q-1 17 -2 49.5t-6 73.5t-15 87.5t-28 90.5t-46 83.5t-68 66.5q-34 -94 -58.5 -193t-46.5 -193t-46 -178t-58 -148.5t-82.5 -104t-118.5 -44.5q-65 -4 -120.5 23.5t-100 75t-76.5 107.5t-48 122
q-20 79 -23.5 167t11.5 173t49.5 162.5t90.5 136.5t134 94t181 35q57 0 119.5 -14.5t123.5 -46.5zM1230 1436q-3 8 6 31t23 51.5t30.5 57.5t28.5 49q10 13 24.5 7t26 -20.5t16.5 -33t-3 -31.5q-10 -13 -23.5 -29.5t-30 -34.5t-35.5 -36t-40 -34q-11 -2 -16 7.5t-7 15.5z" />
    <glyph glyph-name="Egrave" unicode="&#xc8;" horiz-adv-x="836" 
d="M780 1011q-21 -9 -35.5 -3t-21 19t-3.5 29t18 25q10 7 16.5 17t5 22t-13 26t-36.5 31q-24 16 -69.5 20t-99 -3t-108.5 -25t-97 -46.5t-64 -68t-11 -88.5q8 -34 33.5 -59t59.5 -44t73 -34.5t75 -30.5t63.5 -31.5t39.5 -38.5q16 -30 24 -49.5t11.5 -34t4.5 -26.5t4 -26
q-58 -3 -123 -22t-127.5 -52t-118.5 -79t-95 -104t-56.5 -126t-3.5 -145q8 -44 28.5 -79.5t47.5 -60.5t56 -38.5t53 -11.5q80 5 159.5 47.5t152 117.5t133.5 181t105 238q4 12 13 11.5t17 -7.5t13 -19t2 -24q-30 -101 -66.5 -193t-84.5 -174.5t-112 -153.5t-150 -129
q-37 -25 -84.5 -38.5t-99.5 -12t-104.5 21t-97.5 60.5t-79 106t-49 158q-21 122 -8.5 216t46 164t84 119.5t105.5 82.5t110 52.5t98 29.5q-49 1 -98 18t-90.5 47t-72 70.5t-42.5 89.5q-21 82 -5 155.5t65 130.5t128 93.5t184 45.5q28 2 61 3t67.5 -2.5t68 -15t62.5 -34
t51 -59t34 -90.5q6 -26 6.5 -52t-5 -49t-17 -41t-30.5 -27zM546 1462q-1 -7 -3.5 -16.5t-13.5 -7.5q-26 16 -50.5 34.5t-46 36.5t-40 34.5t-32.5 28.5q-12 13 -12.5 31.5t7 33.5t20 20.5t26.5 -6.5q18 -21 43.5 -50t48 -57.5t38 -51t15.5 -30.5z" />
    <glyph glyph-name="Iacute" unicode="&#xcd;" 
d="M139 564q-28 100 -30.5 192t16 173.5t54.5 149t85 118t108.5 82t124.5 40.5q120 16 202.5 -32.5t113.5 -158.5q34 -122 42.5 -229t0 -204.5t-29.5 -187t-46 -174.5q-31 -109 -78 -213t-110.5 -184t-145.5 -127.5t-182 -43.5q-44 1 -83 20.5t-69.5 51t-51.5 72.5t-30 87
q-10 50 -4 100.5t28.5 91.5t63 67t99.5 26q25 0 54.5 -10t59 -27t54.5 -39.5t41 -46.5q7 -11 7 -21.5t-4.5 -17.5t-13 -8.5t-17.5 7.5q-42 37 -80 54t-79 16q-26 0 -53 -16.5t-47 -44t-28.5 -63t2.5 -72.5q10 -37 37.5 -55t62.5 -18q69 0 134 46t122 126t104 186.5t81 227.5
t53.5 249.5t21.5 252.5q1 87 -28 127t-80 39q-79 1 -138.5 -31.5t-103 -85t-71.5 -118t-42.5 -130.5t-18 -124t3.5 -97q6 -35 18.5 -62t28 -42.5t32.5 -19.5t32 7q12 9 22.5 5.5t15.5 -14t5 -24t-9 -23.5q-29 -33 -66 -37t-74 17t-68.5 64.5t-48.5 105.5zM560 1445
q-3 8 5.5 30.5t23 51t31 57.5t28.5 50q10 12 24.5 6.5t26 -20.5t16.5 -33.5t-3 -31.5q-10 -12 -23.5 -28.5t-30 -34.5t-35.5 -36.5t-40 -34.5q-11 -2 -16 7.5t-7 16.5z" />
    <glyph glyph-name="Icircumflex" unicode="&#xce;" 
d="M139 564q-28 100 -30.5 192t16 173.5t54.5 149t85 118t108.5 82t124.5 40.5q120 16 202.5 -32.5t113.5 -158.5q34 -122 42.5 -229t0 -204.5t-29.5 -187t-46 -174.5q-31 -109 -78 -213t-110.5 -184t-145.5 -127.5t-182 -43.5q-44 1 -83 20.5t-69.5 51t-51.5 72.5t-30 87
q-10 50 -4 100.5t28.5 91.5t63 67t99.5 26q25 0 54.5 -10t59 -27t54.5 -39.5t41 -46.5q7 -11 7 -21.5t-4.5 -17.5t-13 -8.5t-17.5 7.5q-42 37 -80 54t-79 16q-26 0 -53 -16.5t-47 -44t-28.5 -63t2.5 -72.5q10 -37 37.5 -55t62.5 -18q69 0 134 46t122 126t104 186.5t81 227.5
t53.5 249.5t21.5 252.5q1 87 -28 127t-80 39q-79 1 -138.5 -31.5t-103 -85t-71.5 -118t-42.5 -130.5t-18 -124t3.5 -97q6 -35 18.5 -62t28 -42.5t32.5 -19.5t32 7q12 9 22.5 5.5t15.5 -14t5 -24t-9 -23.5q-29 -33 -66 -37t-74 17t-68.5 64.5t-48.5 105.5zM454 1457
q1 0 13.5 11t32 26.5t42 33t43 31.5t36.5 22t21 4q7 -4 18 -30.5t21.5 -57t18.5 -55.5t8 -27q-2 -24 -14.5 -27t-23.5 16q-7 12 -11 20l-8 16t-9 16t-13 20q-17 -6 -36.5 -15t-40 -18t-40.5 -18.5t-36 -17.5q-15 -3 -21.5 4t-8 17t1 18.5t6.5 10.5z" />
    <glyph glyph-name="Idieresis" unicode="&#xcf;" 
d="M139 564q-28 100 -30.5 192t16 173.5t54.5 149t85 118t108.5 82t124.5 40.5q120 16 202.5 -32.5t113.5 -158.5q34 -122 42.5 -229t0 -204.5t-29.5 -187t-46 -174.5q-31 -109 -78 -213t-110.5 -184t-145.5 -127.5t-182 -43.5q-44 1 -83 20.5t-69.5 51t-51.5 72.5t-30 87
q-10 50 -4 100.5t28.5 91.5t63 67t99.5 26q25 0 54.5 -10t59 -27t54.5 -39.5t41 -46.5q7 -11 7 -21.5t-4.5 -17.5t-13 -8.5t-17.5 7.5q-42 37 -80 54t-79 16q-26 0 -53 -16.5t-47 -44t-28.5 -63t2.5 -72.5q10 -37 37.5 -55t62.5 -18q69 0 134 46t122 126t104 186.5t81 227.5
t53.5 249.5t21.5 252.5q1 87 -28 127t-80 39q-79 1 -138.5 -31.5t-103 -85t-71.5 -118t-42.5 -130.5t-18 -124t3.5 -97q6 -35 18.5 -62t28 -42.5t32.5 -19.5t32 7q12 9 22.5 5.5t15.5 -14t5 -24t-9 -23.5q-29 -33 -66 -37t-74 17t-68.5 64.5t-48.5 105.5zM598 1485
q-5 33 7 56t35 23t41.5 -23t23.5 -56q5 -32 -7.5 -54.5t-35.5 -22.5t-41 22.5t-23 54.5zM433 1484q-5 32 6 55t34 23q22 0 42 -23t25 -55t-7.5 -54.5t-35.5 -22.5t-41 22.5t-23 54.5z" />
    <glyph glyph-name="Igrave" unicode="&#xcc;" 
d="M139 564q-28 100 -30.5 192t16 173.5t54.5 149t85 118t108.5 82t124.5 40.5q120 16 202.5 -32.5t113.5 -158.5q34 -122 42.5 -229t0 -204.5t-29.5 -187t-46 -174.5q-31 -109 -78 -213t-110.5 -184t-145.5 -127.5t-182 -43.5q-44 1 -83 20.5t-69.5 51t-51.5 72.5t-30 87
q-10 50 -4 100.5t28.5 91.5t63 67t99.5 26q25 0 54.5 -10t59 -27t54.5 -39.5t41 -46.5q7 -11 7 -21.5t-4.5 -17.5t-13 -8.5t-17.5 7.5q-42 37 -80 54t-79 16q-26 0 -53 -16.5t-47 -44t-28.5 -63t2.5 -72.5q10 -37 37.5 -55t62.5 -18q69 0 134 46t122 126t104 186.5t81 227.5
t53.5 249.5t21.5 252.5q1 87 -28 127t-80 39q-79 1 -138.5 -31.5t-103 -85t-71.5 -118t-42.5 -130.5t-18 -124t3.5 -97q6 -35 18.5 -62t28 -42.5t32.5 -19.5t32 7q12 9 22.5 5.5t15.5 -14t5 -24t-9 -23.5q-29 -33 -66 -37t-74 17t-68.5 64.5t-48.5 105.5zM602 1413
q-1 -7 -3 -16.5t-14 -7.5q-26 16 -50 34.5t-45.5 36.5t-40 34.5t-32.5 28.5q-12 13 -12.5 31.5t6.5 33.5t20 20.5t27 -6.5q18 -21 43 -50t47.5 -57.5t38.5 -51t15 -30.5z" />
    <glyph glyph-name="Oacute" unicode="&#xd3;" horiz-adv-x="1004" 
d="M403 1362q11 7 27.5 -17.5t30.5 -63.5q49 36 97 45q53 10 104 -2t95 -45t80 -87t59 -127q39 -126 48.5 -242t-1.5 -224t-37.5 -208.5t-59.5 -194.5q-37 -100 -91.5 -184t-116.5 -146t-127 -99t-123 -43q-66 -7 -127 7.5t-113.5 53.5t-94.5 105t-70 163q-37 127 -37 261.5
t27 266t75.5 254.5t107.5 226t123.5 181t123.5 120zM543 483q-13 -53 -40 -84.5t-61.5 -44t-72.5 -5t-72.5 33.5t-62 70.5t-41.5 106.5l-2 7q-29 -75 -52 -156t-35 -161.5t-9.5 -156t23.5 -138.5q14 -41 34 -63.5t41.5 -33t42.5 -12.5t36 0q58 5 116.5 45t113.5 105.5
t105 151.5t91 182.5t71 199.5t45.5 202t14 190t-23.5 164q-22 74 -57.5 101t-77.5 19.5t-87.5 -44t-88 -90.5t-79.5 -120t-61.5 -131.5t-33 -125t4.5 -101.5q13 -43 36.5 -61.5t49 -21.5t48.5 6t34 22q9 10 19.5 9t19 -10t12 -23.5t-0.5 -31.5zM565 1417q-3 8 6 30.5t23 51
t30.5 57.5t28.5 50q10 12 24.5 6.5t26 -20.5t16.5 -33.5t-3 -31.5q-10 -12 -23.5 -28.5t-30 -34.5t-35.5 -36.5t-40 -34.5q-11 -2 -16 7.5t-7 16.5z" />
    <glyph glyph-name="Ocircumflex" unicode="&#xd4;" horiz-adv-x="1004" 
d="M403 1362q11 7 27.5 -17.5t30.5 -63.5q49 36 97 45q53 10 104 -2t95 -45t80 -87t59 -127q39 -126 48.5 -242t-1.5 -224t-37.5 -208.5t-59.5 -194.5q-37 -100 -91.5 -184t-116.5 -146t-127 -99t-123 -43q-66 -7 -127 7.5t-113.5 53.5t-94.5 105t-70 163q-37 127 -37 261.5
t27 266t75.5 254.5t107.5 226t123.5 181t123.5 120zM543 483q-13 -53 -40 -84.5t-61.5 -44t-72.5 -5t-72.5 33.5t-62 70.5t-41.5 106.5l-2 7q-29 -75 -52 -156t-35 -161.5t-9.5 -156t23.5 -138.5q14 -41 34 -63.5t41.5 -33t42.5 -12.5t36 0q58 5 116.5 45t113.5 105.5
t105 151.5t91 182.5t71 199.5t45.5 202t14 190t-23.5 164q-22 74 -57.5 101t-77.5 19.5t-87.5 -44t-88 -90.5t-79.5 -120t-61.5 -131.5t-33 -125t4.5 -101.5q13 -43 36.5 -61.5t49 -21.5t48.5 6t34 22q9 10 19.5 9t19 -10t12 -23.5t-0.5 -31.5zM548 1469q1 0 13.5 10.5
t32 26t42.5 33t43.5 31.5t36.5 22t21 4q4 -3 10.5 -16t14 -31.5t14.5 -39.5l13 -39t9.5 -30t3.5 -13q-2 -25 -14.5 -28t-22.5 16q-7 12 -11 20t-8.5 16t-9.5 16t-13 20q-17 -6 -36.5 -15t-40 -18t-40.5 -18.5t-36 -17.5q-15 -3 -21.5 4t-8 17t1 19t6.5 11z" />
    <glyph glyph-name="Ograve" unicode="&#xd2;" horiz-adv-x="1004" 
d="M403 1362q11 7 27.5 -17.5t30.5 -63.5q49 36 97 45q53 10 104 -2t95 -45t80 -87t59 -127q39 -126 48.5 -242t-1.5 -224t-37.5 -208.5t-59.5 -194.5q-37 -100 -91.5 -184t-116.5 -146t-127 -99t-123 -43q-66 -7 -127 7.5t-113.5 53.5t-94.5 105t-70 163q-37 127 -37 261.5
t27 266t75.5 254.5t107.5 226t123.5 181t123.5 120zM543 483q-13 -53 -40 -84.5t-61.5 -44t-72.5 -5t-72.5 33.5t-62 70.5t-41.5 106.5l-2 7q-29 -75 -52 -156t-35 -161.5t-9.5 -156t23.5 -138.5q14 -41 34 -63.5t41.5 -33t42.5 -12.5t36 0q58 5 116.5 45t113.5 105.5
t105 151.5t91 182.5t71 199.5t45.5 202t14 190t-23.5 164q-22 74 -57.5 101t-77.5 19.5t-87.5 -44t-88 -90.5t-79.5 -120t-61.5 -131.5t-33 -125t4.5 -101.5q13 -43 36.5 -61.5t49 -21.5t48.5 6t34 22q9 10 19.5 9t19 -10t12 -23.5t-0.5 -31.5zM624 1415q-1 -6 -3.5 -15.5
t-13.5 -7.5q-26 16 -50 34t-46 36t-40.5 34.5t-32.5 29.5q-12 13 -12.5 31.5t7 33t20 20.5t26.5 -7q18 -20 43.5 -49t48 -57.5t38 -51.5t15.5 -31z" />
    <glyph glyph-name="Uacute" unicode="&#xda;" horiz-adv-x="1167" 
d="M1038 1254q12 23 35 32t46 4t40 -24t17 -51q-12 -31 -28 -94t-33 -147.5t-33.5 -186t-30 -210.5t-23 -219.5t-11.5 -212.5t4.5 -191.5t23.5 -155.5q3 -11 3.5 -21t-2.5 -15.5t-11 -4.5t-21 12q-33 26 -63 59.5t-53 67t-38 62.5t-18 46q-9 51 -10.5 116.5t2.5 140.5
t13 156.5t21 164.5q-30 -89 -64 -181t-72.5 -177.5t-82.5 -160.5t-95 -130.5t-109 -87t-124 -30.5q-50 1 -87 27.5t-62 63t-39.5 75.5t-19.5 64q-10 51 -1.5 120t30 149t53.5 168t68.5 176t75 173t73.5 159.5t63 135t44 100.5q-44 5 -101.5 -15t-117 -58t-115 -89t-96 -107
t-60 -113.5t-6.5 -107.5q4 -15 9.5 -30.5t12.5 -29t16.5 -24t22.5 -16.5q13 -5 20.5 -17.5t8 -25t-5.5 -21.5t-20 -6q-19 2 -50 9.5t-64.5 29.5t-64.5 62.5t-50 108.5q-28 99 -7.5 180.5t74.5 145.5t132.5 110t166.5 74.5t177 39.5t164 5q31 -3 49.5 -12t27.5 -23t9 -32
t-7 -39q-4 -11 -19 -53.5t-38 -107t-51 -145.5t-57.5 -170.5t-59 -182.5t-54 -180.5t-43 -164.5t-26 -134.5t-2.5 -91.5t26 -34q47 -1 96 34t98 94.5t96 138.5t90.5 166t82.5 176.5t71.5 170t57 146.5t38.5 107q23 87 45.5 154.5t42.5 105.5zM832 1375q-3 8 6 30.5t23 51
t30.5 57.5t28.5 50q10 12 24.5 6.5t26 -20.5t16.5 -33.5t-3 -31.5q-10 -12 -23.5 -28.5t-30 -34.5t-35.5 -36.5t-40 -34.5q-11 -2 -16 7.5t-7 16.5z" />
    <glyph glyph-name="Ucircumflex" unicode="&#xdb;" horiz-adv-x="1167" 
d="M1038 1254q12 23 35 32t46 4t40 -24t17 -51q-12 -31 -28 -94t-33 -147.5t-33.5 -186t-30 -210.5t-23 -219.5t-11.5 -212.5t4.5 -191.5t23.5 -155.5q3 -11 3.5 -21t-2.5 -15.5t-11 -4.5t-21 12q-33 26 -63 59.5t-53 67t-38 62.5t-18 46q-9 51 -10.5 116.5t2.5 140.5
t13 156.5t21 164.5q-30 -89 -64 -181t-72.5 -177.5t-82.5 -160.5t-95 -130.5t-109 -87t-124 -30.5q-50 1 -87 27.5t-62 63t-39.5 75.5t-19.5 64q-10 51 -1.5 120t30 149t53.5 168t68.5 176t75 173t73.5 159.5t63 135t44 100.5q-44 5 -101.5 -15t-117 -58t-115 -89t-96 -107
t-60 -113.5t-6.5 -107.5q4 -15 9.5 -30.5t12.5 -29t16.5 -24t22.5 -16.5q13 -5 20.5 -17.5t8 -25t-5.5 -21.5t-20 -6q-19 2 -50 9.5t-64.5 29.5t-64.5 62.5t-50 108.5q-28 99 -7.5 180.5t74.5 145.5t132.5 110t166.5 74.5t177 39.5t164 5q31 -3 49.5 -12t27.5 -23t9 -32
t-7 -39q-4 -11 -19 -53.5t-38 -107t-51 -145.5t-57.5 -170.5t-59 -182.5t-54 -180.5t-43 -164.5t-26 -134.5t-2.5 -91.5t26 -34q47 -1 96 34t98 94.5t96 138.5t90.5 166t82.5 176.5t71.5 170t57 146.5t38.5 107q23 87 45.5 154.5t42.5 105.5zM739 1457q1 0 13.5 11t32 26.5
t42 33t43 31.5t36.5 22t21 4q7 -4 18 -30.5t21.5 -57t18.5 -55.5t8 -27q-2 -24 -14.5 -27t-23.5 16q-7 12 -11 20l-8 16t-9 16t-13 20q-17 -6 -36.5 -15t-40 -18t-40.5 -18.5t-36 -17.5q-15 -3 -21.5 4t-8 17t1 18.5t6.5 10.5z" />
    <glyph glyph-name="Ugrave" unicode="&#xd9;" horiz-adv-x="1167" 
d="M1038 1254q12 23 35 32t46 4t40 -24t17 -51q-12 -31 -28 -94t-33 -147.5t-33.5 -186t-30 -210.5t-23 -219.5t-11.5 -212.5t4.5 -191.5t23.5 -155.5q3 -11 3.5 -21t-2.5 -15.5t-11 -4.5t-21 12q-33 26 -63 59.5t-53 67t-38 62.5t-18 46q-9 51 -10.5 116.5t2.5 140.5
t13 156.5t21 164.5q-30 -89 -64 -181t-72.5 -177.5t-82.5 -160.5t-95 -130.5t-109 -87t-124 -30.5q-50 1 -87 27.5t-62 63t-39.5 75.5t-19.5 64q-10 51 -1.5 120t30 149t53.5 168t68.5 176t75 173t73.5 159.5t63 135t44 100.5q-44 5 -101.5 -15t-117 -58t-115 -89t-96 -107
t-60 -113.5t-6.5 -107.5q4 -15 9.5 -30.5t12.5 -29t16.5 -24t22.5 -16.5q13 -5 20.5 -17.5t8 -25t-5.5 -21.5t-20 -6q-19 2 -50 9.5t-64.5 29.5t-64.5 62.5t-50 108.5q-28 99 -7.5 180.5t74.5 145.5t132.5 110t166.5 74.5t177 39.5t164 5q31 -3 49.5 -12t27.5 -23t9 -32
t-7 -39q-4 -11 -19 -53.5t-38 -107t-51 -145.5t-57.5 -170.5t-59 -182.5t-54 -180.5t-43 -164.5t-26 -134.5t-2.5 -91.5t26 -34q47 -1 96 34t98 94.5t96 138.5t90.5 166t82.5 176.5t71.5 170t57 146.5t38.5 107q23 87 45.5 154.5t42.5 105.5zM868 1387q-1 -6 -3 -15.5
t-14 -7.5q-26 16 -50 34t-46 36t-40.5 34.5t-32.5 29.5q-12 13 -12.5 31.5t7 33t20.5 20.5t27 -7q18 -20 43 -49t47.5 -57.5t38 -51.5t15.5 -31z" />
    <glyph glyph-name="apple" unicode="&#xf8ff;" horiz-adv-x="1227" 
d="M892 736l-136 -124l36 -186l-161 94l-165 -94l39 181l-138 129l186 20l78 171l75 -170zM699 531l-44 258h-52l-45 -258l22 -14l20 14l9 58h39l10 -58l21 -14zM645 627h-30l13 102zM622 130h21l-7 18q-2 3 -2 5.5t-3 5.5q0 -5 -3 -11zM364 105v7h11v-7h-11zM856 105v63h8
v-57h31v-6h-39zM799 105v63h45v-9h-37v-20h34v-7h-34v-21h37v-6h-45zM577 105v25l-24 38h11l12 -20q3 -9 6 -10q1 1 2.5 4t4.5 6l12 20h9l-25 -38v-25h-8zM388 105v63h24q3 0 5.5 -1.5t3.5 -1.5q6 -2 8 -6q3 -3 3 -9q0 -5 -3 -6q-2 -6 -6 -6q4 -2 9 -6q3 -6 3 -9t-1 -4.5
t-1 -3.5q-1 -6 -6 -6q-1 -3 -2.5 -3t-3.5 -1h-9h-24zM217 105l-18 63h9l9 -42q2 -5 2 -8t1 -6q2 8 2 12l12 44h10l9 -33q5 -14 5 -23q1 3 1 6t2 8l10 42h8l-18 -63h-8l-12 46q-1 5 -1 8q-2 -3 -2 -8l-13 -46h-8zM135 105l-18 63h10l8 -42q1 -5 1 -8t3 -6q2 8 2 12l12 44h9
l10 -33q2 -8 2.5 -12.5t0.5 -10.5q3 3 3 6t2 8l9 42h9l-18 -63h-8l-12 46q-1 5 -1 8q-3 -3 -3 -8l-14 -46h-7zM396 139h13q6 0 8 3q4 0 4 2q2 1 2 6q0 4 -2 6h-1q-2 0 -2 0.5t-1 0.5q-2 2 -9 2h-12v-20zM297 105l-17 63h9l9 -42q2 -5 2 -8t3 -6q0 6 0.5 8.5t0.5 3.5l12 44h9
l11 -33q1 -8 2 -12.5t1 -10.5q3 3 3 6t1 8l11 42h7l-18 -63h-7l-12 46q-2 5 -2 8q-3 -3 -3 -8l-13 -46h-9zM676 138h18q3 0 5.5 0.5t5.5 0.5t3 5q1 1 1 6q0 4 -3 7q-1 2 -10 2h-20v-21zM396 111h16q3 0 5 1h4q2 3 5 5v6q0 3 -3 6q0 3 -3 3h-11h-13v-21zM447 105v63h7v-63h-7
zM997 135q0 -14 5 -18q6 -6 16 -6q11 0 15 6q6 4 6 19q0 8 -1 12q-3 8 -8 9q-4 2 -12 2q-9 0 -13 -5q-8 -6 -8 -19zM988 135q0 16 9 24q6 9 21 9q5 0 8.5 -1.5t6.5 -3.5q5 -1 7 -4t5 -8q2 -3 2 -15q0 -13 -3 -18q-5 -7 -11 -12q-6 -3 -15 -3q-4 0 -8 1l-8 2q-3 3 -5.5 6
t-3.5 6q-2 5 -3.5 8.5t-1.5 8.5zM604 105l24 63h9l26 -63h-9l-8 18h-25l-9 -18h-8zM471 105v63h7v-57h29v-6h-36zM904 105v7h11v-7h-11zM760 129v7h26v-24q-6 -6 -12 -7q-3 0 -7 -1t-7 -1q-9 0 -15 3q-4 3 -7 5.5t-5 6.5q-1 5 -2.5 8.5t-1.5 8.5q0 6 1.5 9t2.5 7q3 9 11 12
q3 2 7.5 3.5t8.5 1.5q8 0 12 -3q6 -2 8 -6q4 -5 6 -9l-8 -2q0 2 -4 6q0 3 -6 5h-8h-9q-4 -2 -7 -5q0 -1 -5 -6q0 -3 -0.5 -6t-0.5 -6q0 -10 3 -13q6 -9 7 -11q5 -1 12 -1q6 0 11 1q3 3 4.5 3t2.5 2v12h-18zM669 105v63h27q4 0 7 -1.5t6 -1.5q5 -2 6 -6q3 -3 3 -9
q0 -8 -4 -12q-2 -2 -5.5 -2.5t-8.5 -3.5q3 0 4 -1t2 -1q2 -3 6 -10l12 -15h-10l-9 12q-3 3 -4 5l-2 4q0 3 -1.5 3t-3.5 1h-1q-2 0 -2 1t-1 1h-3h-11v-27h-7zM517 105v63h9v-57h30v-6h-39zM973 126l8 -2q-3 -12 -9 -15q-6 -6 -17 -6q-9 0 -15 3q-4 3 -5.5 6t-4.5 6
q-3 12 -3 18t3 18q7 8 10 9q5 2 8 3.5t7 1.5q5 0 9.5 -1.5t7.5 -3.5q3 -3 5 -6t4 -7l-9 -2q0 6 -6 9q-3 2 -11 2q-9 0 -12 -2q-3 -1 -3.5 -3.5t-3.5 -5.5q0 -3 -1 -6t-1 -6q0 -9 5 -13q0 -3 1.5 -5.5t2.5 -5.5q5 -1 12 -1q8 0 12 4q5 5 6 11zM1059 105v63h12l15 -45
q0 -3 1.5 -5.5t1.5 -5.5q0 2 3 11l13 45h12v-63h-7v51l-18 -51h-8l-18 52v-52h-7zM622 130h21l-7 18q-2 3 -2 5.5t-3 5.5q0 -5 -3 -11zM364 105v7h11v-7h-11zM856 105v63h8v-57h31v-6h-39zM799 105v63h45v-9h-37v-20h34v-7h-34v-21h37v-6h-45zM577 105v25l-24 38h11l12 -20
q3 -9 6 -10q1 1 2.5 4t4.5 6l12 20h9l-25 -38v-25h-8zM388 105v63h24q3 0 5.5 -1.5t3.5 -1.5q6 -2 8 -6q3 -3 3 -9q0 -5 -3 -6q-2 -6 -6 -6q4 -2 9 -6q3 -6 3 -9t-1 -4.5t-1 -3.5q-1 -6 -6 -6q-1 -3 -2.5 -3t-3.5 -1h-9h-24zM217 105l-18 63h9l9 -42q2 -5 2 -8t1 -6
q2 8 2 12l12 44h10l9 -33q5 -14 5 -23q1 3 1 6t2 8l10 42h8l-18 -63h-8l-12 46q-1 5 -1 8q-2 -3 -2 -8l-13 -46h-8zM135 105l-18 63h10l8 -42q1 -5 1 -8t3 -6q2 8 2 12l12 44h9l10 -33q2 -8 2.5 -12.5t0.5 -10.5q3 3 3 6t2 8l9 42h9l-18 -63h-8l-12 46q-1 5 -1 8
q-3 -3 -3 -8l-14 -46h-7zM396 139h13q6 0 8 3q4 0 4 2q2 1 2 6q0 4 -2 6h-1q-2 0 -2 0.5t-1 0.5q-2 2 -9 2h-12v-20zM297 105l-17 63h9l9 -42q2 -5 2 -8t3 -6q0 6 0.5 8.5t0.5 3.5l12 44h9l11 -33q1 -8 2 -12.5t1 -10.5q3 3 3 6t1 8l11 42h7l-18 -63h-7l-12 46q-2 5 -2 8
q-3 -3 -3 -8l-13 -46h-9zM676 138h18q3 0 5.5 0.5t5.5 0.5t3 5q1 1 1 6q0 4 -3 7q-1 2 -10 2h-20v-21zM396 111h16q3 0 5 1h4q2 3 5 5v6q0 3 -3 6q0 3 -3 3h-11h-13v-21zM447 105v63h7v-63h-7zM997 135q0 -14 5 -18q6 -6 16 -6q11 0 15 6q6 4 6 19q0 8 -1 12q-3 8 -8 9
q-4 2 -12 2q-9 0 -13 -5q-8 -6 -8 -19zM988 135q0 16 9 24q6 9 21 9q5 0 8.5 -1.5t6.5 -3.5q5 -1 7 -4t5 -8q2 -3 2 -15q0 -13 -3 -18q-5 -7 -11 -12q-6 -3 -15 -3q-4 0 -8 1l-8 2q-3 3 -5.5 6t-3.5 6q-2 5 -3.5 8.5t-1.5 8.5zM604 105l24 63h9l26 -63h-9l-8 18h-25l-9 -18
h-8zM471 105v63h7v-57h29v-6h-36zM904 105v7h11v-7h-11zM760 129v7h26v-24q-6 -6 -12 -7q-3 0 -7 -1t-7 -1q-9 0 -15 3q-4 3 -7 5.5t-5 6.5q-1 5 -2.5 8.5t-1.5 8.5q0 6 1.5 9t2.5 7q3 9 11 12q3 2 7.5 3.5t8.5 1.5q8 0 12 -3q6 -2 8 -6q4 -5 6 -9l-8 -2q0 2 -4 6q0 3 -6 5
h-8h-9q-4 -2 -7 -5q0 -1 -5 -6q0 -3 -0.5 -6t-0.5 -6q0 -10 3 -13q6 -9 7 -11q5 -1 12 -1q6 0 11 1q3 3 4.5 3t2.5 2v12h-18zM669 105v63h27q4 0 7 -1.5t6 -1.5q5 -2 6 -6q3 -3 3 -9q0 -8 -4 -12q-2 -2 -5.5 -2.5t-8.5 -3.5q3 0 4 -1t2 -1q2 -3 6 -10l12 -15h-10l-9 12
q-3 3 -4 5l-2 4q0 3 -1.5 3t-3.5 1h-1q-2 0 -2 1t-1 1h-3h-11v-27h-7zM517 105v63h9v-57h30v-6h-39zM973 126l8 -2q-3 -12 -9 -15q-6 -6 -17 -6q-9 0 -15 3q-4 3 -5.5 6t-4.5 6q-3 12 -3 18t3 18q7 8 10 9q5 2 8 3.5t7 1.5q5 0 9.5 -1.5t7.5 -3.5q3 -3 5 -6t4 -7l-9 -2
q0 6 -6 9q-3 2 -11 2q-9 0 -12 -2q-3 -1 -3.5 -3.5t-3.5 -5.5q0 -3 -1 -6t-1 -6q0 -9 5 -13q0 -3 1.5 -5.5t2.5 -5.5q5 -1 12 -1q8 0 12 4q5 5 6 11zM1059 105v63h12l15 -45q0 -3 1.5 -5.5t1.5 -5.5q0 2 3 11l13 45h12v-63h-7v51l-18 -51h-8l-18 52v-52h-7zM622 130h21
l-7 18q-2 3 -2 5.5t-3 5.5q0 -5 -3 -11zM364 105v7h11v-7h-11zM856 105v63h8v-57h31v-6h-39zM799 105v63h45v-9h-37v-20h34v-7h-34v-21h37v-6h-45zM577 105v25l-24 38h11l12 -20q3 -9 6 -10q1 1 2.5 4t4.5 6l12 20h9l-25 -38v-25h-8zM388 105v63h24q3 0 5.5 -1.5t3.5 -1.5
q6 -2 8 -6q3 -3 3 -9q0 -5 -3 -6q-2 -6 -6 -6q4 -2 9 -6q3 -6 3 -9t-1 -4.5t-1 -3.5q-1 -6 -6 -6q-1 -3 -2.5 -3t-3.5 -1h-9h-24zM217 105l-18 63h9l9 -42q2 -5 2 -8t1 -6q2 8 2 12l12 44h10l9 -33q5 -14 5 -23q1 3 1 6t2 8l10 42h8l-18 -63h-8l-12 46q-1 5 -1 8
q-2 -3 -2 -8l-13 -46h-8zM135 105l-18 63h10l8 -42q1 -5 1 -8t3 -6q2 8 2 12l12 44h9l10 -33q2 -8 2.5 -12.5t0.5 -10.5q3 3 3 6t2 8l9 42h9l-18 -63h-8l-12 46q-1 5 -1 8q-3 -3 -3 -8l-14 -46h-7zM396 139h13q6 0 8 3q4 0 4 2q2 1 2 6q0 4 -2 6h-1q-2 0 -2 0.5t-1 0.5
q-2 2 -9 2h-12v-20zM297 105l-17 63h9l9 -42q2 -5 2 -8t3 -6q0 6 0.5 8.5t0.5 3.5l12 44h9l11 -33q1 -8 2 -12.5t1 -10.5q3 3 3 6t1 8l11 42h7l-18 -63h-7l-12 46q-2 5 -2 8q-3 -3 -3 -8l-13 -46h-9zM676 138h18q3 0 5.5 0.5t5.5 0.5t3 5q1 1 1 6q0 4 -3 7q-1 2 -10 2h-20
v-21zM396 111h16q3 0 5 1h4q2 3 5 5v6q0 3 -3 6q0 3 -3 3h-11h-13v-21zM447 105v63h7v-63h-7zM997 135q0 -14 5 -18q6 -6 16 -6q11 0 15 6q6 4 6 19q0 8 -1 12q-3 8 -8 9q-4 2 -12 2q-9 0 -13 -5q-8 -6 -8 -19zM988 135q0 16 9 24q6 9 21 9q5 0 8.5 -1.5t6.5 -3.5q5 -1 7 -4
t5 -8q2 -3 2 -15q0 -13 -3 -18q-5 -7 -11 -12q-6 -3 -15 -3q-4 0 -8 1l-8 2q-3 3 -5.5 6t-3.5 6q-2 5 -3.5 8.5t-1.5 8.5zM604 105l24 63h9l26 -63h-9l-8 18h-25l-9 -18h-8zM471 105v63h7v-57h29v-6h-36zM904 105v7h11v-7h-11zM760 129v7h26v-24q-6 -6 -12 -7q-3 0 -7 -1
t-7 -1q-9 0 -15 3q-4 3 -7 5.5t-5 6.5q-1 5 -2.5 8.5t-1.5 8.5q0 6 1.5 9t2.5 7q3 9 11 12q3 2 7.5 3.5t8.5 1.5q8 0 12 -3q6 -2 8 -6q4 -5 6 -9l-8 -2q0 2 -4 6q0 3 -6 5h-8h-9q-4 -2 -7 -5q0 -1 -5 -6q0 -3 -0.5 -6t-0.5 -6q0 -10 3 -13q6 -9 7 -11q5 -1 12 -1q6 0 11 1
q3 3 4.5 3t2.5 2v12h-18zM669 105v63h27q4 0 7 -1.5t6 -1.5q5 -2 6 -6q3 -3 3 -9q0 -8 -4 -12q-2 -2 -5.5 -2.5t-8.5 -3.5q3 0 4 -1t2 -1q2 -3 6 -10l12 -15h-10l-9 12q-3 3 -4 5l-2 4q0 3 -1.5 3t-3.5 1h-1q-2 0 -2 1t-1 1h-3h-11v-27h-7zM517 105v63h9v-57h30v-6h-39z
M973 126l8 -2q-3 -12 -9 -15q-6 -6 -17 -6q-9 0 -15 3q-4 3 -5.5 6t-4.5 6q-3 12 -3 18t3 18q7 8 10 9q5 2 8 3.5t7 1.5q5 0 9.5 -1.5t7.5 -3.5q3 -3 5 -6t4 -7l-9 -2q0 6 -6 9q-3 2 -11 2q-9 0 -12 -2q-3 -1 -3.5 -3.5t-3.5 -5.5q0 -3 -1 -6t-1 -6q0 -9 5 -13
q0 -3 1.5 -5.5t2.5 -5.5q5 -1 12 -1q8 0 12 4q5 5 6 11zM1059 105v63h12l15 -45q0 -3 1.5 -5.5t1.5 -5.5q0 2 3 11l13 45h12v-63h-7v51l-18 -51h-8l-18 52v-52h-7zM301 300q0 15 -22 18q-3 0 -7.5 0.5t-10.5 0.5l-9 -10l-24 -26q-6 -7 -11.5 -13t-12.5 -11q9 -3 22 -4h8.5
t9.5 1q23 2 35 12q22 18 22 32zM318 345q0 6 -8 6q-3 0 -25 -8l-17 -15q-3 -3 -6 -9l26 5q6 0 16 7q14 9 14 14zM337 372q0 -3 -4 -3q-3 0 -4 0.5t-4 0.5q-15 -3 -34 -22q3 3 6.5 4.5t6.5 2.5q11 2 20 0q6 0 6 -7v-6q-8 -14 -42 -21q27 -3 27 -18q0 -18 -29 -38
q-10 -6 -21.5 -9.5t-23.5 -5.5q-19 -4 -30 -3q-9 0 -19 5q-9 -6 -17 -6h-3q-9 3 -15 4h5q12 0 19 6v2q-10 -6 -22 -6q-17 0 -26 9q-15 10 -15 31q0 6 1.5 11.5t4.5 12.5q11 23 36 39q8 8 16 10l16 4q16 0 22 -6q-7 4 -15 4q-9 0 -19 -6q-15 -6 -17 -9q-15 -7 -30 -25
q-13 -21 -13 -36q0 -8 1.5 -12.5t4.5 -8.5q6 -9 16 -12q5 -2 8 -2.5t6 -0.5q6 0 10.5 1.5t10.5 4.5q-17 12 -17 33q3 19 24 34l-3 -4q-3 0 -6 -6q-9 -9 -9 -20q0 -19 23 -33q12 8 12 9q3 5 6 8l6 6t3.5 7.5t3.5 8.5v-1q0 -8 -1 -12l18 21q46 52 76 61q-13 5 -21 5
q-19 -2 -42 -14q-27 -13 -27 -33q0 -6 5 -10q1 -2 1 -3q-9 6 -9 15q0 16 20 33q24 18 51 15q9 0 27 -6h6q7 0 12 -3h1zM340 274q-1 -6 -12 -16q-10 -6 -18 -6q-7 0 -7 9q0 7 9 19h-2q-1 -1 -6 -1l-1 1q4 0 15 11h1l5 6q4 4 4 7h5q4 0 4 -1q0 -6 -9 -17l-10 -10
q-9 -14 -9 -18q0 -5 6 -5q7 0 18 15q1 2 2.5 2.5t4.5 3.5zM348 316q-6 -9 -15 -9q-5 0 -11 5h5q10 0 13 10v3l8 -3q1 -1 0 -6zM400 345q0 -8 -46 -63h-2q-13 -17 -13 -26q0 -4 4 -4q9 0 20 15q1 1 2.5 2t3.5 4q0 -8 -12 -17q-8 -6 -17 -6q-9 2 -9 9q-1 8 30 47l18 22l9 9
q5 6 8 15q4 -3 4 -7zM426 345q0 -6 -48 -63q-15 -18 -15 -26q0 -4 6 -4t19 15l6 6q-1 -8 -13 -17q-8 -6 -17 -6q-9 2 -9 9q0 9 30 47l18 22l9 9q8 9 9 15q5 -3 5 -7zM397 244q-24 -4 -37 -18q-11 -13 -11 -16q0 -6 6 -6q2 -2 11 1q3 3 6.5 7t8.5 8zM441 342q-3 -21 -20 -38
q0 -1 -0.5 -1t-0.5 -2q-5 -6 -10 -11t-10 -13q-3 -3 -3 -6q-1 3 2 9q-9 -13 -9 -21q0 -4 4 -4q2 0 8 3q22 18 31 51v-5v-4q3 -3 3 -8q0 -3 -7 -15l-12 -19l-14 -18q5 3 17 9l-2 -2q-3 -3 -8 -6.5t-10 -11.5l-12 -15l-6 -7q-9 -9 -19 -12q-9 0 -14 6q-9 3 -3 13q2 2 3.5 5
t4.5 6l1 1l-10 -1q25 18 42 19q1 0 2.5 1t3.5 1h1h3l9 13q-6 -6 -10.5 -6.5t-7.5 -0.5q-7 0 -7 7q0 18 31 47l3 1l15 15q3 6 6 10.5t5 9.5zM612 364q-9 3 -15 3q-15 0 -28 -3.5t-26 -11.5q-6 -3 -10 -6.5t-8 -6.5q18 -2 48 -20q33 33 57 42zM643 358q-6 -1 -12.5 -3.5
t-14.5 -9.5q-4 -3 -22 -21l-11 -11l15 -9q3 5 9 11.5t14 15.5zM657 384q0 -2 -2 -3q0 -11 -4 -21l1 -2h-1q-8 -18 -20 -30l-24 -28q3 -2 4.5 -2t4.5 -1q0 -3 -1 -3q-3 0 -4.5 0.5t-4.5 2.5q-18 -20 -20 -36q-3 -6 -3 -9q0 -6 6 -6q12 0 26 19l6 9q15 21 19 38v4q0 -1 2 -3
v-1q-3 -21 -15 -39l-20 -39q0 6 5 19q-18 -13 -27 -13q-14 0 -11 18q0 9 6 20t15 25l-15 7l-13 -13q-5 -6 -13 -15t-20 -24q-24 -24 -42 -24h-5q-4 0 -13 4h3q13 -3 27 11q-12 -6 -29 -6q-16 0 -27 7h2q-15 11 -15 32q0 15 6 22q9 24 34 41q9 7 17.5 9.5t17.5 3.5
q15 0 21 -6h-2q-3 3 -13 3q-15 0 -38 -13q-16 -12 -28 -26q-14 -21 -14 -37q0 -24 23 -32q9 -3 13 -3q32 2 69 42l29 30q-23 14 -51 14h-2q-3 -6 -3 -14q2 0 8 -9q-11 6 -11 15q0 5 2 8q-15 -3 -20 -6q-27 -11 -24 -32q0 -13 9 -24l3 -3q-18 18 -18 32q0 19 18 33
q15 10 38 10q21 24 52 29q8 1 24 1q8 0 23 -3l18 -4h9l1 -2q6 11 9 26h2v-3zM676 286q0 -4 -1 -7q-8 -8 -13 -14t-10 -13h2h1q-1 -2 -3 -2q-1 0 -1 -1q-8 0 -8 3q0 6 14 19q10 14 10 17q2 4 -4 9q-18 -26 -32 -32l-6 -3l-3 2q6 0 20 15q13 12 18 19q0 2 -1 2t-1 1q0 2 11 11
q0 1 1 1l2 -1q0 -2 -8 -12q12 -5 12 -14zM720 291q0 9 -6 6q-6 0 -9 -3q-5 -3 -14 -15t-9 -20q-1 -3 3 -3q9 3 15 11q6 12 6 16q0 3 -1 3q6 0 6 -7l-2 -3q3 3 5.5 6.5t5.5 6.5v2zM748 304q-6 0 -13 -7q-6 -8 -12 -17l-14 -21q-7 -15 -13 -23t-8 -11q-19 -24 -30 -24
q-9 -2 -13 6v7q0 8 6 14q-3 -2 -8 -2q15 15 33 20q2 0 2.5 0.5t3.5 0.5l2 -1q-29 -9 -35 -27q-1 -3 -1 -8q0 -1 1 -3q0 -1 2 -1q12 -2 28 22l11 15l6 9q-5 -1 -8 -1q-12 0 -12 12q0 13 20 31q9 9 16 9q11 0 11 -12h1l8 9q7 8 13 8q5 0 8 -5h-5zM775 294q0 -9 -16 -18
q-2 -2 -3 -2h-2q-4 0 -9 8q3 -3 8 -3q10 6 13 16v3v2v1q-6 0 -19 -13v-2q-5 -6 -5.5 -9.5t-0.5 -6.5q-2 1 -2 9q-3 -6 -4 -11q-3 -6 -3 -10q0 -2 1 -3q0 -3 6 -3q15 6 26 15q3 3 7 6q-3 -5 -6 -8.5t-10 -8.5q-12 -7 -21 -4q0 -2 -2 0q-9 0 -9 9q0 15 17 30q9 13 24 13
q3 0 4 -1q6 -5 6 -9zM835 345q0 -6 -48 -63q-13 -17 -13 -26q0 -4 4 -4q9 0 20 15q1 1 2.5 2t3.5 4q0 -8 -12 -17q-8 -6 -18 -6q-8 3 -8 9q0 12 29 47l18 22l9 9q9 9 9 15q4 -3 4 -7zM916 298q-25 9 -27 29q-7 -5 -14.5 -8.5t-12.5 -8.5q-28 -27 -28 -49q0 -9 4 -11h3h3
q23 0 42 15q6 6 14.5 13.5t15.5 19.5zM946 342h-12q-18 -2 -43 -14q3 -21 28 -25l11 13zM973 369q-19 0 -35 -3t-28 -11q8 8 19 12.5t25 7.5q-30 1 -53 -18q-4 -3 -10 -15q10 3 20 4.5t22 -0.5h7.5t11.5 -1q3 4 8.5 10t12.5 14zM1068 370q-3 -4 -7 -8t-11 -7q-12 -7 -23 -7
h-3q-1 0 -3 1q2 2 2 3.5t3 4.5q-14 10 -38 10l-6 -7l-15 -18q12 -2 22.5 -3.5t19.5 -1.5q21 0 29 5q-6 -6 -23 -9q-13 -3 -27 1l-24 5q-6 -8 -11 -13t-8 -11l-11 -15h8q37 3 43 18h2q-5 -9 -20 -17q-7 -3 -14 -4.5t-13 -1.5h-7q-11 -12 -17.5 -21t-12.5 -15q-20 -21 -36 -21
q-8 2 -17 2q15 0 32 15q-21 -9 -33 -9l-9 1l12 -12q-12 6 -20 14q-1 0 -7 3q-18 13 -20 34v14t3 12q5 13 12.5 23t17.5 20q26 23 45 23q11 0 18 -6l-1 -2q-5 5 -14 5q-19 -3 -40 -20q-18 -15 -27 -30q-12 -21 -12 -39q3 -27 24 -34q-3 9 -2 18q3 22 17 39q16 21 45 33
q3 3 3 9l13 13q20 17 51 17h13t13 -2h1q11 8 19 11.5t17 2.5q6 0 9 -3l-16 -3q-3 -2 -7 -3.5t-8 -4.5l12 -2t13 -4q15 -4 24 -4q14 0 20 1zM976 265q-4 5 -4 11q0 3 0.5 5t0.5 5q-15 -19 -13 -28q0 -3 3 -3t13 10zM996 297q0 3 -3 3t-6 -2q-2 -1 -5 -7q-7 -15 -7 -20
q0 -4 1 -6l5 5v1v-1q1 1 1 2t2 2q3 9 3 12q0 2 -2 3q3 -6 3 -7q5 4 8 15zM1002 292q0 -7 -11 -22q-13 -14 -19 -18h-12q-9 0 -9 7q0 12 16 32q11 13 24 13q11 0 11 -12zM1051 295q2 -3 -6 -16q-9 -12 -12 -15l-18 -17q-10 -10 -13 -22q1 18 13 31q6 6 9 10.5t6 10.5q2 2 3 6
v-4l-1 -3q3 3 9 15q0 1 0.5 2t0.5 2q0 8 -7 5l-12 -9q-3 -8 -8.5 -13t-11.5 -13q-7 -9 -9 -13l-7 -14q0 3 -1 7t1 7q3 10 13 21l9 10q8 11 8 17q0 1 -1 2.5t-1 3.5q9 -3 9 -9q9 7 20 7q6 -3 7 -9zM1110 316h-23q-1 -3 -9.5 -12t-20.5 -25q-3 0 -6 -8q-6 -7 -6 -15q0 -4 3 -4
q8 0 21 15l2 1q1 2 1 2.5t2 2.5q0 -8 -11 -17q-7 -6 -18 -6q-7 3 -9 9q0 3 6 15l18 21l17 21l-26 3q-6 2 -15 2h-13q-18 0 -36 -8h-2q15 15 47 15q1 0 12.5 -2t32.5 -5l4 -2q5 8 8.5 13t6.5 10q3 -2 3 -8q0 -4 -3 -7l-6 -9l12 -2h9h2h4h-7zM1120 297q0 -5 -10 -9l-2 -2
q5 5 5 12v6h-5q-7 0 -9 -6q0 -3 5 -25q1 -21 -24 -21q-14 0 -17 9q-1 1 -1 4q0 12 18 15l6 -1h-3q-6 0 -9 -3q-5 -8 -5 -11q0 -12 12 -12t12 17q0 7 -1 12q-2 4 -2 10q0 15 14 15q3 0 4.5 -0.5t4.5 -0.5q6 -3 6 -5q1 -1 1 -4z" />
    <glyph glyph-name="oslash" unicode="&#xf8;" horiz-adv-x="484" 
d="M200 731q2 7 9.5 10t15 1.5t14 -7t7.5 -14.5l-9 -69q21 -7 44.5 -21t39.5 -36q13 -19 13.5 -28.5t-25.5 -9.5q-25 0 -49 -17t-46 -46l-54 -392q31 26 66 86q-15 28 -21 56t-6 55.5t4.5 53.5t11.5 50q4 16 13.5 36.5t23 36.5t30.5 24t35 -2q31 -16 45 -44t15 -63.5
t-9 -77.5t-28 -85q27 5 50 23t42.5 45.5t35.5 62t30 72.5q4 12 13.5 12.5t18.5 -6.5t14 -19t1 -25q-24 -77 -49 -129.5t-54 -83.5t-64.5 -41.5t-81.5 -2.5l-17 -30q-23 -38 -58 -70t-77 -46l-5 -45q-1 -10 -8.5 -13.5t-16 -2.5t-15.5 7t-7 16l4 31q-29 3 -52 20.5
t-40.5 45.5t-28 64t-14.5 75q-5 50 -0.5 104.5t17.5 106.5t34 99.5t48 83t60 57t70 22.5h1zM152 385q-23 -50 -39 -103.5t-22.5 -97.5t-2.5 -73t21 -31z" />
    <glyph glyph-name="eth" unicode="&#xf0;" horiz-adv-x="437" 
d="M-20 563q15 70 46.5 115.5t71 67t82 18.5t79.5 -30q31 -26 54 -69l43 18q29 -8 33 -27.5t-14 -39.5l-38 -15q13 -47 18 -101.5t1 -111.5t-17 -112.5t-35.5 -104t-54 -88t-72.5 -62.5q-60 -34 -107 -24.5t-78 47.5t-44 96.5t-4.5 121.5t40 123.5t90.5 103.5q40 28 78.5 31
t70.5 -13q-1 11 -2 22.5t-3 22.5l-30 -12q-15 -1 -25 7.5t-13 20t1.5 23t17.5 17.5l23 9q-4 5 -8.5 10.5t-9.5 10.5q-11 10 -21 15t-19.5 -1t-18 -27.5t-15.5 -64.5q0 -21 -17 -30.5t-38.5 -8.5t-41 11.5t-23.5 30.5zM203 309q10 52 -4 77t-36.5 20t-47 -40t-36.5 -101
q-7 -38 -4 -69.5t12.5 -51.5t23.5 -26.5t29.5 5.5t30 44.5t24.5 91.5q3 11 5 23t4 25z" />
    <glyph glyph-name="brokenbar" unicode="&#xa6;" horiz-adv-x="161" 
d="M-241 1141q-2 8 4 13t15.5 5.5t19 -3t14.5 -12.5q33 -127 65.5 -253t65.5 -254q2 -6 -5 -9.5t-17 -4.5t-20.5 2.5t-14.5 11.5zM-10 451q31 -121 63 -242.5t62 -242.5q-2 -9 -10.5 -13t-18 -4t-18.5 4t-13 12l-121 482q-2 6 5 10t17 5t20 -1.5t14 -9.5z" />
    <glyph glyph-name="minus" unicode="&#x2212;" horiz-adv-x="677" 
d="M174 312q-16 4 -25.5 22t-11.5 38t4 37t21 18h298q15 -8 23 -24.5t9.5 -34.5t-3.5 -34t-17 -22h-298v0z" />
    <glyph glyph-name="multiply" unicode="&#xd7;" horiz-adv-x="621" 
d="M241 298l-58 -92q-12 -12 -27.5 -5.5t-28.5 22t-18 36t4 36.5l60 91l-84 110q-18 24 -22 47t3 35.5t23.5 11.5t37.5 -23l87 -112l78 118q13 7 26.5 1.5t23.5 -19t14.5 -31t-0.5 -34.5l-75 -122l75 -95q13 -25 15.5 -45t-4 -31t-20.5 -10.5t-34 15.5z" />
    <glyph glyph-name="germandbls" unicode="&#xdf;" horiz-adv-x="552" 
d="M176 -69q46 -2 78 13t51 42t26.5 63t6.5 77q-1 79 -35.5 128.5t-106.5 57.5q-18 1 -27 13.5t-10 27.5t6 28.5t22 17.5q40 3 76.5 25t64 59.5t43.5 89t15 113.5q0 12 -3 36.5t-12.5 48.5t-26.5 42.5t-45 18.5q-32 0 -53.5 -17.5t-36.5 -47.5t-25.5 -70.5t-18.5 -87.5
q-10 -59 -19 -134t-17.5 -156t-16 -163.5t-15 -155.5t-15.5 -132t-16 -93q-2 -20 -19 -33.5t-38 -16.5t-39 5.5t-22 32.5q0 1 2 30.5t4.5 79t5.5 114t7 136t7.5 146.5t7.5 144q3 60 9 125t17.5 127.5t30.5 118.5t49.5 98.5t74 68t103.5 26.5q56 -1 102.5 -24t80 -65
t52.5 -101.5t22 -132.5q3 -64 -14.5 -117t-45.5 -93.5t-61.5 -67t-63.5 -36.5q26 -8 47 -25.5t37.5 -41t27.5 -51t16 -55.5q16 -79 -7 -144.5t-69 -109t-105.5 -60.5t-116.5 0q-11 5 -18.5 18t-8.5 27t7 24t28 9z" />
    <glyph glyph-name="quotedblleft" unicode="&#x201c;" horiz-adv-x="500" 
d="M32 932q15 -28 14.5 -51t-11 -33.5t-30 -4t-41.5 38.5q-14 24 -23 52t-12.5 57.5t-3 58t4.5 53.5q4 11 12 12.5t16.5 -4t14 -16t3.5 -23.5q-3 -16 2 -34.5t14 -37.5t20 -36.5t20 -31.5zM188 934q15 -28 14.5 -51.5t-11.5 -34t-30 -4t-42 38.5q-15 24 -23.5 52t-12.5 57.5
t-3.5 58.5t4.5 54q4 11 12.5 12t17 -4.5t13.5 -16t3 -22.5q-3 -17 2.5 -35.5t15 -37t20.5 -36t20 -31.5z" />
    <glyph glyph-name="quotedblright" unicode="&#x201d;" horiz-adv-x="500" 
d="M88 998q-15 28 -14.5 51.5t11.5 34t30 4t42 -38.5q14 -24 23 -52t12.5 -57.5t3 -58.5t-4.5 -54q-4 -11 -12 -12t-16.5 4.5t-14 16t-3.5 22.5q3 16 -2.5 35t-14.5 37.5t-20 36t-20 31.5zM-67 997q-15 28 -14.5 51t11 33.5t29.5 4t42 -38.5q15 -24 23.5 -52t12.5 -57.5
t3.5 -58t-4.5 -53.5q-4 -11 -12.5 -12t-16.5 4t-13 15.5t-3 23.5q3 16 -2.5 34.5t-15 37.5t-20.5 36.5t-20 31.5z" />
    <glyph glyph-name="quoteleft" unicode="&#x2018;" horiz-adv-x="327" 
d="M32 932q15 -28 14.5 -51t-11 -33.5t-30 -4t-41.5 38.5q-14 24 -23 52t-12.5 57.5t-3 58t4.5 53.5q4 11 12 12.5t16.5 -4t14 -16t3.5 -23.5q-3 -16 2 -34.5t14 -37.5t20 -36.5t20 -31.5z" />
    <glyph glyph-name="quoteright" unicode="&#x2019;" horiz-adv-x="327" 
d="M-67 997q-15 28 -14.5 51t11 33.5t29.5 4t42 -38.5q15 -24 23.5 -52t12.5 -57.5t3.5 -58t-4.5 -53.5q-4 -11 -12.5 -12t-16.5 4t-13 15.5t-3 23.5q3 16 -2.5 34.5t-15 37.5t-20.5 36.5t-20 31.5z" />
    <glyph glyph-name="divide" unicode="&#xf7;" horiz-adv-x="584" 
d="M214 514q-5 34 8.5 57.5t37.5 23.5q23 0 43.5 -23.5t25.5 -57.5q5 -35 -9 -58t-37 -23q-24 0 -44 23t-25 58zM200 202q-5 33 8.5 57t37.5 24q23 0 43.5 -24t25.5 -57q5 -35 -8.5 -58.5t-36.5 -23.5q-24 0 -44.5 23.5t-25.5 58.5zM127 330q-15 3 -23 14.5t-8 24.5
t7.5 23.5t22.5 10.5h294q13 -5 19.5 -15.5t6 -22t-6.5 -21.5t-18 -14h-294z" />
    <glyph glyph-name="guilsinglleft" unicode="&#x2039;" horiz-adv-x="832" 
d="M479 767q16 10 31.5 2t25.5 -24.5t11.5 -36.5t-11.5 -33q-78 -69 -150 -147.5t-149 -150.5q71 -34 141.5 -73.5t141.5 -68.5q17 -13 25.5 -30.5t8.5 -32.5t-9 -24.5t-26 -7.5q-46 19 -92 43t-92.5 48t-92.5 47.5t-92 42.5q-27 16 -37 43.5t3 49.5q48 40 93 85.5t89.5 91
t89 90.5t91.5 86z" />
    <glyph glyph-name="guilsinglright" unicode="&#x203a;" horiz-adv-x="790" 
d="M193 161q-16 -10 -31.5 -2t-25.5 24.5t-11.5 36t11.5 33.5q39 34 76 71.5t74 76l74 77t75 74.5q-72 33 -142 72.5t-142 68.5q-17 13 -25 30.5t-8 32.5t9 24.5t26 7.5q46 -20 92 -43.5t92 -47.5t92 -47t93 -42q27 -16 36.5 -44t-2.5 -50q-48 -41 -93 -86t-89.5 -90.5
l-89 -91t-91.5 -85.5z" />
    <glyph glyph-name="Lslash" unicode="&#x141;" horiz-adv-x="1047" 
d="M540 1126q14 -9 20.5 -21.5t5.5 -23t-9 -16t-23 1.5q-25 12 -66.5 24t-89 19t-94 7t-81.5 -11t-53 -37t-6 -71q8 -32 32 -57t58.5 -44t77.5 -31.5t88 -20.5t90 -11.5t84 -1.5h16q9 0 17 1q34 104 70 197.5t75.5 166.5t83.5 117.5t94 50.5q32 4 63 -3t58 -24.5t47.5 -47.5
t31.5 -72q27 -109 8.5 -201t-72 -162t-136 -115.5t-182.5 -61.5q-22 -86 -45 -173l41 10q16 -3 25.5 -14.5t12 -25.5t-1.5 -27.5t-16 -20.5l-87 -22q-12 -42 -25 -84q-26 -87 -56 -168.5t-68 -148.5q23 -15 43 -26.5t41 -19.5t44.5 -12.5t53.5 -2.5q37 1 67 8.5t55.5 25
t48.5 47t46 74.5q6 11 13.5 9t15 -12.5t12.5 -26t5 -29.5q2 -53 -16 -105t-49 -93t-72 -67t-84 -26q-49 0 -90.5 12t-78.5 31.5t-72.5 45.5t-70.5 54q-48 -59 -105.5 -90t-125.5 -28q-75 3 -130 35t-87.5 79t-43.5 101.5t2 101t50.5 77t101.5 30.5q80 0 143 -27t118 -65
q25 53 49 119q23 60 45 126l-42 -10q-17 0 -27.5 12.5t-14 28t1.5 30.5t20 19l95 22q9 31 19 63l48 158q-95 5 -176.5 26t-144.5 59.5t-105.5 95t-59.5 132.5q-15 71 -1.5 118t47 72t83 32t106.5 -1.5t117.5 -30t116.5 -50.5zM980 1232q-29 -7 -55 -36.5t-49 -76.5
t-45 -108.5t-43 -132.5q69 32 117.5 78t93.5 93q8 9 17.5 29t17 42t9.5 45.5t-2.5 40t-19 25t-41.5 1.5zM192 -67q29 -4 55.5 12.5t53.5 50.5q-31 17 -64 28t-68 14q-40 3 -65 -9t-26 -30.5t25 -37t89 -28.5z" />
    <glyph glyph-name="lslash" unicode="&#x142;" horiz-adv-x="343" 
d="M4 665q-16 0 -27 12t-14.5 28t1.5 30.5t20 19.5l54 12q16 63 35.5 121.5t43 103.5t51.5 72t61 27q27 -1 47 -16t33 -36.5t19.5 -47t5.5 -47.5q-2 -49 -12 -107l10 3q16 -3 25.5 -14.5t12 -25.5t-1.5 -27.5t-15 -20.5l-54 -14q-15 -54 -35.5 -107.5t-44 -100t-49 -83
t-52.5 -54.5q-9 -60 -6 -115.5t12.5 -97.5t22.5 -67t22 -25q22 0 42 18t37.5 47.5t33 67t29 76.5t25.5 75.5t22 64.5q4 12 13.5 11.5t18 -9t13 -21.5t0.5 -25q-11 -31 -25 -73.5t-30.5 -88t-36 -89.5t-42 -79t-48.5 -56.5t-55 -21.5q-68 0 -110.5 52t-62.5 135t-18.5 186
t20.5 205q4 24 8.5 50.5t10.5 54.5zM268 1011q-5 0 -12.5 -16t-16.5 -43.5t-19 -64.5t-20 -79l64 15q9 38 14.5 72t6.5 59.5t-3 40.5t-14 16zM140 515q26 31 51.5 87t45.5 120l-60 -14q-11 -51 -20.5 -101t-16.5 -92z" />
    <glyph glyph-name="Scaron" unicode="&#x160;" horiz-adv-x="1084" 
d="M958 960q-6 -13 -11.5 -17t-10.5 -1t-10 11t-10 20q-13 30 -43.5 54.5t-75.5 41.5t-103.5 26.5t-127.5 9.5q-60 0 -114 -8.5t-93.5 -23.5t-61.5 -35t-17 -43q4 -22 30.5 -37t67 -29t92.5 -30t108.5 -40.5t113.5 -60.5t108.5 -89t93.5 -126t68 -173q28 -107 27.5 -208
t-26 -189t-75 -161t-120 -125t-160 -80.5t-194.5 -27.5q-98 1 -184.5 28t-156 81t-120 136.5t-77.5 195.5q-21 87 -12.5 171t49 151.5t112.5 113t179 56.5q33 4 73 5t82 -6.5t84 -25t81.5 -50t73.5 -82t60 -119.5q5 -13 2.5 -21t-9.5 -8.5t-16.5 6t-18.5 23.5
q-21 40 -50.5 66.5t-64 42.5t-71.5 23.5t-71.5 9t-65 -2t-51.5 -7.5q-62 -13 -111 -45.5t-82.5 -76t-49.5 -92.5t-10 -94q8 -61 33 -106t59.5 -76t75 -50t79 -30t72.5 -14.5t55 -3.5q68 0 139 19.5t136 56t120 89t90.5 119t48 145t-7.5 167.5q-14 62 -51 104.5t-89 73
t-114.5 52.5t-127 42.5t-127.5 44t-115.5 56t-90.5 78.5t-53 112q-13 59 3.5 116.5t65 104t130 76t198.5 31.5q45 1 94.5 -4.5t97 -15t91 -23t77.5 -29t56 -33t27 -35.5q17 -63 15.5 -113.5t-18.5 -91.5zM807 1512q0 -2 -12.5 -13t-31.5 -26.5t-42 -32.5t-44 -30.5t-37 -21
t-21 -3.5q-5 3 -11.5 16t-13.5 31.5t-14.5 39.5t-13 39t-9.5 30t-4 13q-2 26 11 31t27 -20q7 -12 11 -20t7.5 -15.5t8.5 -15.5t14 -20q33 13 76 32.5t77 35.5q12 1 19 -4.5t10 -14t1.5 -17.5t-8.5 -14z" />
    <glyph glyph-name="scaron" unicode="&#x161;" horiz-adv-x="376" 
d="M77 -8q-29 1 -55 19t-46 46.5t-32.5 66t-13.5 79.5q-2 26 0.5 51t9.5 45t18.5 34t27.5 18q10 29 21.5 65.5t22 72t19.5 66t15 48.5q-4 68 2 113t19 72t31.5 38t39.5 11t35 -14.5t20.5 -34.5t6 -41.5t-6.5 -35.5q-5 -11 -13.5 -30t-26.5 -47l-24 -42q8 -38 22 -83.5
t29 -94.5t27.5 -99t17.5 -98q4 -42 -2 -78q22 18 43.5 53t41 78t36.5 87t30 80q4 12 13.5 11.5t18 -9t13 -21.5t0.5 -25q-11 -31 -23.5 -73.5t-29.5 -88t-41.5 -89t-61 -78t-86 -55t-117.5 -19.5zM342 1070q0 -2 -12.5 -13t-31.5 -26.5t-42 -32.5t-44 -31t-37 -21.5
t-21 -3.5q-7 4 -18 30.5t-21.5 57t-18 55.5t-7.5 27q-3 26 10 31t27 -20q7 -12 11 -20t7.5 -16t8.5 -16t14 -20q16 6 36 15l40 18t40 18.5t37 17.5q12 1 19 -4.5t10 -14t1.5 -17.5t-8.5 -14zM90 490q-12 -29 -24 -72t-26 -85q13 -13 22.5 -29t13.5 -32q5 -25 3 -39t-9 -30
q-6 -8 -14 -10.5t-9 9.5q-4 23 -12 31.5t-15.5 4.5t-12 -20t-0.5 -42q4 -23 12 -39.5t17 -27.5t17.5 -16.5t14.5 -5.5q23 -2 34.5 17.5t14.5 53.5t0 77.5t-8.5 89t-11 89t-7.5 76.5z" />
    <glyph glyph-name="Yacute" unicode="&#xdd;" horiz-adv-x="1098" 
d="M330 -449q48 0 92 28t83.5 77.5t75.5 118.5t68 151q-40 11 -75 16t-62 3q-65 -2 -130 -28.5t-114.5 -70.5t-75.5 -101.5t-11 -119.5q6 -25 21 -39.5t35 -22t44.5 -10t48.5 -2.5zM1017 1267q7 22 29.5 31.5t46 8t40.5 -14t13 -33.5q-13 -65 -27.5 -158t-32 -204.5
t-38.5 -236.5t-47.5 -253.5t-59 -255.5t-73.5 -243q24 -21 48 -45.5t50 -51.5q9 -10 12.5 -21t1.5 -19t-9 -11t-18 2q-26 23 -53.5 43.5t-56.5 37.5q-40 -104 -87.5 -193t-104.5 -154t-124.5 -100t-147.5 -30q-64 4 -112 25.5t-82 56t-54.5 79.5t-29.5 95q-15 84 -1.5 162.5
t59.5 141t126 102t196 45.5q115 -3 206 -44q25 73 48 150.5t44 157.5t40.5 161t37.5 159q-42 -98 -87 -189.5t-91.5 -162t-94.5 -112.5t-95 -42q-50 0 -86.5 26.5t-61.5 63.5t-39.5 76t-19.5 64q-14 68 -2.5 142t38 150.5t64 152.5t76 147.5t73 135.5t55.5 117
q-44 5 -106 -22.5t-128.5 -76.5t-130 -113t-111 -131t-71.5 -131.5t-11 -114.5q8 -31 21.5 -60t39.5 -41q13 -5 20.5 -17.5t8 -25t-5.5 -21.5t-20 -6q-19 2 -50 10t-64.5 30t-64.5 62.5t-50 107.5q-21 75 -11.5 143.5t42 130t84.5 115.5t115.5 97.5t134.5 77.5t142 55.5
t138.5 31t123.5 4.5q31 -3 49.5 -12t27.5 -23t9 -32t-7 -39q-5 -14 -23 -61t-43 -114.5t-53.5 -148.5t-55 -164t-47.5 -161.5t-30.5 -139.5t-3.5 -99t33 -40q22 -2 58 34t79 95.5t89 135.5t88 155t77.5 153.5t57.5 131.5q21 89 41 157t39 108zM870 1404q-3 8 6 31t23 51.5
t30.5 57.5t28.5 49q11 13 25.5 7t26 -20.5t16.5 -33t-3 -31.5q-20 -26 -53.5 -64t-75.5 -71q-11 -2 -16 8z" />
    <glyph glyph-name="yacute" unicode="&#xfd;" horiz-adv-x="558" 
d="M621 392q-17 -42 -32 -91.5t-37.5 -103t-56.5 -108.5t-88 -107q-7 -7 -13.5 -12.5t-12.5 -11.5q-5 -57 -11 -116t-14 -122t-25.5 -99.5t-40 -55.5t-46 -24t-42.5 -3q-19 1 -37.5 11.5t-34.5 27t-28 38.5t-18 48q-10 42 -1.5 77t29.5 66t51.5 58.5t65.5 54.5q2 50 5.5 97
t8.5 92q-31 -56 -66 -89.5t-65 -33.5q-48 0 -76.5 34t-42 87t-13.5 118t10 127q4 27 9 57.5t10.5 61t10.5 59t8 52.5q1 5 2 14.5t1.5 20t0.5 20.5t-1 16q-3 13 8.5 10.5t27.5 -8.5q9 -4 27.5 -18t37 -31.5t33 -35t17.5 -29.5q1 -3 -3 -25t-10.5 -53.5t-14.5 -69t-15 -71.5
t-12 -60.5t-6 -35.5q-3 -24 -4.5 -48.5t-0.5 -44t4.5 -32t11.5 -12.5q13 1 31.5 18.5t37.5 46.5t36 67.5t26 80.5q3 40 10.5 89t13.5 97t9 92t-1 76q-1 6 2 7.5t8.5 0t12.5 -5.5t14 -9q10 -5 24.5 -20t29 -33t26 -36t14.5 -30q4 -20 4 -53t-3 -73.5t-8 -86t-10 -90t-10 -86
t-8 -74.5q34 41 59 82t45.5 85.5t39 94.5t40.5 110q4 12 13.5 11t18 -9.5t13.5 -21.5t1 -26zM159 739q-3 8 6 31t23 51.5t30.5 57.5t28.5 49q10 13 24.5 7t26 -20.5t17 -33t-2.5 -31.5q-20 -26 -53.5 -64t-75.5 -71q-11 -2 -16 8zM224 -176q-45 -41 -70.5 -75.5t-18.5 -69.5
q5 -25 18 -38t27 -12q28 2 35 47t9 122v26z" />
    <glyph glyph-name="Thorn" unicode="&#xde;" horiz-adv-x="833" 
 />
    <glyph glyph-name="thorn" unicode="&#xfe;" horiz-adv-x="161" 
d="M96 280q-5 -19 -10 -36.5t-10 -34.5q8 -62 17 -122.5t18 -120.5q-3 -9 -12 -13t-19 -4t-18 4t-11 12l-18 126q-23 -48 -52.5 -76t-68.5 -29q-51 -1 -89.5 21.5t-66 62t-43 93.5t-21 115.5t-1 128t18.5 132.5q15 67 33.5 142.5t42 147t52 131t62.5 93.5q-4 22 -6.5 44
t-5.5 44q-2 8 5 13t16.5 5.5t19 -3t12.5 -12.5q2 -15 4.5 -30.5t4.5 -29.5q5 2 10 3t10 1q26 1 45 -13t31 -35.5t17.5 -48t5.5 -49.5q-1 -48 -18 -117t-44 -143l12 -80q3 20 8.5 37t15.5 30t24.5 19.5t36.5 5.5q23 -1 35 -19.5t15.5 -46.5t1 -62t-8 -66t-12 -58.5
t-10.5 -39.5q1 -11 6.5 -27t14 -32t19.5 -27.5t22 -11.5q17 -1 31.5 11t27 31.5t23 45.5t20.5 53q5 13 13.5 14.5t16.5 -5t12.5 -19.5t1.5 -28q-9 -40 -23 -77.5t-31 -66t-38 -45.5t-44 -16q-15 0 -27 3.5t-24 12.5t-24 24t-26 38zM-88 73q16 0 30.5 13.5t26.5 36t22.5 53
t20.5 66.5l-47 336q-16 -36 -33 -67.5t-34.5 -57t-34 -43t-31.5 -24.5q-12 -60 -10 -117t14 -101t32 -70t44 -25zM-146 512q25 29 49.5 76t46.5 102l-18 126q-21 -75 -42 -156.5t-36 -147.5zM5 1009q-5 0 -14 -19.5t-20 -51.5l19 -132q11 41 19 78t10.5 64.5t-1 44
t-13.5 16.5z" />
    <glyph glyph-name="Zcaron" unicode="&#x17d;" horiz-adv-x="1372" 
d="M493 -398q87 -1 161.5 27.5t137 77.5t112.5 113.5t88 136.5q-48 68 -110 116t-130.5 76.5t-139 38t-135.5 0.5t-120.5 -36t-93.5 -71t-55 -105t-4 -138q8 -47 31 -89.5t59.5 -74.5t86.5 -51.5t112 -20.5zM556 1098q8 -36 26 -53.5t40 -19.5q32 -4 67 12.5t72 42.5
t75 57.5t77.5 59.5t79.5 47.5t81 21.5q40 2 74 -30.5t55 -98.5q20 -70 8 -133t-40.5 -123.5t-66.5 -120t-71 -120.5q11 1 22.5 1h22.5q24 0 49.5 -14t49 -37.5t43.5 -55.5t33 -69q18 -62 20 -134t-10.5 -148t-39 -153t-65.5 -150q27 -49 38 -104.5t9 -109.5t-15.5 -102.5
t-36 -85t-51.5 -56.5t-63 -16q-15 2 -25 11t-13 19.5t1.5 20.5t16.5 14q23 8 39.5 36t24.5 68t8 87t-10 94q-49 -66 -108 -122t-126.5 -97.5t-143.5 -65.5t-160 -25q-92 -2 -171 32.5t-138.5 91t-98 127t-49.5 141.5q-15 99 4.5 176.5t63.5 134.5t109.5 92.5t142.5 50
t162 7.5t168.5 -35.5t161.5 -78.5t142 -121q22 56 35.5 115t18.5 113.5t2.5 101t-11.5 76.5q-10 29 -26.5 42t-31.5 13t-29 -7t-25.5 -17t-21 -21.5t-16.5 -20.5q-8 -8 -24.5 -2t-33 19t-28 29.5t-9.5 30.5q3 29 20 69t41.5 85.5t53.5 94t57.5 95t52.5 87.5t38.5 71.5t16 48
t-15.5 16.5q-22 -1 -52.5 -23t-68.5 -54t-82.5 -68.5t-95 -66.5t-106 -49t-115.5 -15q-22 2 -47.5 13.5t-50 34t-45.5 57t-34 82.5q-12 45 -10 84.5t15.5 69t37.5 46.5t56 17q15 0 31.5 -4t33.5 -15q20 -12 20 -28t-13 -19q-2 -1 -6.5 -5.5t-9 -13t-7 -20.5t0.5 -28z
M973 1450q0 -1 -12.5 -12t-31.5 -26.5t-42 -32.5t-44 -31t-37 -21.5t-21 -3.5q-5 3 -11.5 16t-13.5 31.5t-14 39.5l-13 39t-9.5 30t-3.5 13q-3 26 10 31.5t27 -19.5q7 -12 11 -20t7.5 -16t8.5 -16t14 -20q16 6 36 15l40 18t40 18.5t37 17.5q12 1 19 -5t10 -14.5t1.5 -17.5
t-8.5 -14z" />
    <glyph glyph-name="zcaron" unicode="&#x17e;" horiz-adv-x="439" 
d="M53 371q-5 -13 -14 -12.5t-18 8t-14 20.5t-1 26q8 20 17.5 60.5t14.5 94.5q-19 31 -24.5 64t-0.5 64q8 48 30.5 75t45.5 28q20 1 36.5 -13.5t26 -36.5t11.5 -47.5t-6 -46.5l-26 -66q13 8 22 12q16 8 39.5 11.5t48 -2.5t46.5 -23t36 -49q20 -45 20 -90.5t-12.5 -90
t-34.5 -87t-46 -81.5q22 -8 39.5 -25t30.5 -39q23 36 40.5 71t33 72.5t30 79.5t31.5 90q4 13 13.5 12t18 -10t13 -22.5t0.5 -25.5q-18 -47 -34 -92t-33 -87.5t-37 -83t-46 -79.5q16 -58 18.5 -122.5t-3.5 -119.5q-7 -62 -22 -115.5t-39 -93.5t-57 -62.5t-75 -22.5
q-28 0 -48 12.5t-33.5 30.5t-21.5 37.5t-12 33.5q-12 47 -2 92.5t35.5 91t62 92t76.5 96.5q-2 31 -5.5 49t-8 26t-9 10t-8.5 2q-5 -1 -11.5 -10.5t-12.5 -24.5t-11.5 -32.5t-8.5 -33.5q-5 -9 -18.5 -11t-28.5 2.5t-27 14.5t-12 23q-2 42 7 86.5t24 88t33 84t33.5 74
t25.5 58.5t10 38q-1 20 -9.5 27.5t-22 11t-31.5 6.5t-38 15q-11 -29 -22 -61.5t-25 -71.5zM153 -403q27 1 42.5 27t23.5 68t10.5 95t2.5 108q-29 -41 -52.5 -79.5t-39.5 -72t-23 -61t-2 -45.5q5 -19 14.5 -30.5t23.5 -9.5zM397 1001q0 -2 -12.5 -13t-32 -26.5t-42.5 -32.5
t-44 -30.5t-37 -21t-21 -3.5q-4 3 -11 16t-14 31.5t-14 39.5l-13 39t-9.5 30t-3.5 13q-2 26 10.5 31.5t26.5 -20.5q7 -12 11 -20t8 -15.5t9 -15.5t14 -20q33 13 76 32.5t77 35.5q11 1 18.5 -4.5t10.5 -14t1.5 -17.5t-8.5 -14z" />
    <glyph glyph-name="onehalf" unicode="&#xbd;" horiz-adv-x="1146" 
d="M39 456q-18 -16 -34.5 -5t-21.5 33q-3 11 -1.5 25t8.5 26q45 62 95.5 117.5t101.5 120.5q8 5 22.5 7.5t30.5 2.5q15 0 29.5 -2.5t26.5 -7.5t19 -13t6 -18q-27 -185 -54.5 -365.5t-55.5 -363.5h1q-8 -15 -29.5 -23t-47.5 -8q-15 0 -29 3t-25 9t-18 14.5t-7 19.5
q6 45 13.5 92.5t18 110.5t25 147t35.5 202l-3 2l-12 -14q-23 -27 -47 -54.5t-47 -57.5zM427 1102q3 11 12.5 15t20 2t19.5 -9.5t10 -20.5q-32 -277 -66.5 -551t-65.5 -551q-2 -14 -12 -19t-21.5 -3.5t-21 10t-9.5 22.5q32 277 67.5 552.5t66.5 552.5zM827 462
q-2 -20 -18.5 -29.5t-36.5 -9.5q-15 0 -29 4.5t-25.5 12t-19 18.5t-7.5 25q7 47 19.5 100.5t34.5 100t55 80t81 41.5q34 3 67.5 -7.5t61.5 -31.5t49 -51.5t31 -69.5q14 -55 10.5 -108t-20 -101.5t-42.5 -93t-55.5 -83.5t-60 -72.5t-55.5 -59.5l3 -7q44 5 88 11.5t100 11.5
q9 -12 9 -35t-5 -47t-14 -42t-18 -19q-33 0 -67 -0.5t-72.5 -1.5t-82.5 -1.5t-97 -0.5q-9 1 -17.5 8.5t-16 18t-13.5 23.5t-9 25q-4 15 -1.5 29t10.5 20q27 15 59 43.5t64.5 66t61.5 82t50 91.5q25 56 43.5 108t26.5 93t4 66.5t-22 28.5q-24 3 -44 -17t-35 -52t-25 -69.5
t-15 -70.5z" />
    <glyph glyph-name="onequarter" unicode="&#xbc;" horiz-adv-x="1221" 
d="M39 456q-18 -16 -34.5 -5t-21.5 33q-3 11 -1.5 25t8.5 26q45 62 95.5 117.5t101.5 120.5q8 5 22.5 7.5t30.5 2.5q15 0 29.5 -2.5t26.5 -7.5t19 -13t6 -18q-27 -185 -54.5 -365.5t-55.5 -363.5h1q-8 -15 -29.5 -23t-47.5 -8q-15 0 -29 3t-25 9t-18 14.5t-7 19.5
q6 45 13.5 92.5t18 110.5t25 147t35.5 202l-3 2l-12 -14q-23 -27 -47 -54.5t-47 -57.5zM427 1102q3 11 12.5 15t20 2t19.5 -9.5t10 -20.5q-32 -277 -66.5 -551t-65.5 -551q-2 -14 -12 -19t-21.5 -3.5t-21 10t-9.5 22.5q32 277 67.5 552.5t66.5 552.5zM888 14q8 36 14.5 68.5
t11.5 61.5l-207 -4q-15 3 -28.5 16t-23.5 30.5t-15 37t-2 36.5q18 24 47.5 71.5t64 104.5t71.5 118.5t70.5 115t61 92t43.5 50.5q10 6 36 5t53.5 -10.5t49.5 -27t25 -43.5q-9 -48 -18 -95t-17.5 -99.5t-18 -112.5t-20.5 -135l97 6q15 -8 17 -29.5t-4 -45.5t-18.5 -45.5
t-26.5 -29.5l-88 -2q-5 -37 -12.5 -73.5t-14.5 -71.5h1q-8 -17 -30 -26t-47 -9q-26 0 -48.5 11.5t-23.5 34.5zM939 288q4 29 12.5 72.5t19 93.5t22 103.5t20.5 103.5q-41 -74 -70.5 -124.5t-53.5 -91.5t-45 -78t-45 -83z" />
    <glyph glyph-name="onesuperior" unicode="&#xb9;" horiz-adv-x="332" 
d="M39 456q-18 -16 -34.5 -5t-21.5 33q-3 11 -1.5 25t8.5 26q45 62 95.5 117.5t101.5 120.5q8 5 22.5 7.5t30.5 2.5q15 0 29.5 -2.5t26.5 -7.5t19 -13t6 -18q-27 -185 -54.5 -365.5t-55.5 -363.5h1q-8 -15 -29.5 -23t-47.5 -8q-15 0 -29 3t-25 9t-18 14.5t-7 19.5
q6 45 13.5 92.5t18 110.5t25 147t35.5 202l-3 2l-12 -14q-23 -27 -47 -54.5t-47 -57.5z" />
    <glyph glyph-name="threequarters" unicode="&#xbe;" horiz-adv-x="1414" 
d="M215 559q-8 -16 -28 -16q-17 0 -37 13.5t-36.5 33.5t-26 43t-5.5 43q10 28 33.5 51.5t55.5 40.5t69.5 26.5t75.5 9.5q27 0 53.5 -6t49.5 -17.5t41.5 -29t29.5 -40.5q20 -53 15 -103t-26 -91.5t-53 -70t-66 -37.5q19 -8 37.5 -19t35 -26t28.5 -33.5t18 -40.5
q13 -50 6.5 -92.5t-26.5 -77t-50 -61t-64 -44.5t-69 -27.5t-65 -9.5q-36 0 -69.5 12t-61.5 35t-47.5 58t-26.5 81q-3 37 5 67t22.5 51t32.5 32.5t34 11.5q25 0 33.5 -22.5t6.5 -52.5q-4 -13 -9.5 -42.5t-5.5 -59.5t8.5 -53t32.5 -23q12 0 29.5 10.5t36 28t36 40.5t30.5 47
t18.5 47.5t0.5 43.5q-5 19 -22 31t-49 12q-8 0 -20 -1t-23 -3q-7 5 -14 14t-9 18q-4 14 -4 29t3.5 28.5t10 23t17.5 12.5q6 1 23.5 9t39.5 21.5t44.5 31t39.5 37.5q12 15 24.5 41.5t16 51.5t-7.5 42t-45 13q-13 -3 -31 -18t-36.5 -36t-34.5 -44.5t-25 -43.5zM620 1102
q3 11 12.5 15t20 2t19.5 -9.5t10 -20.5q-32 -277 -66.5 -551t-65.5 -551q-2 -14 -12 -19t-21.5 -3.5t-21 10t-9.5 22.5q32 277 67.5 552.5t66.5 552.5zM1081 14q8 36 14.5 68.5t11.5 61.5l-207 -4q-15 3 -28.5 16t-23.5 30.5t-15 37t-2 36.5q18 24 47.5 71.5t64 104.5
t71.5 118.5t70.5 115t61 92t43.5 50.5q10 6 36 5t53.5 -10.5t49.5 -27t25 -43.5q-9 -48 -18 -95t-17.5 -99.5t-18 -112.5t-20.5 -135l97 6q15 -8 17 -29.5t-4 -45.5t-18.5 -45.5t-26.5 -29.5l-88 -2q-5 -37 -12.5 -73.5t-14.5 -71.5h1q-8 -17 -30 -26t-47 -9
q-26 0 -48.5 11.5t-23.5 34.5zM1132 288q4 29 12.5 72.5t19 93.5t22 103.5t20.5 103.5q-41 -74 -70.5 -124.5t-53.5 -91.5t-45 -78t-45 -83z" />
    <glyph glyph-name="threesuperior" unicode="&#xb3;" horiz-adv-x="525" 
d="M215 559q-8 -16 -28 -16q-17 0 -37 13.5t-36.5 33.5t-26 43t-5.5 43q10 28 33.5 51.5t55.5 40.5t69.5 26.5t75.5 9.5q27 0 53.5 -6t49.5 -17.5t41.5 -29t29.5 -40.5q20 -53 15 -103t-26 -91.5t-53 -70t-66 -37.5q19 -8 37.5 -19t35 -26t28.5 -33.5t18 -40.5
q13 -50 6.5 -92.5t-26.5 -77t-50 -61t-64 -44.5t-69 -27.5t-65 -9.5q-36 0 -69.5 12t-61.5 35t-47.5 58t-26.5 81q-3 37 5 67t22.5 51t32.5 32.5t34 11.5q25 0 33.5 -22.5t6.5 -52.5q-4 -13 -9.5 -42.5t-5.5 -59.5t8.5 -53t32.5 -23q12 0 29.5 10.5t36 28t36 40.5t30.5 47
t18.5 47.5t0.5 43.5q-5 19 -22 31t-49 12q-8 0 -20 -1t-23 -3q-7 5 -14 14t-9 18q-4 14 -4 29t3.5 28.5t10 23t17.5 12.5q6 1 23.5 9t39.5 21.5t44.5 31t39.5 37.5q12 15 24.5 41.5t16 51.5t-7.5 42t-45 13q-13 -3 -31 -18t-36.5 -36t-34.5 -44.5t-25 -43.5z" />
    <glyph glyph-name="twosuperior" unicode="&#xb2;" horiz-adv-x="532" 
d="M213 462q-2 -20 -18.5 -29.5t-36.5 -9.5q-15 0 -29 4.5t-25.5 12t-19 18.5t-7.5 25q7 47 19.5 100.5t34.5 100t55 80t81 41.5q34 3 67.5 -7.5t61.5 -31.5t49 -51.5t31 -69.5q14 -55 10.5 -108t-20 -101.5t-42.5 -93t-55.5 -83.5t-60 -72.5t-55.5 -59.5l3 -7q44 5 88 11.5
t100 11.5q9 -12 9 -35t-5 -47t-14 -42t-18 -19q-33 0 -67 -0.5t-72.5 -1.5t-82.5 -1.5t-97 -0.5q-9 1 -17.5 8.5t-16 18t-13.5 23.5t-9 25q-4 15 -1.5 29t10.5 20q27 15 59 43.5t64.5 66t61.5 82t50 91.5q25 56 43.5 108t26.5 93t4 66.5t-22 28.5q-24 3 -44 -17t-35 -52
t-25 -69.5t-15 -70.5l-5 -28v0z" />
    <glyph glyph-name="ydieresis" unicode="&#xff;" horiz-adv-x="558" 
d="M621 392q-17 -42 -32 -91.5t-37.5 -103t-56.5 -108.5t-88 -107q-7 -7 -13.5 -12.5t-12.5 -11.5q-5 -57 -11 -116t-14 -122t-25.5 -99.5t-40 -55.5t-46 -24t-42.5 -3q-19 1 -37.5 11.5t-34.5 27t-28 38.5t-18 48q-10 42 -1.5 77t29.5 66t51.5 58.5t65.5 54.5q2 50 5.5 97
t8.5 92q-31 -56 -66 -89.5t-65 -33.5q-48 0 -76.5 34t-42 87t-13.5 118t10 127q4 27 9 57.5t10.5 61t10.5 59t8 52.5q1 5 2 14.5t1.5 20t0.5 20.5t-1 16q-3 13 8.5 10.5t27.5 -8.5q9 -4 27.5 -18t37 -31.5t33 -35t17.5 -29.5q1 -3 -3 -25t-10.5 -53.5t-14.5 -69t-15 -71.5
t-12 -60.5t-6 -35.5q-3 -24 -4.5 -48.5t-0.5 -44t4.5 -32t11.5 -12.5q13 1 31.5 18.5t37.5 46.5t36 67.5t26 80.5q3 40 10.5 89t13.5 97t9 92t-1 76q-1 6 2 7.5t8.5 0t12.5 -5.5t14 -9q10 -5 24.5 -20t29 -33t26 -36t14.5 -30q4 -20 4 -53t-3 -73.5t-8 -86t-10 -90t-10 -86
t-8 -74.5q34 41 59 82t45.5 85.5t39 94.5t40.5 110q4 12 13.5 11t18 -9.5t13.5 -21.5t1 -26zM269 820q-5 33 7 56t35 23t41.5 -23t23.5 -56q5 -32 -7.5 -54.5t-35.5 -22.5t-41 22.5t-23 54.5zM104 819q-5 32 6 55t34 23q22 0 42 -23t25 -55t-7.5 -54.5t-35.5 -22.5t-41 22.5
t-23 54.5zM224 -176q-45 -41 -70.5 -75.5t-18.5 -69.5q5 -25 18 -38t27 -12q28 2 35 47t9 122v26z" />
    <glyph glyph-name="Ydieresis" unicode="&#x178;" horiz-adv-x="1098" 
d="M330 -449q48 0 92 28t83.5 77.5t75.5 118.5t68 151q-40 11 -75 16t-62 3q-65 -2 -130 -28.5t-114.5 -70.5t-75.5 -101.5t-11 -119.5q6 -25 21 -39.5t35 -22t44.5 -10t48.5 -2.5zM1017 1267q7 22 29.5 31.5t46 8t40.5 -14t13 -33.5q-13 -65 -27.5 -158t-32 -204.5
t-38.5 -236.5t-47.5 -253.5t-59 -255.5t-73.5 -243q24 -21 48 -45.5t50 -51.5q9 -10 12.5 -21t1.5 -19t-9 -11t-18 2q-26 23 -53.5 43.5t-56.5 37.5q-40 -104 -87.5 -193t-104.5 -154t-124.5 -100t-147.5 -30q-64 4 -112 25.5t-82 56t-54.5 79.5t-29.5 95q-15 84 -1.5 162.5
t59.5 141t126 102t196 45.5q115 -3 206 -44q25 73 48 150.5t44 157.5t40.5 161t37.5 159q-42 -98 -87 -189.5t-91.5 -162t-94.5 -112.5t-95 -42q-50 0 -86.5 26.5t-61.5 63.5t-39.5 76t-19.5 64q-14 68 -2.5 142t38 150.5t64 152.5t76 147.5t73 135.5t55.5 117
q-44 5 -106 -22.5t-128.5 -76.5t-130 -113t-111 -131t-71.5 -131.5t-11 -114.5q8 -31 21.5 -60t39.5 -41q13 -5 20.5 -17.5t8 -25t-5.5 -21.5t-20 -6q-19 2 -50 10t-64.5 30t-64.5 62.5t-50 107.5q-21 75 -11.5 143.5t42 130t84.5 115.5t115.5 97.5t134.5 77.5t142 55.5
t138.5 31t123.5 4.5q31 -3 49.5 -12t27.5 -23t9 -32t-7 -39q-5 -14 -23 -61t-43 -114.5t-53.5 -148.5t-55 -164t-47.5 -161.5t-30.5 -139.5t-3.5 -99t33 -40q22 -2 58 34t79 95.5t89 135.5t88 155t77.5 153.5t57.5 131.5q21 89 41 157t39 108zM918 1449q-5 32 6.5 55
t34.5 23t42 -23t24 -55t-7.5 -54.5t-35.5 -22.5t-41 22.5t-23 54.5zM752 1448q-5 32 6.5 55t34.5 23t42 -23t24 -55q5 -33 -7.5 -55t-35.5 -22t-41 22t-23 55z" />
    <glyph glyph-name="AE" unicode="&#xc6;" horiz-adv-x="1865" 
d="M1810 1051q-20 -9 -34.5 -3t-21 19t-4 29t17.5 25q11 7 17.5 17t5 22t-13 26.5t-36.5 31.5q-24 16 -70 20t-99.5 -3t-108 -25t-96.5 -46.5t-64.5 -68t-10.5 -88.5q8 -35 33 -59.5t59.5 -44t73.5 -34.5t74.5 -30t63.5 -31.5t40 -38.5q16 -30 23.5 -49.5t11 -34t4.5 -26.5
t4 -26q-58 -3 -123 -22t-127.5 -52t-118.5 -79.5t-95 -104t-56.5 -125.5t-3.5 -145q8 -44 29 -80t48 -61t56 -38t53 -11q79 4 158.5 46.5t152 118t134 181t105.5 237.5q4 12 13 11.5t17 -7.5t13 -19t1 -24q-30 -100 -66 -192t-84.5 -174.5t-112.5 -153.5t-150 -129
q-20 -14 -48.5 -29t-63.5 -25.5t-75.5 -13t-82.5 9.5q-57 16 -113.5 51.5t-101.5 86.5t-73.5 114t-29.5 133q-1 17 -2 49.5t-6 73.5t-15 87.5t-28 90.5t-46 83.5t-68 66.5q-34 -94 -58.5 -193t-46.5 -193t-46 -178t-58 -148.5t-82.5 -104t-118.5 -44.5q-65 -4 -120.5 23.5
t-100 75t-76.5 107.5t-48 122q-20 79 -23.5 167t11.5 173t49.5 162.5t90.5 136.5t134 94t181 35q57 0 119.5 -14.5t123.5 -46.5q56 116 110.5 207.5t112 161.5t119.5 120.5t134 85t155 54t182 27.5q28 2 61 3.5t67.5 -2.5t68 -15t62.5 -33.5t51 -59t33 -90.5
q6 -26 6.5 -52.5t-5 -49.5t-17 -41t-30.5 -27zM325 -31q40 2 70 28.5t54 72.5t45 109.5t44.5 139.5t51 162t65.5 178q-58 28 -108 36t-80 6q-67 -6 -121 -34t-94 -72t-66.5 -101.5t-38.5 -121.5t-9 -132.5t21 -133.5q19 -70 62.5 -104t103.5 -33zM808 686q45 -42 79.5 -96.5
t54.5 -121.5q13 88 34.5 180t47.5 180t54.5 169t55.5 148q-83 -50 -163 -162.5t-163 -296.5zM1192 892q-7 -33 -15.5 -77t-17 -91.5t-16.5 -94t-14 -82.5q31 47 72.5 85t85 66t84.5 45.5t73 25.5q-36 0 -71 9t-68 25t-62 38.5t-51 50.5z" />
    <glyph glyph-name="OE" unicode="&#x152;" horiz-adv-x="1562" 
d="M1509 1011q-21 -9 -35.5 -3t-21 19t-3.5 29t18 25q10 7 16.5 17t5 22t-13 26t-36.5 31q-24 16 -69.5 20t-99 -3t-108.5 -25t-97 -46.5t-64 -68t-11 -88.5q8 -34 33.5 -59t59.5 -44t73 -34.5t75 -30.5t63.5 -31.5t39.5 -38.5q16 -30 24 -49.5t11.5 -34t4.5 -26.5t4 -26
q-58 -3 -123 -22t-127.5 -52t-118.5 -79t-95 -104t-56.5 -126t-3.5 -145q8 -44 28.5 -79.5t47.5 -60.5t56 -38.5t53 -11.5q80 5 159.5 47.5t152 117.5t133.5 181t105 238q4 12 13 11.5t17 -7.5t13 -19t2 -24q-30 -101 -66.5 -193t-84.5 -174.5t-112 -153.5t-150 -129
q-33 -22 -76 -35.5t-90 -15t-95 11.5t-91.5 43.5t-80 79.5t-60.5 120q-38 -54 -81 -98.5t-87 -76.5t-88 -51t-84 -23q-66 -7 -127 7.5t-113.5 53.5t-94.5 105t-70 163q-37 127 -37 261.5t27 266t75.5 254.5t107.5 226t123.5 181t123.5 120q11 7 27.5 -17.5t30.5 -63.5
q49 36 97 45q85 16 163.5 -25t130.5 -135q38 87 130 143.5t229 68.5q28 2 61 3t67.5 -2.5t68 -15t62.5 -34t51 -59t34 -90.5q6 -26 6.5 -52t-5 -49t-17 -41t-30.5 -27zM543 483q-13 -53 -40 -84.5t-61.5 -44t-72.5 -5t-72.5 33.5t-62 70.5t-41.5 106.5l-2 7
q-29 -75 -52 -156t-35 -161.5t-9.5 -156t23.5 -138.5q14 -41 34 -63.5t41.5 -33t42.5 -12.5t36 0q61 6 123.5 50.5t120.5 117.5t110 167.5t93 199.5q2 11 6.5 21.5t8.5 21.5q32 88 54.5 178.5t32.5 176.5t6.5 164t-22.5 143q-22 74 -57.5 101t-77.5 19.5t-87.5 -44
t-88 -90.5t-79.5 -120t-61.5 -131.5t-33 -125t4.5 -101.5q13 -43 36.5 -61.5t49 -21.5t48.5 6t34 22q9 10 19.5 9t19 -10t12 -23.5t-0.5 -31.5zM946 798q2 -37 2.5 -73t-1.5 -71q52 29 103 46.5t92 27.5q-52 1 -103 19.5t-93 50.5z" />
    <glyph glyph-name="Otilde" unicode="&#xd5;" horiz-adv-x="1004" 
d="M403 1362q11 7 27.5 -17.5t30.5 -63.5q49 36 97 45q53 10 104 -2t95 -45t80 -87t59 -127q39 -126 48.5 -242t-1.5 -224t-37.5 -208.5t-59.5 -194.5q-37 -100 -91.5 -184t-116.5 -146t-127 -99t-123 -43q-66 -7 -127 7.5t-113.5 53.5t-94.5 105t-70 163q-37 127 -37 261.5
t27 266t75.5 254.5t107.5 226t123.5 181t123.5 120zM543 483q-13 -53 -40 -84.5t-61.5 -44t-72.5 -5t-72.5 33.5t-62 70.5t-41.5 106.5l-2 7q-29 -75 -52 -156t-35 -161.5t-9.5 -156t23.5 -138.5q14 -41 34 -63.5t41.5 -33t42.5 -12.5t36 0q58 5 116.5 45t113.5 105.5
t105 151.5t91 182.5t71 199.5t45.5 202t14 190t-23.5 164q-22 74 -57.5 101t-77.5 19.5t-87.5 -44t-88 -90.5t-79.5 -120t-61.5 -131.5t-33 -125t4.5 -101.5q13 -43 36.5 -61.5t49 -21.5t48.5 6t34 22q9 10 19.5 9t19 -10t12 -23.5t-0.5 -31.5zM582 1457q-5 -10 -11.5 -12
t-13 2t-11.5 13t-5 21q3 18 11 40.5t19.5 40t25.5 26t30 -1.5q11 -7 19 -22t15 -32t13 -33.5t13.5 -27.5t17 -13.5t22.5 9.5q11 11 20 26.5t14 35.5q4 12 11 15t14 -1t11.5 -14.5t2.5 -23.5q-5 -24 -15 -51t-24.5 -48t-33.5 -30t-41 4q-12 7 -24 30t-23.5 46t-21.5 38t-18 5
q-14 -17 -17 -42z" />
    <glyph glyph-name="Agrave" unicode="&#xc0;" horiz-adv-x="1264" 
d="M325 -31q40 2 70 28.5t54 72.5t45 109.5t44.5 139.5t51 162t65.5 178q-58 28 -108 36t-80 6q-67 -6 -121 -34t-94 -72t-66.5 -101.5t-38.5 -121.5t-9 -132.5t21 -133.5q19 -70 62.5 -104t103.5 -33zM808 686q45 -42 79.5 -96.5t54.5 -121.5q13 88 34.5 180t47.5 180
t54.5 169t55.5 148q-83 -50 -163 -162.5t-163 -296.5zM700 762q57 123 115.5 223.5t122.5 173t135.5 116.5t154.5 55q13 1 25 -1.5t20.5 -11t11.5 -23t-3 -35.5q-11 -39 -27.5 -101t-34.5 -140t-37 -169t-35.5 -188t-29.5 -196t-19.5 -193t-5 -180t14.5 -156q2 -13 3 -24
t-2 -17t-10.5 -5t-21.5 13q-34 28 -60.5 62t-44.5 66.5t-28 60.5t-10 45q-1 17 -2 49.5t-6 73.5t-15 87.5t-28 90.5t-46 83.5t-68 66.5q-34 -94 -58.5 -193t-46.5 -193t-46 -178t-58 -148.5t-82.5 -104t-118.5 -44.5q-65 -4 -120.5 23.5t-100 75t-76.5 107.5t-48 122
q-20 79 -23.5 167t11.5 173t49.5 162.5t90.5 136.5t134 94t181 35q57 0 119.5 -14.5t123.5 -46.5zM1225 1424q0 -7 -2.5 -16.5t-13.5 -7.5q-26 16 -50.5 34.5t-46 36.5t-40 34.5t-32.5 28.5q-12 13 -12.5 31.5t6.5 33.5t20 20.5t27 -6.5q18 -21 43 -50t47.5 -57.5t38.5 -51
t15 -30.5z" />
    <glyph glyph-name="ordfeminine" unicode="&#xaa;" horiz-adv-x="497" 
d="M558 393q-12 -32 -24 -74.5t-26.5 -88t-30.5 -89.5t-35.5 -78.5t-43 -56t-50.5 -21.5q-32 0 -55 15.5t-38.5 41.5t-24 60t-11.5 72q-17 -37 -35.5 -70t-39 -58t-41.5 -39.5t-43 -12.5q-32 2 -52 33.5t-30 80.5t-9.5 110.5t10.5 125t29.5 123t47.5 104t64.5 69t80.5 18.5
q33 -5 57 -17t40.5 -28t26 -35t14.5 -38q4 -15 -0.5 -37.5t-12.5 -37.5t-16 -15t-11 30q-4 38 -33 39q-24 2 -51 -20t-58 -86q-9 -17 -17 -45t-15 -59.5t-12.5 -63.5t-7.5 -57.5t-0.5 -41.5t7.5 -16q5 0 19 24.5t32 60.5t37 78t35 77q8 29 17.5 46.5t20.5 16.5
q9 -1 26.5 -17.5t34 -37.5t27.5 -41t6 -28q-1 -2 -4 -19t-6 -41.5t-5 -52.5t-2 -52t4 -40t14 -16q13 0 26 18t25.5 47t25 66.5t24.5 76.5t23 75.5t21 65.5q4 12 13.5 11.5t18 -9t13 -21.5t0.5 -25z" />
    <glyph glyph-name="ordmasculine" unicode="&#xba;" horiz-adv-x="484" 
d="M309 557q-27 0 -53 -21t-50 -54.5t-44.5 -76.5t-36 -87.5t-25.5 -87.5t-12.5 -76.5t3 -53.5t21.5 -20q20 0 49.5 24t64.5 84q-15 28 -21 56t-6 55.5t4.5 53.5t11.5 50q4 16 13.5 36.5t23 36.5t30.5 24t35 -2q31 -16 45 -44t15 -63.5t-9 -77.5t-28 -85q27 5 50 23
t42.5 45.5t35.5 62t30 72.5q4 12 13.5 12.5t18.5 -6.5t14 -19t1 -25q-24 -77 -49 -129.5t-54 -83.5t-64.5 -41.5t-81.5 -2.5l-17 -30q-14 -23 -32 -44t-40 -38t-46.5 -28t-50.5 -13q-31 -2 -57 14.5t-45 45t-31 66.5t-16 79q-5 50 -0.5 104.5t17.5 106.5t34 99.5t48 83
t60 57t70 22.5q9 0 26 -3.5t36 -11t37.5 -20t31.5 -31.5t13.5 -28.5t-25.5 -9.5z" />
    <glyph glyph-name="ae" unicode="&#xe6;" 
d="M712 102q42 0 77.5 36.5t64.5 89t51.5 110t37.5 99.5q4 12 13.5 11.5t18 -9t13 -21.5t0.5 -25q-16 -43 -32 -90t-35 -92t-41.5 -85t-51.5 -70.5t-66 -48.5t-83 -18q-42 0 -74.5 12.5t-56.5 35t-40 53.5t-25 67q-13 -35 -27.5 -66.5t-31 -55t-35.5 -37t-41 -13.5
q-32 0 -55 15.5t-38.5 41.5t-24 60t-11.5 72q-17 -37 -35.5 -70t-39 -58t-41.5 -39.5t-43 -12.5q-32 2 -52 33.5t-30 80.5t-9.5 110.5t10.5 125t29.5 123t47.5 104t64.5 69t80.5 18.5q33 -5 57 -17t40.5 -28t26 -35t14.5 -38q4 -15 -0.5 -37.5t-12.5 -37.5t-16 -15t-11 30
q-4 38 -33 39q-24 2 -51 -20t-58 -86q-9 -17 -17 -45t-15 -59.5t-12.5 -63.5t-7.5 -57.5t-0.5 -41.5t7.5 -16q5 0 19 24.5t32 60.5t37 78t35 77q8 29 17.5 46.5t20.5 16.5q9 -1 26.5 -17.5t34 -37.5t27.5 -41t6 -28q-1 -2 -4 -19t-6 -41.5t-5 -52.5t-2 -52t4 -40t14 -16
q13 0 26.5 18.5t26.5 49t26 69.5t25 79q4 64 22 127t46.5 113.5t66 82.5t81.5 34q28 1 51.5 -8t41.5 -25t30 -37t18 -44q17 -62 1.5 -122.5t-49 -109.5t-77.5 -81.5t-84 -38.5q9 -42 31.5 -68t60.5 -25zM618 273q25 8 54.5 33t53 57.5t37.5 67.5t8 62q-2 9 -9.5 17.5
t-19.5 8.5q-29 0 -52.5 -22.5t-40 -57.5t-25 -79t-6.5 -87z" />
    <glyph glyph-name="Amacron" unicode="&#x100;" horiz-adv-x="1264" 
d="M325 -31q40 2 70 28.5t54 72.5t45 109.5t44.5 139.5t51 162t65.5 178q-58 28 -108 36t-80 6q-67 -6 -121 -34t-94 -72t-66.5 -101.5t-38.5 -121.5t-9 -132.5t21 -133.5q19 -70 62.5 -104t103.5 -33zM808 686q45 -42 79.5 -96.5t54.5 -121.5q13 88 34.5 180t47.5 180
t54.5 169t55.5 148q-83 -50 -163 -162.5t-163 -296.5zM700 762q57 123 115.5 223.5t122.5 173t135.5 116.5t154.5 55q13 1 25 -1.5t20.5 -11t11.5 -23t-3 -35.5q-11 -39 -27.5 -101t-34.5 -140t-37 -169t-35.5 -188t-29.5 -196t-19.5 -193t-5 -180t14.5 -156q2 -13 3 -24
t-2 -17t-10.5 -5t-21.5 13q-34 28 -60.5 62t-44.5 66.5t-28 60.5t-10 45q-1 17 -2 49.5t-6 73.5t-15 87.5t-28 90.5t-46 83.5t-68 66.5q-34 -94 -58.5 -193t-46.5 -193t-46 -178t-58 -148.5t-82.5 -104t-118.5 -44.5q-65 -4 -120.5 23.5t-100 75t-76.5 107.5t-48 122
q-20 79 -23.5 167t11.5 173t49.5 162.5t90.5 136.5t134 94t181 35q57 0 119.5 -14.5t123.5 -46.5zM1129 1411q-11 1 -14 11.5t-0.5 22.5t10 22t17.5 10h206q9 -4 11.5 -13.5t0 -20.5t-9 -20t-15.5 -12h-206z" />
    <glyph glyph-name="amacron" unicode="&#x101;" horiz-adv-x="497" 
d="M558 393q-12 -32 -24 -74.5t-26.5 -88t-30.5 -89.5t-35.5 -78.5t-43 -56t-50.5 -21.5q-32 0 -55 15.5t-38.5 41.5t-24 60t-11.5 72q-17 -37 -35.5 -70t-39 -58t-41.5 -39.5t-43 -12.5q-32 2 -52 33.5t-30 80.5t-9.5 110.5t10.5 125t29.5 123t47.5 104t64.5 69t80.5 18.5
q33 -5 57 -17t40.5 -28t26 -35t14.5 -38q4 -15 -0.5 -37.5t-12.5 -37.5t-16 -15t-11 30q-4 38 -33 39q-24 2 -51 -20t-58 -86q-9 -17 -17 -45t-15 -59.5t-12.5 -63.5t-7.5 -57.5t-0.5 -41.5t7.5 -16q5 0 19 24.5t32 60.5t37 78t35 77q8 29 17.5 46.5t20.5 16.5
q9 -1 26.5 -17.5t34 -37.5t27.5 -41t6 -28q-1 -2 -4 -19t-6 -41.5t-5 -52.5t-2 -52t4 -40t14 -16q13 0 26 18t25.5 47t25 66.5t24.5 76.5t23 75.5t21 65.5q4 12 13.5 11.5t18 -9t13 -21.5t0.5 -25zM163 753q-11 1 -14 11.5t-0.5 22.5t10 22t17.5 10h206q9 -4 11.5 -13.5
t0 -20.5t-9 -20t-15.5 -12h-206z" />
    <glyph glyph-name="Abreve" unicode="&#x102;" horiz-adv-x="1264" 
d="M325 -31q40 2 70 28.5t54 72.5t45 109.5t44.5 139.5t51 162t65.5 178q-58 28 -108 36t-80 6q-67 -6 -121 -34t-94 -72t-66.5 -101.5t-38.5 -121.5t-9 -132.5t21 -133.5q19 -70 62.5 -104t103.5 -33zM808 686q45 -42 79.5 -96.5t54.5 -121.5q13 88 34.5 180t47.5 180
t54.5 169t55.5 148q-83 -50 -163 -162.5t-163 -296.5zM700 762q57 123 115.5 223.5t122.5 173t135.5 116.5t154.5 55q13 1 25 -1.5t20.5 -11t11.5 -23t-3 -35.5q-11 -39 -27.5 -101t-34.5 -140t-37 -169t-35.5 -188t-29.5 -196t-19.5 -193t-5 -180t14.5 -156q2 -13 3 -24
t-2 -17t-10.5 -5t-21.5 13q-34 28 -60.5 62t-44.5 66.5t-28 60.5t-10 45q-1 17 -2 49.5t-6 73.5t-15 87.5t-28 90.5t-46 83.5t-68 66.5q-34 -94 -58.5 -193t-46.5 -193t-46 -178t-58 -148.5t-82.5 -104t-118.5 -44.5q-65 -4 -120.5 23.5t-100 75t-76.5 107.5t-48 122
q-20 79 -23.5 167t11.5 173t49.5 162.5t90.5 136.5t134 94t181 35q57 0 119.5 -14.5t123.5 -46.5zM1187 1589q0 13 5 18.5t11 4.5t11.5 -9t7.5 -21q1 -20 6.5 -37t13.5 -29.5t18.5 -19t22.5 -4.5t26 13t26.5 26.5t22.5 33.5t14 35q5 8 11 8.5t11.5 -4.5t8 -14t1.5 -19
q-5 -21 -17.5 -48t-30.5 -50.5t-40.5 -39t-47.5 -12.5q-21 3 -35 17.5t-23.5 37.5t-15 52t-7.5 61z" />
    <glyph glyph-name="abreve" unicode="&#x103;" horiz-adv-x="497" 
d="M558 393q-12 -32 -24 -74.5t-26.5 -88t-30.5 -89.5t-35.5 -78.5t-43 -56t-50.5 -21.5q-32 0 -55 15.5t-38.5 41.5t-24 60t-11.5 72q-17 -37 -35.5 -70t-39 -58t-41.5 -39.5t-43 -12.5q-32 2 -52 33.5t-30 80.5t-9.5 110.5t10.5 125t29.5 123t47.5 104t64.5 69t80.5 18.5
q33 -5 57 -17t40.5 -28t26 -35t14.5 -38q4 -15 -0.5 -37.5t-12.5 -37.5t-16 -15t-11 30q-4 38 -33 39q-24 2 -51 -20t-58 -86q-9 -17 -17 -45t-15 -59.5t-12.5 -63.5t-7.5 -57.5t-0.5 -41.5t7.5 -16q5 0 19 24.5t32 60.5t37 78t35 77q8 29 17.5 46.5t20.5 16.5
q9 -1 26.5 -17.5t34 -37.5t27.5 -41t6 -28q-1 -2 -4 -19t-6 -41.5t-5 -52.5t-2 -52t4 -40t14 -16q13 0 26 18t25.5 47t25 66.5t24.5 76.5t23 75.5t21 65.5q4 12 13.5 11.5t18 -9t13 -21.5t0.5 -25zM184 911q0 13 4.5 19t10.5 4.5t11.5 -9t7.5 -21.5q1 -19 6.5 -36
t13.5 -29.5t18.5 -19t22.5 -4.5t26 12.5t27 26.5t22.5 34t14.5 35q4 8 10 8t11.5 -5t8 -14t1.5 -19q-5 -20 -17.5 -47t-30.5 -51t-40.5 -39.5t-47.5 -12.5q-21 3 -35 17.5t-23.5 37.5t-14.5 52t-7 61z" />
    <glyph glyph-name="Aogonek" unicode="&#x104;" horiz-adv-x="1264" 
d="M700 762q57 123 115.5 223.5t122.5 173t135.5 116.5t154.5 55q13 1 25 -1.5t20.5 -11t11.5 -23t-3 -35.5q-11 -39 -27.5 -101t-34.5 -140t-37 -169t-35.5 -188t-29.5 -196t-19.5 -193t-5 -180t14.5 -156q2 -12 3 -23t-2 -17t-10 -5.5t-21 11.5q-9 -20 -16 -40t-9 -31
q-5 -25 3.5 -46t39.5 -34q12 -4 16 -13.5t2 -19t-9 -17t-17 -6.5q-19 9 -35.5 21t-28 27.5t-16.5 37t-1 50.5q5 27 14.5 51.5t20.5 53.5q-26 27 -46 56t-34 56t-21 50.5t-7 38.5q-1 17 -2 49.5t-6 73.5t-15 87.5t-28 90.5t-46 83.5t-68 66.5q-34 -94 -58.5 -193t-46.5 -193
t-46 -178t-58 -148.5t-82.5 -104t-118.5 -44.5q-65 -4 -120.5 23.5t-100 75t-76.5 107.5t-48 122q-20 79 -23.5 167t11.5 173t49.5 162.5t90.5 136.5t134 94t181 35q57 0 119.5 -14.5t123.5 -46.5zM325 -31q40 2 70 28.5t54 72.5t45 109.5t44.5 139.5t51 162t65.5 178
q-58 28 -108 36t-80 6q-67 -6 -121 -34t-94 -72t-66.5 -101.5t-38.5 -121.5t-9 -132.5t21 -133.5q19 -70 62.5 -104t103.5 -33zM808 686q45 -42 79.5 -96.5t54.5 -121.5q13 88 34.5 180t47.5 180t54.5 169t55.5 148q-83 -50 -163 -162.5t-163 -296.5z" />
    <glyph glyph-name="aogonek" unicode="&#x105;" horiz-adv-x="497" 
d="M558 393q-11 -31 -23 -72.5t-26 -85.5t-29.5 -87.5t-34.5 -78t-41 -57.5t-48 -26q-10 -23 -19 -48.5t-12 -36.5q-5 -25 4 -46t40 -34q12 -4 16 -13.5t2 -19t-9 -17t-17 -6.5q-19 9 -35.5 21t-28.5 27.5t-17 37t-1 50.5q5 24 13 46t18 45q-22 8 -38 26t-27 42t-17 53
t-9 61q-17 -37 -35.5 -70t-39 -58t-41.5 -39.5t-43 -12.5q-32 2 -52 33.5t-30 80.5t-9.5 110.5t10.5 125t29.5 123t47.5 104t64.5 69t80.5 18.5q33 -5 57 -17t40.5 -28t26 -35t14.5 -38q4 -15 -0.5 -37.5t-12.5 -37.5t-16 -15t-11 30q-4 38 -33 39q-24 2 -51 -20t-58 -86
q-9 -17 -17 -45t-15 -59.5t-12.5 -63.5t-7.5 -57.5t-0.5 -41.5t7.5 -16q5 0 19 24.5t32 60.5t37 78t35 77q8 29 17.5 46.5t20.5 16.5q9 -1 26.5 -17.5t34 -37.5t27.5 -41t6 -28q-1 -2 -4 -19t-6 -41.5t-5 -52.5t-2 -52t4 -40t14 -16q13 0 26 18t25.5 47t25 66.5t24.5 76.5
t23 75.5t21 65.5q4 12 13.5 11.5t18 -9t13 -21.5t0.5 -25z" />
    <glyph glyph-name="Cacute" unicode="&#x106;" horiz-adv-x="771" 
d="M795 456q4 11 12.5 11t17 -7t13.5 -18.5t1 -22.5q-34 -96 -66 -180t-71.5 -157.5t-91 -138t-124.5 -122.5q-27 -22 -66 -38t-82 -19.5t-85.5 7.5t-76.5 43q-24 22 -48.5 45t-47.5 52t-43 67t-34 91q-21 74 -27.5 156.5t3 172t36 185.5t73.5 197q-63 29 -111 79t-65 122
q-12 52 1 97.5t47 79.5t87 54t121 21q57 2 110.5 -10t99.5 -36q65 58 132 96t127 43q47 4 82 -11t58.5 -41.5t36 -62.5t14.5 -74t-6.5 -75.5t-25.5 -67.5q-33 -58 -80 -104.5t-102.5 -80.5t-117 -54t-122.5 -24q-19 -2 -39 -2.5t-40 0.5q-42 -75 -75.5 -157.5t-52.5 -169
t-21 -175.5t18 -178q11 -50 34.5 -77t48 -39.5t45 -15t26.5 -2.5q66 0 133.5 41t130 113.5t117.5 171.5t96 215zM470 981q-31 -35 -61 -74.5t-59 -84.5q2 0 2.5 0.5t2.5 0.5q54 4 112.5 21.5t111.5 47t96.5 71t66.5 93.5q11 24 17.5 46.5t5.5 39t-10.5 26t-30.5 7.5
q-35 -4 -90 -42t-118 -103q7 -21 10 -43.5t4 -48.5q0 -17 -7.5 -23.5t-17.5 -4t-19 12.5t-12 26q0 8 -1 16.5t-3 15.5zM-1 981q8 -42 45 -70.5t85 -48.5q13 23 26.5 45.5t27.5 45.5q28 45 61.5 88.5t71.5 84.5q-31 8 -64 11.5t-66 2.5q-37 -1 -73 -16t-63 -38t-42 -51
t-9 -54zM631 1429q-3 8 5.5 31t23 51.5t31 57.5t28.5 49q10 13 24.5 7t26 -20.5t16.5 -33t-3 -31.5q-10 -13 -23.5 -29.5t-30 -34.5t-35.5 -36t-40 -34q-11 -2 -16 7.5t-7 15.5z" />
    <glyph glyph-name="cacute" unicode="&#x107;" horiz-adv-x="419" 
d="M226 105q35 7 65.5 41.5t56.5 83t47.5 104t38.5 103.5q4 12 13.5 11.5t18 -9t13 -21.5t0.5 -25q-15 -42 -31 -88.5t-34.5 -91.5t-41 -86t-51.5 -72t-64.5 -49.5t-80.5 -18.5t-81 24.5t-61 66t-38.5 95.5t-15 113t10 118t37.5 111q39 80 84.5 112t84.5 31q32 0 56 -11.5
t41 -29t27 -38t14 -39.5q3 -12 6 -32.5t0 -46.5t-14.5 -56t-38.5 -61q-7 -8 -16 -5.5t-15.5 10.5t-9 19.5t3.5 20.5q17 26 23.5 50t4.5 42t-11 29t-22 11q-7 0 -17 -4.5t-22 -16.5t-25.5 -33t-28.5 -54q-12 -27 -19.5 -60t-9 -67.5t3 -67.5t17 -58.5t32.5 -40.5t49 -14z
M175 763q-3 8 6 30.5t23 51t30.5 57.5t28.5 50q10 13 24.5 7t26 -20.5t16.5 -33t-3 -31.5q-20 -26 -53.5 -64t-75.5 -71q-11 -2 -16 8t-7 16z" />
    <glyph glyph-name="Ccircumflex" unicode="&#x108;" horiz-adv-x="771" 
d="M795 456q4 11 12.5 11t17 -7t13.5 -18.5t1 -22.5q-34 -96 -66 -180t-71.5 -157.5t-91 -138t-124.5 -122.5q-27 -22 -66 -38t-82 -19.5t-85.5 7.5t-76.5 43q-24 22 -48.5 45t-47.5 52t-43 67t-34 91q-21 74 -27.5 156.5t3 172t36 185.5t73.5 197q-63 29 -111 79t-65 122
q-12 52 1 97.5t47 79.5t87 54t121 21q57 2 110.5 -10t99.5 -36q65 58 132 96t127 43q47 4 82 -11t58.5 -41.5t36 -62.5t14.5 -74t-6.5 -75.5t-25.5 -67.5q-33 -58 -80 -104.5t-102.5 -80.5t-117 -54t-122.5 -24q-19 -2 -39 -2.5t-40 0.5q-42 -75 -75.5 -157.5t-52.5 -169
t-21 -175.5t18 -178q11 -50 34.5 -77t48 -39.5t45 -15t26.5 -2.5q66 0 133.5 41t130 113.5t117.5 171.5t96 215zM470 981q-31 -35 -61 -74.5t-59 -84.5q2 0 2.5 0.5t2.5 0.5q54 4 112.5 21.5t111.5 47t96.5 71t66.5 93.5q11 24 17.5 46.5t5.5 39t-10.5 26t-30.5 7.5
q-35 -4 -90 -42t-118 -103q7 -21 10 -43.5t4 -48.5q0 -17 -7.5 -23.5t-17.5 -4t-19 12.5t-12 26q0 8 -1 16.5t-3 15.5zM-1 981q8 -42 45 -70.5t85 -48.5q13 23 26.5 45.5t27.5 45.5q28 45 61.5 88.5t71.5 84.5q-31 8 -64 11.5t-66 2.5q-37 -1 -73 -16t-63 -38t-42 -51
t-9 -54zM626 1432q1 0 14 11t32 26.5t42 33t43.5 31.5t36.5 22t21 4q4 -3 11 -16.5t14 -32t14 -39.5l13 -39t9.5 -30t3.5 -13q-2 -24 -14 -27t-23 16q-7 12 -11 20t-8.5 15.5t-9.5 16t-13 19.5q-16 -6 -35.5 -14.5t-40 -17.5t-40.5 -18.5t-37 -17.5q-15 -3 -21.5 4t-8 17
t1 18.5t6.5 10.5z" />
    <glyph glyph-name="ccircumflex" unicode="&#x109;" horiz-adv-x="419" 
d="M226 105q35 7 65.5 41.5t56.5 83t47.5 104t38.5 103.5q4 12 13.5 11.5t18 -9t13 -21.5t0.5 -25q-15 -42 -31 -88.5t-34.5 -91.5t-41 -86t-51.5 -72t-64.5 -49.5t-80.5 -18.5t-81 24.5t-61 66t-38.5 95.5t-15 113t10 118t37.5 111q39 80 84.5 112t84.5 31q32 0 56 -11.5
t41 -29t27 -38t14 -39.5q3 -12 6 -32.5t0 -46.5t-14.5 -56t-38.5 -61q-7 -8 -16 -5.5t-15.5 10.5t-9 19.5t3.5 20.5q17 26 23.5 50t4.5 42t-11 29t-22 11q-7 0 -17 -4.5t-22 -16.5t-25.5 -33t-28.5 -54q-12 -27 -19.5 -60t-9 -67.5t3 -67.5t17 -58.5t32.5 -40.5t49 -14z
M131 784q1 0 13.5 10.5t32 26t42.5 33t43.5 31.5t36.5 22t21 4q4 -3 10.5 -16t14 -31.5t14.5 -39.5l13 -39t9.5 -30t3.5 -13q-2 -24 -14.5 -27t-22.5 16q-7 12 -11 20t-8.5 15.5t-9.5 15.5t-13 20q-17 -6 -36.5 -14.5t-40 -18t-40.5 -18.5t-36 -17q-15 -3 -21.5 4t-8 17
t1 18.5t6.5 10.5z" />
    <glyph glyph-name="Cdotaccent" unicode="&#x10a;" horiz-adv-x="771" 
d="M795 456q4 11 12.5 11t17 -7t13.5 -18.5t1 -22.5q-34 -96 -66 -180t-71.5 -157.5t-91 -138t-124.5 -122.5q-27 -22 -66 -38t-82 -19.5t-85.5 7.5t-76.5 43q-24 22 -48.5 45t-47.5 52t-43 67t-34 91q-21 74 -27.5 156.5t3 172t36 185.5t73.5 197q-63 29 -111 79t-65 122
q-12 52 1 97.5t47 79.5t87 54t121 21q57 2 110.5 -10t99.5 -36q65 58 132 96t127 43q47 4 82 -11t58.5 -41.5t36 -62.5t14.5 -74t-6.5 -75.5t-25.5 -67.5q-33 -58 -80 -104.5t-102.5 -80.5t-117 -54t-122.5 -24q-19 -2 -39 -2.5t-40 0.5q-42 -75 -75.5 -157.5t-52.5 -169
t-21 -175.5t18 -178q11 -50 34.5 -77t48 -39.5t45 -15t26.5 -2.5q66 0 133.5 41t130 113.5t117.5 171.5t96 215zM470 981q-31 -35 -61 -74.5t-59 -84.5q2 0 2.5 0.5t2.5 0.5q54 4 112.5 21.5t111.5 47t96.5 71t66.5 93.5q11 24 17.5 46.5t5.5 39t-10.5 26t-30.5 7.5
q-35 -4 -90 -42t-118 -103q7 -21 10 -43.5t4 -48.5q0 -17 -7.5 -23.5t-17.5 -4t-19 12.5t-12 26q0 8 -1 16.5t-3 15.5zM-1 981q8 -42 45 -70.5t85 -48.5q13 23 26.5 45.5t27.5 45.5q28 45 61.5 88.5t71.5 84.5q-31 8 -64 11.5t-66 2.5q-37 -1 -73 -16t-63 -38t-42 -51
t-9 -54zM683 1462q-5 32 7 54.5t35 22.5t42 -22.5t24 -54.5q4 -32 -8 -54.5t-35 -22.5t-42 22.5t-23 54.5z" />
    </font>
</defs>
</svg>
