<?xml version="1.0" encoding="utf-8"?>
<!-- Generator: Adobe Illustrator 16.0.0, SVG Export Plug-In . SVG Version: 6.00 Build 0)  -->
<!DOCTYPE svg PUBLIC "-//W3C//DTD SVG 1.1//EN" "http://www.w3.org/Graphics/SVG/1.1/DTD/svg11.dtd">
<svg version="1.1" id="Layer_1" xmlns="http://www.w3.org/2000/svg" xmlns:xlink="http://www.w3.org/1999/xlink" x="0px" y="0px"
	 width="176.667px" height="240.167px" viewBox="0 0 176.667 240.167" enable-background="new 0 0 176.667 240.167"
	 xml:space="preserve">
<g>
	<path fill-rule="evenodd" clip-rule="evenodd" d="M14.189,120.235c0-34.705,0.012-69.41-0.021-104.115
		c-0.002-3.062,0.143-3.667,3.573-3.665c47.11,0.031,94.221,0.02,141.331,0.02c0.518,0,1.036-0.023,1.551,0.018
		c1.106,0.089,1.749,0.703,1.846,1.813c0.052,0.586,0.021,1.181,0.021,1.771c0,69.336,0,138.672-0.001,208.009
		c0,0.517,0.024,1.035-0.009,1.551c-0.093,1.417-0.629,1.959-2.025,2.042c-0.589,0.035-1.182,0.011-1.772,0.011
		c-46.963,0-93.926-0.009-140.889,0.021c-3.281,0.002-3.627-0.27-3.623-3.582C14.201,189.498,14.189,154.866,14.189,120.235z
		 M16.965,120.005c0,33.672,0.015,67.344-0.02,101.017c-0.004,4.144,0.563,3.955,3.948,3.954
		c44.823-0.017,89.645-0.011,134.468-0.01c4.196,0,4.204,0,4.204-4.324c0.002-67.123,0.002-134.246,0-201.369
		c0-3.953-0.029-3.981-3.921-3.981c-44.896-0.001-89.793-0.001-134.688,0c-3.973,0-3.986,0.004-3.987,3.918
		C16.966,52.808,16.967,86.406,16.965,120.005z"/>
	<path fill-rule="evenodd" clip-rule="evenodd" d="M82.713,183.951c-0.197,1.234-0.408,1.977-0.42,2.723
		c-0.045,2.879,0.006,5.76-0.041,8.64c-0.033,2.122-0.216,2.285-2.279,2.303c-1.012,0.008-2.026-0.084-3.174-0.137
		c-0.068-0.806-0.167-1.446-0.168-2.087c-0.012-6.794-0.014-13.588-0.004-20.383c0.002-2.383,0.156-2.457,2.498-2.566
		c1.867-0.087,3.039,0.647,4.24,2.135c3.118,3.861,6.516,7.497,9.811,11.215c0.077,0.086,0.257,0.081,0.624,0.187
		c0.071-0.649,0.191-1.262,0.196-1.875c0.021-3.027,0.001-6.055,0.017-9.083c0.011-2.162,0.383-2.517,2.603-2.558
		c0.517-0.01,1.039-0.038,1.549,0.021c1.311,0.15,1.79,0.648,1.81,2.011c0.036,2.584,0.012,5.169,0.012,7.754
		c0.001,4.356,0.011,8.714-0.005,13.07c-0.007,2.116-0.146,2.236-2.252,2.303c-0.369,0.012-0.741-0.023-1.107,0.01
		c-1.502,0.136-2.497-0.405-3.512-1.654C89.887,192.011,86.439,188.227,82.713,183.951z"/>
	<path fill-rule="evenodd" clip-rule="evenodd" d="M111.629,54.861c-0.002-3.317-0.029-6.634,0.009-9.951
		c0.023-1.957,0.22-2.222,2.152-2.229c3.83-0.012,7.693-0.179,11.48,0.26c3.647,0.422,6.404,2.665,8.137,5.947
		c3.593,6.806,1.013,15.297-6.88,18.156c-1.287,0.466-2.754,0.543-4.146,0.587c-2.798,0.089-5.602,0.076-8.401,0.021
		c-1.93-0.038-2.314-0.442-2.339-2.399C111.6,61.79,111.63,58.325,111.629,54.861z M117.439,62.041c2.028,0,3.788-0.077,5.539,0.018
		c2.828,0.153,5.34-1.572,6.198-4.636c1.166-4.163-0.327-7.807-4.324-9.084c-2.319-0.741-4.914-0.369-7.413-0.108
		C117.439,52.875,117.439,57.276,117.439,62.041z"/>
	<path fill-rule="evenodd" clip-rule="evenodd" d="M99.96,110.402c-2.258,0.86-4.09,0.718-5.864,0.313
		c-0.614-0.14-1.149-0.855-1.612-1.399c-1.518-1.784-2.95-3.642-4.485-5.411c-0.93-1.072-3.67-1.688-4.846-1.02
		c-0.448,0.255-0.771,1.045-0.822,1.621c-0.125,1.391-0.025,2.801-0.072,4.201c-0.066,1.934-0.271,2.141-2.21,2.173
		c-1.017,0.017-2.035-0.079-2.995-0.12c-0.512-1.723-0.635-21.827-0.188-24.428c0.398-0.111,0.822-0.337,1.242-0.33
		c4.419,0.078,8.85,0.021,13.249,0.366c2.407,0.188,3.953,2.136,5.095,4.123c1.922,3.348,1.146,7.348-1.755,9.989
		c-1.529,1.392-1.478,1.777-0.131,3.36C96.308,105.888,97.983,107.991,99.96,110.402z M86.658,97.661c0-0.006,0-0.011,0-0.017
		c0.811,0,1.622,0.005,2.434-0.003c0.221-0.002,0.442-0.029,0.661-0.063c1.623-0.245,2.538-1.342,2.552-3.053
		c0.015-1.707-0.846-2.829-2.504-3.066c-1.089-0.154-2.204-0.178-3.308-0.184c-4.422-0.023-4.46,0.027-4.212,4.42
		c0.008,0.147,0.013,0.295,0.016,0.443c0.021,0.969,0.473,1.52,1.484,1.521C84.74,97.663,85.699,97.661,86.658,97.661z"/>
	<path fill-rule="evenodd" clip-rule="evenodd" d="M64.688,197.26c-1.749,0.604-3.365,0.396-4.954,0.256
		c-0.848-0.074-1.089-0.79-1.275-1.58c-0.468-1.992-0.611-2.071-2.71-2.088c-2.208-0.018-4.415-0.004-6.721-0.004
		c-0.512,1.223-0.984,2.351-1.51,3.604c-1.824,0-3.701,0-5.604,0c-0.487-1.975,0.641-3.438,1.111-4.993
		c1.208-3.982,2.687-7.883,4.025-11.826c0.682-2.005,1.273-4.04,1.945-6.048c0.523-1.564,1.262-2.077,2.941-2.109
		c1.107-0.021,2.215-0.021,3.32,0.008c1.068,0.029,1.813,0.587,2.161,1.583c0.916,2.624,1.823,5.251,2.685,7.893
		c1.359,4.163,2.693,8.335,4.002,12.514C64.366,195.299,64.467,196.179,64.688,197.26z M50.616,188.548c1.963,0,3.469,0,5.142,0
		c0.196-3.235-1.549-5.774-2.311-8.646C51.594,182.467,51.193,185.404,50.616,188.548z"/>
	<path fill-rule="evenodd" clip-rule="evenodd" d="M64.789,153.785c-1.817,0.78-3.496,0.514-5.141,0.321
		c-0.855-0.101-1.024-0.87-1.197-1.643c-0.409-1.819-0.676-2.002-2.536-2.02c-2.275-0.021-4.551-0.005-6.89-0.005
		c-0.488,1.195-0.925,2.268-1.422,3.488c-1.813,0.616-3.738,0.317-5.953,0.125c0.189-0.928,0.265-1.639,0.484-2.303
		c1.352-4.084,2.735-8.157,4.108-12.233c0.955-2.835,1.907-5.672,2.874-8.502c0.094-0.272,0.268-0.528,0.447-0.757
		c1.597-2.019,3.811-1.03,5.762-1.071c1.289-0.026,1.914,0.931,2.285,2.26c0.803,2.882,1.893,5.682,2.824,8.528
		c1.02,3.119,1.995,6.252,2.983,9.382C63.874,150.797,64.313,152.243,64.789,153.785z M50.619,145.155c1.852,0,3.418,0,5.174,0
		c0.091-3.208-1.54-5.779-2.371-8.647C51.678,139.103,51.186,142.017,50.619,145.155z"/>
	<path fill-rule="evenodd" clip-rule="evenodd" d="M92.851,63.775c-3.164,0-6.147,0-9.235,0c-0.187,0.703-0.341,1.331-0.52,1.952
		c-0.48,1.67-0.687,1.874-2.457,1.925c-1.233,0.036-2.472-0.072-4.01-0.127c0.748-4.499,2.71-8.344,3.845-12.428
		c1.128-4.061,2.646-8.014,3.984-11.995c2.091-0.595,5.233-0.624,7.462-0.065c2.622,7.917,5.254,15.86,7.945,23.981
		c-1.839,1.027-3.72,0.78-5.552,0.354c-0.405-0.095-0.728-0.875-0.938-1.4C93.135,65.367,93.062,64.696,92.851,63.775z
		 M85.344,58.328c1.979,0,3.691,0,5.531,0c-0.402-3.081-1.305-5.82-2.598-8.856C86.587,52.381,86.264,55.228,85.344,58.328z"/>
	<path fill-rule="evenodd" clip-rule="evenodd" d="M48.891,57.04c0,3.354,0,6.707,0,10.07c-0.627,0.227-1.019,0.452-1.432,0.504
		c-3.658,0.463-4.084,0.083-4.086-3.577c-0.002-6.121-0.001-12.242-0.002-18.362c0-0.872,0-1.745,0-2.585
		c1.893-0.714,3.545-0.519,5.472-0.125c0,3.138,0,6.274,0,9.411c0.159,0.083,0.319,0.167,0.478,0.25
		c0.43-0.392,0.938-0.727,1.275-1.186c1.732-2.346,3.512-4.665,5.087-7.114c0.838-1.304,1.896-1.75,3.297-1.704
		c1.151,0.038,2.302,0.145,3.72,0.239c-1.955,4.558-5.377,7.771-7.82,11.883c2.703,3.944,5.447,7.95,8.181,11.938
		c-1.999,1.591-5.349,1.354-6.641-0.395c-1.858-2.516-3.606-5.113-5.426-7.659c-0.452-0.632-0.997-1.199-1.498-1.796
		C49.293,56.901,49.092,56.97,48.891,57.04z"/>
	<path fill-rule="evenodd" clip-rule="evenodd" d="M84.965,135.081c-1.848-0.097-3.586-0.188-5.461-0.287c0-1.733,0-3.256,0-5.104
		c0.773-0.183,1.657-0.561,2.547-0.574c4.133-0.064,8.268-0.053,12.4-0.018c2.138,0.019,2.553,0.464,2.533,2.668
		c-0.009,0.997-0.196,1.993-0.323,3.18c-1.865,0-3.464,0-5.287,0c-0.291,4.659-0.159,9.096-0.113,13.766c1.912,0,3.509,0,5.17,0
		c0.214,0.658,0.445,1.118,0.507,1.6c0.45,3.525,0.071,3.944-3.511,3.949c-3.765,0.006-7.53,0.019-11.294-0.011
		c-0.855-0.007-1.711-0.17-2.662-0.271c0-1.723,0-3.244,0-5.033c1.84-0.108,3.634-0.215,5.373-0.317
		C85.309,146.779,85.392,137.783,84.965,135.081z"/>
	<path fill-rule="evenodd" clip-rule="evenodd" d="M132.104,178.33c-2.049,0-3.787,0-5.45,0c-0.608,2.241-0.561,11.792,0.088,13.834
		c1.631,0,3.36,0,5.225,0c0,1.867,0,3.45,0,5.011c-1.658,0.535-14.024,0.68-16.865,0.198c-0.609-1.584-0.356-3.225-0.143-5.099
		c1.302-0.038,2.53-0.117,3.757-0.095c0.961,0.018,1.698-0.331,1.704-1.298c0.027-3.971-0.04-7.941-0.087-11.911
		c-0.001-0.122-0.155-0.242-0.423-0.634c-1.474,0-3.136,0-5.104,0c0-1.711-0.081-3.164,0.025-4.604
		c0.085-1.142,1.01-1.277,1.968-1.274c3.613,0.012,7.226,0.001,10.839,0.002c0.958,0,1.918-0.021,2.874,0.027
		c1.038,0.052,1.62,0.575,1.598,1.687C132.084,175.477,132.104,176.778,132.104,178.33z"/>
	<path fill-rule="evenodd" clip-rule="evenodd" d="M44.571,110.437c0-1.542,0-3.13,0-4.933c1.954-0.089,3.826-0.175,5.634-0.259
		c0.512-1.965,0.543-11.235,0.036-13.561c-1.735-0.076-3.544-0.155-5.457-0.239c-0.597-1.685-0.354-3.335-0.204-4.956
		c2.037-0.744,14.786-0.812,17.061-0.07c0,1.6,0,3.248,0,5.136c-1.336,0-2.5-0.028-3.661,0.007c-1.604,0.049-1.96,0.338-1.988,1.957
		c-0.058,3.316-0.054,6.637-0.003,9.955c0.024,1.646,0.292,1.847,2.01,1.892c1.168,0.03,2.34,0.006,3.701,0.006
		c0,1.856,0,3.512,0,5.109C59.465,111.206,46.694,111.165,44.571,110.437z"/>
	<path fill-rule="evenodd" clip-rule="evenodd" d="M115.023,102.966c1.618,0,3.008,0,4.535,0c0.31,0.453,0.667,0.993,1.042,1.521
		c1.313,1.848,3.456,2.216,5.121,0.729c0.461-0.41,0.676-1.283,0.704-1.955c0.09-2.135,0.04-4.273,0.042-6.412
		c0.002-2.727,0-5.453,0-8.18c0-0.724,0-1.446,0-2.141c1.927-0.878,3.63-0.736,5.475-0.19c0.057,0.577,0.16,1.144,0.161,1.712
		c0.011,5.158-0.141,10.323,0.046,15.476c0.159,4.386-3.919,7.836-7.943,7.978c-2.513,0.088-4.841-0.333-6.824-1.902
		C115.32,107.97,114.494,105.814,115.023,102.966z"/>
	<path fill-rule="evenodd" clip-rule="evenodd" d="M120.082,148.811c4.147,0,7.885,0,11.823,0c0,1.828,0,3.402,0,4.979
		c-1.628,0.573-13.984,0.724-16.947,0.156c-0.061-0.629-0.186-1.333-0.187-2.038c-0.016-6.794-0.01-13.589-0.012-20.384
		c0-0.964-0.13-2.064,1.157-2.292c1.297-0.23,2.724-0.511,3.782,0.521c0.375,0.366,0.361,1.227,0.365,1.862
		c0.028,4.801,0.017,9.601,0.018,14.401C120.082,146.813,120.082,147.608,120.082,148.811z"/>
</g>
</svg>
